<svg width="402" height="208" viewBox="0 0 402 208" fill="none" xmlns="http://www.w3.org/2000/svg">
<path fill-rule="evenodd" clip-rule="evenodd" d="M227.068 0.20768C236.147 0.914456 244.257 4.74592 256.967 14.332C259.538 16.2708 261.783 17.867 261.956 17.8795C262.815 17.9403 262.197 17.2064 259.594 15.0729C246.68 4.4911 236.81 -0.11842 227.325 0.00230842L224.837 0.0341624L227.068 0.20768ZM226.399 12.3382C225.785 12.5084 225.223 12.6521 225.15 12.6574C224.758 12.6864 222.268 14.4862 222.376 14.6619C222.448 14.7773 223.022 14.6301 223.671 14.3296C226.433 13.0513 230.257 13.0043 233.845 14.2049C238.325 15.7042 242.094 17.996 251.793 25.1199C258.65 30.1562 261.917 32.2992 265.157 33.8874C268.383 35.4685 271.265 36.4443 271.77 36.1267C272.477 35.6821 272.305 35.2163 271.201 34.5904C266.486 31.9168 262.712 29.559 256.853 25.6269C247.561 19.3911 244.62 17.5659 240.454 15.4502C234.389 12.3696 229.884 11.3722 226.399 12.3382ZM12.7373 18.0611C12.4839 18.4163 12.3125 18.7375 12.3567 18.7747C12.6086 18.9872 37.0297 25.0281 39.8792 25.5828C40.6155 25.726 41.6025 25.9421 42.0724 26.0626L42.9269 26.2815L41.6262 27.1901C37.948 29.7595 18.6816 45.3716 18.909 45.5986C18.9632 45.6529 19.1356 45.595 19.292 45.4698C24.2792 41.4813 31.6025 36.0548 37.0904 32.2816C39.1151 30.8895 41.7007 29.0641 42.8361 28.2254C43.9715 27.3866 45.0351 26.7003 45.1997 26.7003C45.7372 26.7003 57.9065 29.1431 58.0417 29.2781C58.1142 29.3505 57.8723 29.6263 57.5044 29.8911C57.1365 30.156 55.6307 31.476 54.1582 32.8245C51.9715 34.8272 46.1562 39.9158 43.0028 42.5859C42.4941 43.0165 42.3952 43.2154 42.5916 43.4145C42.7884 43.6143 43.9525 42.8882 47.5 40.3531C50.0575 38.525 53.689 35.9959 55.5698 34.733C57.4506 33.4698 59.5845 31.8865 60.3116 31.2142C61.853 29.7896 61.0896 29.784 67.5448 31.2673C72.5371 32.4142 76.9912 33.6682 78.2857 34.291C79.6378 34.9415 79.6853 35.6456 78.7293 40.8696C78.306 43.1835 77.5341 47.6516 77.014 50.7984L76.0685 56.5198L74.9301 57.3037C74.3041 57.7347 73.1743 58.6181 72.4195 59.267C69.4633 61.8076 44.8606 83.4132 41.6679 86.2723C33.9497 93.1839 30.1497 96.6603 19.2568 106.773C15.0316 110.696 10.5388 114.849 9.27266 116.001C8.00651 117.154 6.97062 118.175 6.97062 118.271C6.97062 118.917 7.97996 118.255 12.4868 114.65C33.8352 97.5783 45.7856 87.1816 65.4252 68.5952C67.9408 66.2144 71.2792 63.0076 72.8436 61.4688C74.4081 59.9299 75.6878 58.7696 75.6874 58.8903C75.6863 59.2284 74.2274 67.6496 73.5574 71.1861L72.9599 74.3398L71.2564 75.7678C69.3152 77.3952 65.8824 80.5954 61.1862 85.1562C58.1024 88.1508 54.3378 91.7004 47.4683 98.0906C45.7562 99.6832 43.4958 101.788 42.4454 102.768C40.0325 105.02 34.1616 110.37 18.6839 124.421C3.1492 138.525 3.57155 138.124 3.75026 138.588C3.82968 138.795 4.07778 138.965 4.30134 138.965C5.18351 138.965 19.1459 127.712 29.8337 118.388C42.5371 107.305 61.8597 89.2333 69.8412 80.9696C70.9818 79.7891 71.9445 78.823 71.9806 78.823C72.1859 78.823 68.8747 93.0739 68.6159 93.3042C68.5178 93.3918 67.4834 94.2932 66.3177 95.3074C65.1519 96.3218 61.9381 99.3175 59.1757 101.965C53.7435 107.17 53.2767 107.608 33.5182 126.029C18.336 140.183 15.9499 142.388 11.3212 146.536C9.4806 148.185 6.73591 150.74 5.22189 152.213L2.46939 154.891H1.2666C0.605085 154.891 0.036604 154.99 0.00336072 155.112C-0.15527 155.689 5.31314 157.517 13.9986 159.79C21.2402 161.685 31.7853 165.08 36.5645 167.057C41.1967 168.972 43.9706 169.512 44.7216 168.646C45.8474 167.346 50.9631 157.683 53.0645 152.886C53.6549 151.539 54.1654 150.397 54.1988 150.348C54.2323 150.3 54.9594 150.573 55.8146 150.955C57.6113 151.757 59.9821 152.411 62.8506 152.896C63.9599 153.083 66.7751 153.583 69.1066 154.006C74.2831 154.947 84.0591 156.339 85.4839 156.339C86.9589 156.339 88.393 155.566 88.9981 154.446C89.2629 153.955 89.8463 152.152 90.2948 150.438C90.905 148.107 91.3251 146.983 91.9634 145.974C92.4324 145.232 93.2372 143.79 93.7516 142.768L94.6869 140.911L97.5144 141.062C101.937 141.298 101.725 141.215 101.908 142.791C102.136 144.753 103.267 146.839 105.009 148.508C110.041 153.333 118.488 152.844 125.776 147.308L127.561 145.952L127.565 149.308C127.568 152.985 127.974 155.127 129.467 159.346C129.857 160.449 130.316 161.852 130.488 162.464C130.659 163.077 130.979 163.728 131.199 163.912C131.419 164.096 132.035 164.826 132.569 165.534C135.211 169.042 139.504 170.918 144.852 170.901C148.78 170.888 151.58 169.962 153.85 167.925C154.935 166.951 154.963 166.94 154.809 167.552C154.722 167.899 154.65 169.067 154.648 170.148C154.645 171.786 154.751 172.388 155.285 173.761C157.833 180.311 164.833 185.159 172.482 185.672C174.108 185.781 174.592 185.89 174.683 186.166C175.154 187.596 176.223 189.469 177.104 190.409C179.283 192.735 182.3 193.649 187.801 193.649C190.915 193.649 191.584 193.583 193.044 193.129C195.13 192.48 197.783 191.172 199.636 189.88L201.053 188.891L202.236 189.53C204.008 190.487 211.854 193.52 213.888 194.034C216.323 194.648 219.332 194.516 221.329 193.706C225.731 191.923 229.33 188.264 230.623 184.26C230.992 183.117 230.996 183.114 231.596 183.412C232.723 183.971 235.697 184.459 237.219 184.334C242.142 183.93 250.422 178.695 253.005 174.353C253.404 173.682 253.848 172.637 253.993 172.031L254.255 170.929H256.948C260.078 170.929 261.816 170.492 264.766 168.965C270.162 166.171 273.444 161.568 273.955 156.075C274.042 155.137 274.171 154.643 274.281 154.82C274.38 154.982 274.641 155.131 274.861 155.151C275.08 155.172 275.845 155.304 276.56 155.444C278.203 155.767 280.246 155.476 282.751 154.564C288.874 152.333 293.67 147.699 295.208 142.529C295.56 141.346 295.899 137.152 295.747 135.869L295.612 134.732H297.156C298.058 134.732 300.503 134.372 303.043 133.864C305.433 133.387 307.739 132.936 308.168 132.862L308.949 132.729L308.959 136.682C308.967 140.151 309.04 140.935 309.552 143.085C310.297 146.214 311.249 148.8 312.586 151.321C313.761 153.538 314.52 154.209 315.302 153.721C315.547 153.568 316.304 153.443 316.984 153.443C317.664 153.443 319.748 153.146 321.616 152.782C330.25 151.101 337.403 150.048 337.389 150.46C337.385 150.569 337.286 151.393 337.169 152.29C336.716 155.779 337.751 161.124 339.622 164.947C341.451 168.686 343.474 170.479 346.878 171.38C349.903 172.181 356.807 171.634 365.396 169.914C375.901 167.81 402.401 160.573 401.995 159.919C401.858 159.696 397.562 160.346 391.901 161.446C389.471 161.918 387.45 162.274 387.41 162.236C387.369 162.199 387.833 161.433 388.441 160.534C393.056 153.711 397.124 145.954 396.444 145.275C396.205 145.037 396.072 145.227 393.096 150.04C390.172 154.771 384.267 162.919 383.622 163.113C382.999 163.3 373.228 165.249 372.913 165.249C372.752 165.249 373.064 164.672 373.607 163.968C375.691 161.259 381.654 150.235 383.705 145.297C385.168 141.776 385.401 140.97 385.002 140.817C384.489 140.62 384.104 141.125 381.237 145.758C376.847 152.852 375.295 155.228 373.307 157.898C370.86 161.184 369.824 162.875 369.193 164.613L368.687 166.011L363.583 166.848C360.776 167.308 358.402 167.662 358.307 167.634C358.212 167.607 358.874 166.583 359.779 165.358C365.374 157.791 371.922 146.722 377.765 134.955C381.579 127.273 384.986 119.455 388.879 109.451C390.869 104.337 390.856 104.378 390.393 104.474C390.154 104.524 389.452 105.881 388.395 108.337C384.954 116.335 381.391 123.495 376.259 132.728C371.382 141.501 368.824 145.627 359.896 159.123C357.14 163.289 354.69 167.034 354.451 167.446L354.017 168.195L351.451 168.071C350.04 168.003 348.459 167.829 347.937 167.685L346.988 167.422L348.003 166.53C349.171 165.503 349.939 164.119 350.341 162.314C350.588 161.206 350.819 160.849 352.213 159.418C354.128 157.454 356.226 154.402 359.152 149.322C360.352 147.24 362.56 143.481 364.059 140.969C370.023 130.977 375.817 120.383 381.239 109.562C385.66 100.738 391.834 87.8064 391.834 87.3711C391.834 86.7074 391.374 87.1292 390.652 88.4568C390.235 89.2226 388.759 92.0041 387.373 94.638C379.013 110.526 363.661 136.802 356.12 148.13C354.409 150.7 352.599 153.549 352.098 154.46C351.597 155.371 351.168 156.116 351.144 156.116C351.12 156.116 351.141 152.934 351.191 149.044L351.282 141.972L351.89 141.192C353.175 139.543 355.259 136.238 357.579 132.171C358.907 129.843 362.351 123.979 365.234 119.14C368.116 114.301 371.101 109.289 371.866 108.003C373.628 105.041 377.625 98.1307 384.302 86.5078C387.187 81.4848 390.363 75.993 391.36 74.3035C392.357 72.6142 393.173 71.1416 393.173 71.0311C393.173 70.2314 392.489 71.0146 390.707 73.8531C389.577 75.6547 386.691 80.1911 384.295 83.9342C373.798 100.333 371.365 104.178 365.963 112.903C362.815 117.987 360 122.548 359.707 123.038C359.413 123.528 357.654 126.285 355.797 129.164C353.939 132.043 352.127 134.899 351.768 135.512L351.117 136.626L350.959 133.841C350.872 132.31 350.696 129.579 350.568 127.771L350.336 124.486L351.873 122.537C355.151 118.378 368.122 98.5385 375.208 86.8419C381.486 76.4804 392.28 56.9067 392.28 55.8841C392.28 55.7594 392.105 55.6603 391.89 55.6636C391.661 55.6674 391.212 56.1496 390.803 56.833C379.091 76.3913 362.054 102.76 354.36 113.237C352.561 115.688 350.83 118.076 350.512 118.545L349.936 119.398L349.805 118.322C349.733 117.731 349.41 114.941 349.089 112.124L348.505 107L352.002 102.107C358.009 93.7038 365.747 81.9829 373.477 69.579C380.15 58.8725 389.148 43.9919 389.023 43.8707C388.836 43.6901 388.685 43.911 384.612 50.3114C380.349 57.0123 375.447 64.4053 370.361 71.8065C363.254 82.1475 348.301 103.437 348.092 103.511C347.976 103.552 347.882 103.368 347.882 103.102C347.882 102.837 347.419 99.6227 346.853 95.9598L345.825 89.3001L346.864 88.1459C348.153 86.7147 349.239 85.1987 355.291 76.3728C362.104 66.4383 364.907 62.1123 378.282 40.8901C379.639 38.7366 380.015 37.9771 379.821 37.7828C379.488 37.4509 379.707 37.1689 376.065 42.6267C371.37 49.6646 359.639 66.0358 352.927 74.9174C351.318 77.0468 348.947 80.1936 347.658 81.9103C346.37 83.627 345.262 85.0379 345.195 85.0457C345.129 85.0535 344.686 82.93 344.211 80.3266C343.737 77.7233 343.31 75.4428 343.264 75.2591C343.217 75.0753 343.873 73.9852 344.722 72.8367C345.57 71.6882 347.353 68.9317 348.685 66.7112C350.016 64.4906 353.054 59.5164 355.437 55.6574C357.819 51.7983 360.218 47.9084 360.766 47.0132C361.736 45.4295 361.895 44.6608 361.07 45.5349C360.684 45.944 354.368 54.6278 352.006 57.9962C351.404 58.8538 349.826 61.0336 348.497 62.84C347.169 64.6465 345.288 67.3364 344.318 68.8172L342.554 71.5098L342.341 70.6558C342.223 70.186 341.676 67.7162 341.126 65.1669L340.125 60.5322L343.246 55.2546C346.85 49.1612 347.212 48.4871 347.212 47.8701C347.212 47.3159 347.047 47.3046 346.3 47.8071C345.371 48.4315 344.466 49.5877 342.591 52.5463C340.217 56.2908 339.435 57.344 339.307 56.9662C339.251 56.7976 338.692 54.655 338.066 52.2048C336.439 45.8347 334.475 38.889 334.206 38.5502C334.079 38.3909 333.716 38.2907 333.399 38.3274C332.914 38.3838 332.811 38.5212 332.755 39.1899C332.637 40.5859 334.232 49.4536 338.073 68.7549C339.542 76.1423 341.191 84.6623 341.735 87.6883C345.264 107.288 347.019 123.496 347.57 141.553L347.713 146.258L344.172 146.236C342.224 146.223 339.399 146.352 337.894 146.521C336.388 146.689 335.113 146.783 335.059 146.729C335.005 146.675 335.067 145.633 335.198 144.413C335.663 140.063 335.123 129.85 334.032 122.37C333.465 118.487 332.514 113.529 332.254 113.111C331.725 112.256 331.673 113.497 332.053 117.906C332.728 125.758 333.001 133.101 332.884 140.251C332.822 143.961 332.73 147.038 332.678 147.09C332.543 147.224 327.559 147.707 327.448 147.596C327.398 147.546 327.481 146.911 327.633 146.186C327.988 144.493 327.968 133.943 327.602 129.943C327.126 124.752 325.679 116.263 325.184 115.77C325.088 115.674 324.871 115.68 324.702 115.784C324.442 115.945 324.452 116.487 324.768 119.301C325.692 127.524 325.804 134.348 325.122 140.857C324.878 143.184 324.678 145.709 324.678 146.467V147.847L323.618 147.987C323.036 148.063 322.273 148.18 321.923 148.246C321.334 148.356 321.301 148.326 321.477 147.841C321.944 146.55 321.469 129.242 320.763 121.818C320.297 116.924 320.192 116.244 319.899 116.244C319.704 116.244 319.64 119.599 319.644 129.665C319.649 142.985 319.585 144.443 318.846 147.916C318.65 148.836 318.54 148.978 317.923 149.113C317.537 149.198 316.81 149.443 316.306 149.659L315.39 150.051L314.122 145.788C313.424 143.444 312.711 140.774 312.537 139.856C311.828 136.109 311.191 132.604 311.186 132.412C311.18 132.199 314.375 131.054 314.534 131.213C314.584 131.262 314.98 133.704 315.414 136.637C316.793 145.956 316.876 146.288 317.675 145.627C318.373 145.048 317.834 130.175 316.753 120.228C314.9 103.168 311.138 82.4611 306.581 64.2331C304.483 55.8431 301.913 46.4621 301.562 45.9122C300.914 44.8978 299.074 45.6863 299.302 46.8807C299.391 47.3407 299.319 47.4157 298.792 47.4157C298.272 47.4157 298.162 47.3061 298.068 46.6918C297.829 45.1281 298.474 44.9399 304.822 44.7216C311.161 44.5033 312.376 44.3218 327.913 41.2733C330.476 40.7705 331.873 40.0887 332.336 39.1153C332.542 38.6818 332.71 38.2368 332.71 38.1261C332.71 38.0156 333.046 37.5999 333.457 37.2028C334.539 36.1557 336.896 35.4201 340.839 34.8996C346.197 34.1921 353.854 32.6171 362.272 30.491C371.979 28.0394 387.414 23.8375 387.688 23.5718C388.23 23.047 386.747 23.1631 382.185 24.0026C376.126 25.1177 360.316 27.6752 344.2 30.1477C335.031 31.5544 332.416 32.3483 330.613 34.273C329.563 35.3936 329.144 36.4568 329.142 38.0047L329.14 38.9514L328.081 38.9583C327.498 38.9623 325.967 39.1552 324.678 39.3875C323.39 39.6196 320.679 40.1083 318.654 40.4738C312.15 41.6475 309.5 41.8818 303.594 41.8052C298.342 41.737 298.219 41.7457 297.165 42.2638C295.365 43.1486 294.448 45.0733 295.092 46.6129C295.405 47.3605 295.401 47.4157 295.029 47.4157C294.118 47.4157 287.456 48.1187 283.436 48.6388C277.214 49.4443 273.692 49.371 270.574 48.3718C269.961 48.1751 268.404 47.3627 267.116 46.5662C263.29 44.2013 257.472 40.7592 252.949 38.1838C250.617 36.8566 247.153 34.8631 245.251 33.7538C240.465 30.9621 235.899 28.6905 233.65 27.9813C230.431 26.9667 229.372 26.8765 223.61 27.1253C217.864 27.3736 216.696 27.569 211.297 29.1864L208.155 30.1277L207.463 29.2659C206.5 28.0679 204.452 26.8052 202.32 26.0955C200.667 25.5451 200.223 25.495 196.948 25.491C193.803 25.487 193.094 25.5578 190.994 26.0855C187.576 26.9446 183.714 28.2292 177.091 30.7099C173.901 31.905 169.283 33.5584 166.828 34.3842C159.38 36.8905 154.548 38.8701 143.29 44.0269C138.212 46.3534 135.258 47.4923 132.47 48.1989C126.768 49.6436 121.769 49.4683 115.447 47.6024C114.133 47.2146 113.85 47.0538 113.975 46.7678C114.061 46.5729 114.175 46.102 114.229 45.7213C114.315 45.1214 114.198 44.9243 113.359 44.244C111.143 42.4482 108.306 41.5178 102.015 40.5231C99.745 40.164 96.1307 39.5701 93.9832 39.2033C89.0175 38.3548 86.3176 38.0604 83.5058 38.0604H81.266V37.4193C81.266 37.0669 81.4112 36.658 81.5888 36.5109C81.7664 36.3637 82.0781 35.8084 82.2816 35.2767C83.2849 32.6539 80.882 30.8959 74.0772 29.275C69.5206 28.1898 57.8311 25.5948 50.9231 24.1349C34.1567 20.5921 25.5052 18.9993 17.2796 17.9405L13.1978 17.4153L12.7373 18.0611ZM222.717 28.0368C222.717 28.1684 223.523 28.2595 224.69 28.2595C228.65 28.2595 230.275 28.9277 242.128 35.4306C253.232 41.5225 256.464 43.2283 263.508 46.7132C271.047 50.4433 276.692 53.0766 276.837 52.9312C276.897 52.8717 276.466 52.5073 275.88 52.1217L274.813 51.4205L276.152 51.59C281.034 52.2077 290.476 51.3149 297.084 49.6109C298.534 49.2371 299.751 48.966 299.789 49.0086C300.036 49.2868 303.421 64.0177 305.025 71.792L306.079 76.9007L304.801 79.8365C299.822 91.2734 293.615 103.016 287.05 113.42C285.673 115.603 284.504 117.507 284.453 117.652C284.335 117.987 283.766 117.489 282.015 115.519L280.677 114.013L281.562 112.512C284.642 107.291 289.695 97.1321 292.665 90.1933C294.782 85.2475 299.69 71.9956 299.69 71.2271C299.69 70.66 299.301 71.1632 298.941 72.1963C296.007 80.6092 288.17 97.7311 283.552 105.819C281.935 108.65 279.679 112.463 279.537 112.605C279.485 112.656 278.775 111.953 277.958 111.042L276.473 109.385L277.598 107.636C278.525 106.194 280.522 101.674 281.028 99.8726C281.14 99.4743 280.399 98.2133 280.192 98.4488C280.149 98.4969 279.788 99.4382 279.389 100.541C278.426 103.199 276.647 106.652 275.844 107.42L275.199 108.037L273.652 106.182C271.642 103.773 270.407 102.127 268.708 99.5926L267.326 97.5306L268.18 96.643C270.035 94.7155 274.944 85.4987 276.919 80.2332C278.434 76.1968 279.835 70.9529 279.231 71.5837C279.113 71.7063 278.538 73.1597 277.952 74.8136C275.436 81.915 272.068 88.7148 268.976 92.9378C268.181 94.0241 267.368 95.2521 267.17 95.6665C266.972 96.081 266.753 96.4171 266.684 96.4138C266.615 96.4102 266.212 95.8362 265.788 95.1381C265.365 94.4402 264.392 93.0398 263.626 92.0266C262.861 91.0133 262.176 90.0902 262.105 89.9755C262.034 89.8608 262.534 88.9493 263.215 87.9501C266.152 83.6437 269.06 76.6726 270.806 69.7503C271.63 66.4864 271.687 66.1264 271.385 66.1264C271.279 66.1264 271.016 66.8533 270.799 67.7414C270.272 69.9087 268.934 73.7455 267.668 76.7209C265.993 80.6582 263.96 84.2754 261.054 88.4866C260.973 88.6056 259.983 87.7948 258.855 86.6851L256.805 84.6674L258.279 82.1889C261.67 76.4853 264.841 69.2977 266.016 64.6539C266.688 61.9961 266.814 61.0033 266.477 61.0033C266.371 61.0033 265.755 62.5318 265.108 64.4002C262.49 71.9635 260.389 76.4577 257.22 81.2692L255.606 83.7183L253.509 82.178C252.356 81.3309 250.366 80.008 249.088 79.2384L246.765 77.8391L247.456 77.2221C248.06 76.6838 248.226 76.6354 248.763 76.8423C250.612 77.5549 252.231 78.1548 252.306 78.1548C252.353 78.1548 252.391 78.0617 252.391 77.9476C252.391 77.8338 251.638 77.3255 250.717 76.8183C249.797 76.3111 249.044 75.8204 249.044 75.7277C249.044 75.6353 249.294 75.3252 249.599 75.039C251.146 73.5885 253.9 68.827 255.593 64.6786C256.787 61.7517 258.415 57.0861 258.415 56.5904C258.415 55.8997 258.003 56.6744 256.956 59.3327C254.736 64.9742 251.517 70.5609 248.708 73.6477L247.439 75.0434L245.731 74.1135C244.792 73.6021 243.987 73.1534 243.941 73.1167C243.894 73.0799 244.59 71.9181 245.486 70.5348C247.496 67.432 249.574 63.3051 250.9 59.7782C252.11 56.5608 252.366 55.4346 251.885 55.4346C251.68 55.4346 251.36 55.9674 251.049 56.8268C250.254 59.0248 247.206 65.1515 245.813 67.3516C244.229 69.8528 242.533 72.1186 242.239 72.1255C242.117 72.1284 241.137 71.6499 240.062 71.0623L238.107 69.994L238.954 68.7843C242.296 64.0088 244.948 58.0323 246.162 52.5389C246.284 51.9876 246.436 51.361 246.502 51.1467C246.574 50.9073 246.502 50.7569 246.314 50.7569C246.118 50.7569 245.87 51.3251 245.631 52.321C244.483 57.0976 240.572 64.8492 237.377 68.6825L236.824 69.3451L235.669 68.8045C235.033 68.5074 234.464 68.1849 234.404 68.0882C234.344 67.9913 234.585 67.4854 234.94 66.9635C235.801 65.6965 237.437 62.7552 238.331 60.8652C239.263 58.8977 240.747 54.4701 240.935 53.0967C241.188 51.2581 240.534 52.0081 239.659 54.5617C238.595 57.6652 237.629 59.8154 236.213 62.2284C235.292 63.799 233.457 66.5116 232.834 67.2257C232.787 67.2789 232.051 66.9851 231.198 66.5731L229.647 65.824L230.074 65.1334C231.181 63.3452 236.327 50.6119 236.327 49.661C236.327 49.5287 236.191 49.4204 236.025 49.4204C235.853 49.4204 235.213 50.5908 234.532 52.1491C231.144 59.9098 228.558 65.0127 228.015 65.0127C227.918 65.0127 227.084 64.6962 226.161 64.3095L224.483 63.6063L225.131 62.9173C226.963 60.9705 229.538 56.0801 230.303 53.0964C230.764 51.2949 230.894 49.4204 230.557 49.4204C230.451 49.4204 229.947 50.6983 229.436 52.2605C228.926 53.8226 228.103 55.918 227.608 56.9172C226.653 58.8429 223.373 63.008 222.811 63.008C222.614 63.008 222.896 62.5104 223.535 61.7272C224.888 60.0718 226.153 58.1149 226.955 56.437C227.622 55.0432 228.741 51.8143 228.741 51.2853C228.741 50.6489 228.282 51.0207 227.733 52.1008C226.867 53.8074 225.71 55.5384 224.606 56.7796C224.058 57.3957 223.61 57.8507 223.61 57.7906C223.61 57.7307 223.924 57.1511 224.307 56.5025C225.356 54.7289 226.631 51.7203 227.372 49.2694C228.197 46.5386 228.349 45.8565 228.132 45.8569C228.038 45.8572 227.616 46.8344 227.195 48.0287C225.563 52.6585 223.132 56.5833 220.728 58.4675C220.043 59.0044 219.405 59.4438 219.31 59.4438C219.215 59.4441 219.55 58.923 220.054 58.2862C221.005 57.0852 222.085 55.1143 222.647 53.5531C223.088 52.3297 223.598 49.6432 223.389 49.6432C223.297 49.6432 222.947 50.4199 222.612 51.3695C221.498 54.5227 219.697 56.972 217.052 58.9279C216.329 59.4628 215.695 59.8586 215.644 59.8076C215.593 59.7563 215.706 59.1776 215.896 58.5212C216.38 56.8426 217.112 51.6484 217.281 48.6858C217.43 46.0828 217.223 42.2926 216.931 42.2926C216.838 42.2926 216.697 43.6206 216.617 45.2439C216.415 49.3746 215.751 53.4611 214.695 57.0763C214.199 58.7754 213.793 60.2963 213.793 60.4558C213.793 60.8427 212.385 61.29 211.617 61.1472C211.28 61.0846 210.627 60.9719 210.167 60.8968L209.33 60.7603L209.666 60.111C210.559 58.3865 211.34 52.4055 211.324 47.4157C211.312 43.9571 211.148 42.489 210.76 42.3598C210.594 42.3046 210.469 43.5753 210.365 46.3508C210.193 50.9837 210.003 52.5353 209.184 55.9915C208.865 57.3391 208.495 58.9678 208.362 59.6111L208.119 60.7805H206.135C204.335 60.7805 204.166 60.7444 204.309 60.3907C205.316 57.8922 205.671 43.7818 204.734 43.4722C204.562 43.4154 204.447 44.857 204.353 48.2432C204.206 53.5651 203.735 58.3085 203.237 59.4748C202.75 60.6168 202.009 61.136 200.44 61.4336C199.662 61.5815 198.981 61.6597 198.929 61.6074C198.876 61.555 198.994 60.9215 199.19 60.1996C199.755 58.1225 199.883 51.6963 199.421 48.5758C199.001 45.7318 198.717 44.7813 198.385 45.1121C198.241 45.256 198.243 45.8625 198.389 46.8747C198.671 48.8224 198.674 53.9104 198.395 56.1028C198.278 57.0217 197.958 58.7941 197.684 60.0417L197.187 62.3099L196.323 62.6487L195.459 62.9875L195.646 61.8283C195.749 61.1908 195.83 59.2157 195.826 57.4393C195.821 54.7535 195.715 53.7219 195.194 51.3138C194.85 49.7212 194.527 48.3764 194.475 48.3252C194.17 48.02 194.178 48.8286 194.51 51.6775C195.082 56.5942 194.786 60.5921 193.651 63.2686C193.298 64.1019 192.919 64.4026 191.928 64.6381C191.376 64.7693 191.369 64.7525 191.323 63.2203C191.297 62.3676 191.15 61.2443 190.996 60.7239C190.718 59.7853 190.715 59.796 190.569 62.117C190.417 64.5233 190.042 65.9162 189.071 67.6857C188.768 68.237 188.484 68.7299 188.439 68.7809C188.395 68.8322 188.421 67.8298 188.497 66.5535C188.574 65.2773 188.525 63.0303 188.387 61.5601C188.061 58.059 186.857 53.0724 186.439 53.4896C186.385 53.5435 186.566 54.8802 186.84 56.4601C187.253 58.8449 187.339 60.184 187.344 64.3445C187.349 69.097 187.323 69.414 186.84 70.47C186.395 71.4425 184.052 74.1453 183.654 74.1453C183.575 74.1453 183.661 73.519 183.846 72.7532C184.294 70.9026 184.337 65.0455 183.921 62.7296C183.75 61.78 183.549 61.0033 183.474 61.0033C183.4 61.0033 183.33 62.8826 183.32 65.1798C183.303 68.9353 183.235 69.6594 182.644 72.3634C182.282 74.0173 181.909 75.4932 181.816 75.6433C181.586 76.0126 178.983 78.0015 178.873 77.8917C178.825 77.8438 178.944 77.2642 179.138 76.604C179.422 75.6371 179.466 74.7285 179.361 71.9343C179.29 70.0263 179.165 68.1898 179.084 67.8527C178.754 66.488 178.541 67.4003 178.538 70.1916C178.533 73.6081 178.229 75.2874 177.135 77.932C176.407 79.6922 176.268 79.8762 175.16 80.5484C174.504 80.946 173.904 81.2719 173.826 81.2723C173.749 81.2728 173.943 80.6469 174.258 79.8811C174.877 78.3791 175.172 75.1415 174.872 73.1463C174.631 71.5405 174.303 71.982 174.303 73.9117C174.303 76.2926 173.985 77.6498 172.845 80.1386C172.046 81.8827 171.766 82.2838 171.172 82.5331C170.779 82.6977 170.391 82.8325 170.309 82.8325C170.227 82.8325 170.254 82.1557 170.368 81.3289C170.584 79.7661 170.396 77.2638 170.063 77.2638C169.958 77.2638 169.655 77.9476 169.391 78.7836C169.127 79.6193 168.529 81.0478 168.063 81.9577L167.215 83.6121L166.09 83.6789L164.965 83.7455L165.09 82.0954C165.257 79.8855 164.919 79.7133 164.044 81.5621C163.674 82.3451 163.171 83.1661 162.926 83.3871C162.505 83.7678 162.404 83.7695 160.974 83.425C159.177 82.9915 155.227 81.0957 154.278 80.2114C153.466 79.454 153.005 77.6144 153.306 76.334C153.48 75.597 154.323 74.1453 154.578 74.1453C154.634 74.1453 155.405 74.7006 156.292 75.3796C157.178 76.0583 158.506 76.9 159.243 77.2502C160.712 77.9487 162.357 78.3078 162.563 77.975C162.705 77.7458 161.605 76.9553 160.023 76.1498C159.476 75.8712 158.4 75.0403 157.631 74.3033L156.233 72.9632L158.078 71.0485C159.796 69.2649 162.941 65.3582 165.491 61.8386C166.09 61.0117 166.639 60.335 166.712 60.335C167.048 60.335 168.964 62.5387 169.272 63.2793C170.036 65.1134 169.661 66.3521 166.462 72.5625C164.258 76.8397 163.801 78.2503 165.157 76.5942C166.041 75.5135 169.939 69.1369 170.529 67.8055C171.193 66.3071 171.336 64.2371 170.871 62.8737L170.506 61.8029L171.243 62.5168C171.649 62.9095 172.102 63.2307 172.25 63.2307C173.099 63.2307 171.773 60.1428 170.2 58.4562L169.229 57.4153L170.729 54.1418C172.823 49.5701 173.429 48.4272 174.733 46.5818C176.95 43.4455 179.616 41.9651 186.824 39.8657C189.355 39.1287 194.124 37.5783 197.422 36.4203C200.72 35.2622 204.523 33.9344 205.873 33.4696C207.222 33.0047 208.829 32.4064 209.442 32.1398C211.402 31.2882 218.184 28.944 220.319 28.38C222.724 27.7452 222.717 27.7461 222.717 28.0368ZM201.254 28.7268C202.871 29.1521 205.382 30.2785 205.639 30.6935C205.713 30.8126 205.094 31.1084 204.261 31.3517C200.269 32.518 197.455 33.2947 190.093 35.2624C185.709 36.4341 181.341 37.7004 180.387 38.0766C174.367 40.4515 171.115 44.5329 167.62 54.0981C167.15 55.3849 166.276 56.7918 163.813 60.2237C159.68 65.9826 157.395 68.7555 154.801 71.1599C152.055 73.7052 151.662 74.395 151.639 76.7123C151.623 78.3479 151.562 78.5813 150.921 79.4641C148.759 82.4451 146.583 87.7329 147.52 87.7329C147.638 87.7329 148.29 86.6555 148.97 85.3384C149.649 84.0213 150.674 82.3175 151.247 81.5519L152.289 80.1602L152.91 81.246L153.531 82.3322L152.772 83.7589C152.009 85.1931 149.091 92.4139 149.091 92.8672C149.091 93.0006 149.315 93.0777 149.589 93.0387C149.956 92.9864 150.545 92.2304 151.818 90.1831C152.77 88.6517 153.916 86.6971 154.364 85.8395C154.813 84.982 155.208 84.2469 155.241 84.2061C155.274 84.1654 155.835 84.491 156.488 84.9301C157.141 85.3691 157.796 85.7282 157.944 85.7282C158.091 85.7282 158.267 85.8157 158.333 85.9228C158.399 86.03 157.493 88.3102 156.318 90.9903C155.144 93.6704 154.127 96.1017 154.06 96.3935C153.87 97.2079 154.42 96.8853 154.979 95.854C155.241 95.3689 156.048 93.8696 156.77 92.5219C157.493 91.1743 158.53 89.2934 159.075 88.3421L160.067 86.6122L161.886 86.7577C162.886 86.8377 163.745 86.9375 163.793 86.9793C163.842 87.0214 163.015 89.1876 161.956 91.7935C159 99.0665 158.733 99.9839 159.57 99.9839C160.116 99.9839 160.945 98.5321 164.301 91.7007L166.783 86.6472L167.689 86.4942C168.188 86.4102 169.188 86.1474 169.912 85.9101C170.635 85.6731 171.262 85.5143 171.306 85.5575C171.48 85.7319 171.109 86.6191 170.861 86.6191C170.715 86.6191 170.4 86.7695 170.162 86.9533C169.75 87.2709 169.748 87.3025 170.123 87.5928C170.492 87.879 170.416 88.163 168.922 92.1034C168.045 94.4164 167.089 96.8472 166.799 97.5057C166.254 98.7399 166.124 99.5385 166.467 99.5385C166.574 99.5385 166.764 99.4133 166.889 99.26C167.307 98.7459 171.359 90.7587 172.078 89.029C172.775 87.3535 172.809 87.315 173.714 87.1633C174.222 87.078 175.378 86.7668 176.284 86.4721C177.19 86.1772 177.975 85.9792 178.028 86.0322C178.081 86.085 177.315 88.1748 176.325 90.6763C174.512 95.2579 174.357 95.7518 174.73 95.7518C175.065 95.7518 177.499 91.4781 179.227 87.8563C180.838 84.4777 180.845 84.4672 182.202 83.5998C182.95 83.1216 184.44 81.8593 185.514 80.7948C186.695 79.6238 187.464 79.0059 187.461 79.2309C187.451 80.0512 186.578 83.4982 186.058 84.7777C185.753 85.5263 185.192 86.5906 184.811 87.143C184.041 88.2615 183.995 88.4011 184.4 88.4011C184.796 88.4011 186.418 85.9284 187.323 83.9462C187.743 83.0274 188.661 80.4713 189.363 78.2661C190.065 76.061 191.274 72.9035 192.049 71.2496C192.824 69.5957 193.577 67.8318 193.722 67.33L193.986 66.4171L198.256 65.3776C204.248 63.9184 205.693 63.6762 208.407 63.6762C211.364 63.6762 213.124 64.1269 216.805 65.8269C220.611 67.5846 224.746 69.9417 224.95 70.47C225.075 70.7946 226.899 71.6668 231.672 73.6847C235.275 75.2078 240.181 77.4315 242.574 78.6261C247.177 80.924 252.406 84.1839 253.93 85.7061C254.433 86.2082 254.956 86.6191 255.092 86.6191C255.571 86.6191 259.926 91.2175 261.557 93.4466C262.467 94.6902 264.061 97.0457 265.099 98.6811C269.826 106.13 273.277 110.438 284.434 122.815C287.527 126.246 290.455 129.554 290.942 130.166C292.872 132.592 294.335 135.743 294.335 137.475C294.335 139.529 293.171 142.648 291.475 145.143C290.371 146.765 287.455 149.517 285.779 150.517C283.141 152.092 279.041 153.049 275.913 152.82C275.022 152.754 274.998 152.731 274.713 151.622C274.553 150.999 274.096 149.843 273.698 149.052C273.02 147.707 273.003 147.623 273.447 147.756C278.859 149.366 284.178 147.884 287.607 143.808C288.707 142.501 289.928 140.209 290.311 138.735C290.453 138.187 290.62 137.564 290.682 137.35C290.745 137.135 290.69 136.96 290.562 136.96C290.433 136.96 290.261 137.235 290.18 137.572C289.638 139.819 287.059 143.274 285.044 144.452C282.945 145.68 280.247 146.135 277.715 145.686L276.824 145.529L278.129 144.793C279.492 144.025 282.064 141.7 282.064 141.237C282.064 140.781 281.644 140.936 280.437 141.835C277.966 143.677 276.013 144.311 272.807 144.311C270.562 144.311 270.541 144.306 269.891 143.613C269.426 143.118 269.322 142.885 269.533 142.809C270.347 142.517 273.182 140.399 274.36 139.203C275.523 138.022 275.65 137.812 275.364 137.534C275.079 137.258 274.786 137.381 273.115 138.48C272.059 139.176 270.585 140.035 269.841 140.39C268.538 141.011 268.46 141.022 267.746 140.683C267.02 140.338 265.379 138.822 265.569 138.673C265.623 138.631 266.218 138.267 266.893 137.863C268.799 136.723 271.166 134.739 271.089 134.347C270.918 133.479 270.346 133.538 268.785 134.584C267.942 135.148 266.518 135.877 265.619 136.205C264.042 136.779 263.97 136.786 263.542 136.4C263.299 136.18 263.1 135.933 263.1 135.852C263.1 135.77 263.942 135.132 264.972 134.434C267.075 133.008 268.743 131.338 268.634 130.768C268.485 129.989 267.64 130.24 265.828 131.602C264.843 132.344 263.502 133.198 262.848 133.5L261.659 134.05L261.041 133.459C260.701 133.133 260.423 132.742 260.423 132.588C260.423 132.435 261.452 131.389 262.71 130.264C263.967 129.139 265.027 128.09 265.065 127.933C265.233 127.225 264.536 127.521 261.895 129.282C260.339 130.319 258.971 131.168 258.856 131.168C258.741 131.168 258.585 130.893 258.509 130.556C258.433 130.219 258.281 129.593 258.171 129.164C258.061 128.735 257.971 128.267 257.97 128.124C257.969 127.981 258.879 126.692 259.991 125.259C261.797 122.934 262.238 122.036 261.576 122.036C261.466 122.036 260.451 122.959 259.321 124.087L257.267 126.138L255.308 122.138C254.231 119.938 252.889 117.519 252.326 116.763C251.434 115.566 249.19 113.571 248.735 113.571C248.648 113.571 249.09 114.198 249.716 114.964C250.342 115.729 251.246 117.158 251.725 118.138C252.496 119.717 253.84 123.872 254.283 126.045L254.442 126.825L252.909 125.321C252.066 124.495 251.303 123.818 251.214 123.818C250.514 123.818 252.207 128.018 254.045 130.839C255.777 133.498 258.81 136.485 261.807 138.483C266.603 141.68 269.993 145.428 272.365 150.154L273.564 152.545L273.219 153.718C272.022 157.789 270.167 160.882 267.321 163.555C263.654 166.998 259.581 168.664 255.459 168.406C254.753 168.362 254.176 168.235 254.176 168.124C254.176 168.013 254.316 167.922 254.488 167.922C254.659 167.922 255.736 167.454 256.88 166.882C258.572 166.037 259.318 165.485 260.876 163.931C262.752 162.059 264.304 159.694 263.913 159.303C263.814 159.204 263.073 159.856 262.267 160.751C259.895 163.386 257.191 165.079 254.399 165.676C253.204 165.932 253.159 165.923 252.667 165.355L252.161 164.771L253.559 164.078C256.07 162.834 259.63 158.628 258.773 157.917C258.525 157.712 258.267 157.881 257.49 158.757C255.622 160.866 253.396 162.075 250.717 162.434C249.976 162.533 249.713 162.456 249.159 161.973L248.493 161.394L249.142 160.927C253.328 157.913 256.304 155.129 256.049 154.466C255.823 153.877 255.411 154.047 253.39 155.569C251.836 156.74 246.876 159.457 246.294 159.457C246.065 159.457 244.582 158.087 244.582 157.875C244.582 157.765 244.69 157.675 244.822 157.675C244.954 157.675 245.78 157.211 246.658 156.644C248.497 155.457 250.611 153.393 251.035 152.372C251.329 151.662 251.242 150.993 250.856 150.993C250.74 150.993 249.758 151.693 248.673 152.548C246.712 154.095 243.138 156.116 242.365 156.116C242.142 156.116 241.832 155.962 241.675 155.774C241.433 155.484 241.642 155.202 243.083 153.877C245.4 151.745 246.244 150.297 245.365 149.961C245.155 149.88 244.452 150.37 243.46 151.288C242.594 152.087 241.552 152.939 241.144 153.179L240.402 153.616L240 152.806C239.779 152.36 239.178 150.898 238.665 149.556C238.152 148.214 237.625 147.081 237.495 147.038C237.215 146.945 238.15 151.453 238.714 152.922C238.828 153.218 238.782 153.224 238.373 152.97C238.008 152.742 237.839 152.735 237.635 152.939C237.432 153.142 237.503 153.401 237.944 154.067C238.26 154.543 238.552 155.173 238.594 155.468C238.635 155.763 238.87 156.095 239.116 156.206C239.361 156.316 240.215 157.31 241.012 158.414C241.81 159.518 244.222 162.234 246.373 164.45C248.524 166.666 250.478 168.88 250.716 169.37C251.369 170.715 251.29 172.667 250.518 174.242C249.35 176.626 246.935 178.785 243.534 180.487C241.387 181.562 239.56 181.985 237.403 181.908L235.6 181.843L238.083 180.01C240.21 178.439 240.95 177.723 240.446 177.723C240.38 177.723 238.915 178.427 237.19 179.289C234.149 180.807 234.029 180.846 233.238 180.579C232.79 180.427 232.251 180.162 232.042 179.99C231.694 179.703 231.76 179.586 232.833 178.607C234.229 177.334 234.992 176.078 234.604 175.691C234.409 175.496 234.085 175.665 233.273 176.385C232.055 177.465 230.705 178.156 229.797 178.163C229.457 178.166 228.757 177.903 228.243 177.578L227.306 176.988L228.08 176.409C229.813 175.11 231.216 173.631 231.15 173.173C231.042 172.422 230.49 172.534 229.076 173.594C227.267 174.95 225.149 175.791 224.021 175.601C223.551 175.521 223.123 175.387 223.07 175.302C223.018 175.217 223.593 174.85 224.348 174.486C226.111 173.636 227.915 171.951 227.812 171.248C227.771 170.969 227.629 170.705 227.496 170.662C227.363 170.618 226.575 171.076 225.746 171.681C224.667 172.466 223.814 172.884 222.752 173.148C221.003 173.584 220.263 174.012 220.263 174.585C220.263 174.973 220.102 174.993 217.942 174.883L215.621 174.765L213.424 176.417C210.615 178.53 207.445 180.149 204.192 181.131C202.777 181.558 201.234 182.069 200.762 182.266C200.291 182.462 199.868 182.623 199.821 182.623C199.775 182.623 199.737 181.946 199.737 181.119L199.738 179.616L200.797 178.952C202.113 178.127 205.454 174.941 206.875 173.156C207.929 171.833 209.552 169.302 209.553 168.98C209.555 168.56 208.672 168.875 208.312 169.423C207.357 170.878 203.541 174.497 201.647 175.745C200.55 176.468 199.584 176.983 199.502 176.889C199.419 176.796 199.233 176.232 199.088 175.635C198.943 175.038 198.578 174.064 198.277 173.471C197.976 172.877 197.729 172.343 197.729 172.283C197.729 172.224 198.061 172.018 198.466 171.826C200.258 170.977 204.869 166.762 204.869 165.972C204.869 165.846 205.618 166.033 206.535 166.388C209.106 167.384 210.89 167.723 213.191 167.651C214.899 167.598 215.25 167.526 215.31 167.213C215.366 166.919 215.154 166.811 214.308 166.706C209.899 166.159 206.99 165.324 203.641 163.643C199.872 161.751 198.625 161.306 196.59 161.126C193.7 160.871 193.691 160.862 194.916 159.484C195.92 158.356 196.05 157.898 195.368 157.898C195.189 157.898 194.165 158.63 193.094 159.525C192.023 160.42 190.536 161.616 189.789 162.183C189.042 162.751 188.115 163.573 187.73 164.011C187.05 164.784 187.001 164.801 186.076 164.588C185.552 164.467 184.596 164.366 183.952 164.363C183.308 164.36 182.781 164.294 182.781 164.216C182.781 164.138 183.007 163.481 183.283 162.757C183.703 161.654 184.032 161.235 185.3 160.193C187.697 158.221 193.055 151.828 196.128 147.274C196.641 146.515 197.06 145.788 197.06 145.659C197.06 145.042 196.347 145.565 195.328 146.928C192.837 150.262 188.702 154.489 185.299 157.18L184.454 157.847V154.997V152.146L185.39 151.402C187.218 149.95 190.458 145.435 192.316 141.749C193.313 139.773 194.829 136.082 194.829 135.632C194.829 134.977 194.298 135.625 193.148 137.684C190.996 141.538 189.114 144.159 186.526 146.91C185.162 148.359 183.977 149.574 183.891 149.609C183.806 149.644 183.612 149.232 183.461 148.694C183.31 148.156 182.854 147.129 182.447 146.412L181.707 145.109L182.539 144.303C182.996 143.86 183.846 142.563 184.427 141.421C185.008 140.279 186.419 137.731 187.564 135.758C189.935 131.668 191.705 128.226 191.705 127.702C191.705 127.505 191.58 127.382 191.426 127.428C191.126 127.518 186.775 133.996 184.247 138.116C182.145 141.543 181.041 142.974 180.5 142.974C180.256 142.974 179.27 142.319 178.308 141.518L176.559 140.061L177.287 138.566C179.155 134.729 184.206 124.741 184.613 124.08C184.951 123.531 185.004 123.275 184.817 123.089C184.478 122.75 184.361 122.894 182.936 125.414C182.267 126.597 180.29 129.964 178.542 132.895C175.688 137.683 175.313 138.214 174.851 138.126C174.166 137.996 173.533 139.154 173.707 140.221L173.827 140.964L172.956 140.52C171.786 139.924 169.744 139.41 168.544 139.41H167.565L168.666 138.129C169.693 136.935 174.656 129.943 177.853 125.187C178.914 123.609 179.191 123.041 178.994 122.848C178.798 122.655 178.533 122.821 177.913 123.523C172.888 129.214 168.41 134.372 167.53 135.482C166.428 136.871 165.378 138.708 165.378 139.247C165.378 139.41 165.002 139.678 164.542 139.843C163.208 140.32 161.537 141.482 160.511 142.646C159.684 143.584 158.359 145.962 157.909 147.318C157.791 147.672 157.605 147.43 156.999 146.125C156.145 144.29 154.779 142.294 152.82 140.022L151.501 138.492L152.492 137.225C153.037 136.528 154.52 134.404 155.787 132.505C158.486 128.46 160.527 125.714 163.864 121.638C166.089 118.921 166.479 118.224 165.755 118.264C165.432 118.282 159.16 125.308 156.492 128.643C154.316 131.362 152.354 134.244 151.438 136.069C151.099 136.743 150.788 137.332 150.745 137.379C150.703 137.426 150.089 136.936 149.381 136.289C148.673 135.643 147.716 134.865 147.254 134.56C146.792 134.255 146.414 133.971 146.414 133.93C146.414 133.888 147.314 132.022 148.415 129.783C151.219 124.075 154.683 118.681 158.252 114.462C159.4 113.106 159.752 112.545 159.569 112.367C159.287 112.092 158.411 112.97 154.803 117.142C150.444 122.184 147.051 127.082 145.154 131.072L144.194 133.091L142.85 132.994C141.4 132.889 140.965 133.245 142.248 133.485C142.656 133.562 143.167 133.753 143.383 133.911C143.746 134.177 143.751 134.282 143.445 135.301C143.264 135.907 143 136.377 142.861 136.345C139.68 135.618 136.773 135.852 134.321 137.033C133.487 137.435 132.804 137.741 132.804 137.714C132.804 137.623 137.309 129.062 137.89 128.05C139.671 124.945 143.188 119.983 147.009 115.188C148.4 113.442 149.537 111.914 149.537 111.791C149.537 111.206 148.788 111.737 146.946 113.627C140.317 120.431 132.865 130.833 130.25 136.932C129.166 139.46 128.991 140.188 129.346 140.672C129.625 141.054 129.517 141.399 128.627 142.95C128.599 142.997 128.162 142.662 127.655 142.205C126.522 141.183 124.417 140.164 122.709 139.81C121.326 139.523 121.166 139.348 121.889 138.911C122.582 138.492 124.272 136.165 125.167 134.398C125.601 133.541 126.574 131.486 127.329 129.832C129.274 125.574 134.218 117.535 138.355 111.906C138.983 111.051 139.498 110.274 139.498 110.179C139.498 109.704 138.927 110.168 137.587 111.734C133.415 116.607 128.826 123.354 125.892 128.927C124.768 131.063 123.39 133.518 122.831 134.384C121.863 135.882 121.402 136.471 119.742 138.327L119.018 139.137L116.931 138.917C115.783 138.795 114.812 138.666 114.773 138.629C114.733 138.592 115.15 137.776 115.699 136.814C122.172 125.473 123.721 122.558 126.438 116.61C130.078 108.641 134.383 97.2386 133.924 96.7809C133.558 96.4149 133.365 96.7626 131.845 100.541C128.475 108.919 124.648 116.882 119.59 126.043C115.459 133.525 113.247 137.249 112.52 137.944L111.927 138.512L107.585 138.183C105.196 138.002 103.212 137.853 103.176 137.852C103.139 137.852 103.872 136.974 104.803 135.902C108.154 132.046 110.983 127.445 114.644 119.898C118.242 112.479 119.7 108.946 123.905 97.4596C126.086 91.5031 126.541 89.8877 125.843 90.5845C125.723 90.7039 124.747 92.8928 123.674 95.4486C120.98 101.866 118.444 107.412 115.387 113.571C112.619 119.146 111.475 121.142 107.399 127.493C105.985 129.698 104.004 132.856 102.999 134.51L101.171 137.517L98.8002 137.494C97.4963 137.482 96.3895 137.432 96.3404 137.383C96.2913 137.334 96.6498 136.141 97.1373 134.732C97.6248 133.324 98.4816 130.567 99.0411 128.607C99.6703 126.403 100.338 124.575 100.79 123.818C101.998 121.794 104.153 117.362 106.354 112.375C108.283 108.007 113.699 96.2398 116.605 90.1045C117.293 88.6524 117.856 87.3745 117.856 87.2644C117.856 87.1546 117.706 87.0646 117.523 87.0646C117.317 87.0646 116.581 88.2804 115.601 90.2388C111.193 99.0451 102.487 115.453 102.314 115.28C102.264 115.231 102.321 114.75 102.441 114.214C102.561 113.677 103.17 110.21 103.793 106.511C105.804 94.5832 105.506 95.7212 108.045 90.257C109.288 87.5825 110.503 85.0537 110.745 84.6378C110.988 84.2222 111.133 83.7459 111.07 83.5798C110.783 82.8338 110.184 83.4457 108.585 86.118C107.295 88.2742 106.919 88.7702 107.022 88.1784C107.097 87.7496 107.754 83.9907 108.481 79.8254C112.002 59.6621 112.501 56.2438 112.501 52.3162V50.3885L114.768 50.8973C122.767 52.6924 131.731 51.7894 140.794 48.2755C142.903 47.4578 147.435 45.431 153.665 42.5189C158.255 40.3736 162.284 38.8602 173.856 34.9359C178.458 33.3753 183.779 31.5241 185.681 30.8222C192.91 28.1542 196.99 27.6051 201.254 28.7268ZM85.6166 40.9509C86.9665 41.3002 90.2787 42.0045 92.9775 42.5157C97.0416 43.286 109.303 46.1534 109.539 46.3889C109.658 46.5078 109.159 51.8622 108.706 55.3232C108.466 57.1609 107.421 63.7264 106.384 69.9131C105.347 76.0999 103.833 85.472 103.02 90.74C99.2776 114.974 97.3029 124.757 94.3346 133.771C93.6441 135.868 92.9313 137.706 92.7503 137.856C92.5694 138.005 92.4215 138.431 92.4215 138.8C92.4215 139.577 90.8573 144.068 89.9595 145.87C89.6237 146.544 89.0409 147.967 88.6643 149.033C87.8047 151.466 87.1884 152.681 86.7235 152.859C85.95 153.155 83.0377 152.915 81.5386 152.431C81.3577 152.372 81.7589 151.706 82.6357 150.608C86.4502 145.831 89.397 140.13 91.7624 132.95C92.7332 130.004 93.8483 125.566 94.0243 123.949C94.2043 122.292 93.5203 123.505 92.1187 127.329C89.3272 134.945 87.5296 138.765 84.4493 143.632C80.864 149.297 79.4811 151.589 79.4811 151.865C79.4811 152.048 79.273 152.101 78.8676 152.021C78.5302 151.954 77.8776 151.834 77.4174 151.755C76.9573 151.676 76.5807 151.54 76.5807 151.453C76.5807 151.365 77.1597 150.249 77.8674 148.972C80.5898 144.058 83.925 136.446 85.9531 130.516C86.8848 127.793 87.097 126.911 87.0088 126.131C86.8245 124.499 85.9513 123.946 85.9513 125.461C85.9513 126.44 85.4165 128.173 84.5143 130.117C82.0587 135.409 78.8901 141.718 76.5158 146.044L73.7918 151.008L72.7879 150.868C72.2357 150.79 71.708 150.68 71.6154 150.623C71.5226 150.566 71.7352 150.1 72.0877 149.587C74.6667 145.833 78.6991 134.084 79.6708 127.493C80.1746 124.075 80.1761 124.041 79.827 124.041C79.627 124.041 79.4035 124.411 79.2565 124.987C77.6878 131.124 76.1274 136.093 74.8663 138.965C74.5705 139.638 73.3394 142.044 72.1304 144.311C70.9215 146.577 69.8018 148.807 69.642 149.267C69.4823 149.726 69.2261 150.102 69.0726 150.102C68.6878 150.102 66.5408 149.635 66.5408 149.552C66.5408 149.514 66.8402 148.845 67.2061 148.064C67.91 146.562 69.3433 142.768 70.8118 138.519C72.521 133.573 74.4498 124.942 73.9561 124.45C73.5986 124.093 73.3015 124.391 73.1355 125.275C72.8012 127.054 70.4675 134.783 69.4111 137.611C68.1648 140.946 65.9123 145.716 64.6395 147.715C64.0605 148.625 63.7107 148.973 63.451 148.898C63.2484 148.84 62.6603 148.683 62.144 148.55L61.2056 148.308L62.416 146.025C64.0212 142.997 65.3371 139.822 66.7271 135.623C68.381 130.628 69.9521 124.684 69.6884 124.421C69.2516 123.985 68.8076 124.489 68.3194 125.974C67.5885 128.197 65.5874 133.296 64.28 136.266C63.4514 138.149 59.0269 147.01 58.6244 147.594C58.6041 147.623 57.8804 147.573 57.016 147.482L55.4447 147.318L56.873 143.642C67.4154 116.512 76.1146 84.8167 79.4619 61.3374C80.4597 54.3396 81.266 45.376 81.266 41.2824V39.6394L82.2142 39.9778C82.7356 40.1638 84.2668 40.6019 85.6166 40.9509ZM56.029 45.2453C44.2745 53.3611 32.8839 62.3941 19.6321 74.109C15.777 77.5168 14.8067 78.5971 15.8432 78.3265C17.0786 78.004 34.6081 64.8679 42.7797 58.1412C50.2094 52.025 59.1782 44.0126 59.1782 43.4909C59.1782 43.3219 59.1416 43.1835 59.0968 43.1835C59.0519 43.1835 57.6713 44.1113 56.029 45.2453ZM31.4011 48.059C29.7425 49.1266 29.3777 49.4135 24.4521 53.5248C18.5808 58.4252 17.0357 59.8895 17.7356 59.8895C18.199 59.8895 20.8166 58.1873 25.9349 54.5574C30.858 51.0659 34.0871 48.2107 33.8399 47.5676C33.6121 46.9747 32.8457 47.1291 31.4011 48.059ZM63.6404 54.9034C62.3519 55.94 58.2857 59.1086 54.6044 61.9446C34.9124 77.115 30.2215 80.8233 22.6998 87.1649C15.1688 93.5143 11.6559 96.7071 11.6559 97.2023C11.6559 98.1739 12.4495 97.6879 19.2416 92.5574C27.4001 86.3946 33.6632 81.2349 51.5925 65.9053C56.6849 61.551 62.0813 56.9524 63.5846 55.6859C66.0276 53.6277 66.6771 52.9481 66.1504 53.0013C66.0582 53.0107 64.9288 53.8665 63.6404 54.9034ZM278.985 55.2564C278.838 55.4034 278.718 55.7039 278.718 55.9242C278.718 56.1445 279.664 58.2045 280.82 60.5016C281.976 62.7991 283.145 65.4304 283.417 66.3492C283.945 68.1305 284.007 68.2704 284.189 68.0893C284.351 67.9271 283.056 61.8063 282.546 60.3264C281.977 58.6758 280.88 56.5432 280.162 55.6905C279.508 54.9145 279.376 54.8662 278.985 55.2564ZM293.488 70.8598C291.476 73.8696 289.367 77.3952 287.335 81.1476C286.425 82.8275 285.633 84.1193 285.574 84.0183C285.515 83.9174 285.4 83.2826 285.318 82.6077C285.024 80.1829 284.821 80.8812 284.816 84.3311C284.811 88.2256 284.553 89.804 283.273 93.7682C282.853 95.0661 282.511 96.1939 282.511 96.2741C282.511 96.3543 282.717 96.42 282.969 96.42C283.849 96.42 285.187 92.5108 285.601 88.7261C285.784 87.0535 285.967 86.5966 288.367 81.821C289.78 79.0081 291.952 74.91 293.193 72.714C294.435 70.5179 295.451 68.6885 295.451 68.6488C295.451 68.6092 295.353 68.5767 295.233 68.5767C295.113 68.5767 294.328 69.604 293.488 70.8598ZM229.968 70.8041C230.044 70.9266 230.006 71.0269 229.883 71.0269C229.76 71.0269 229.598 70.9266 229.522 70.8041C229.446 70.6816 229.485 70.5814 229.607 70.5814C229.73 70.5814 229.892 70.6816 229.968 70.8041ZM234.053 71.9439C234.356 72.0589 234.548 72.2088 234.48 72.2769C234.316 72.4402 231.195 71.4338 231.195 71.2178C231.195 71.0616 232.809 71.4717 234.053 71.9439ZM238.669 73.3947C240.019 73.8395 241.293 74.3505 241.5 74.5302C241.707 74.71 241.979 74.794 242.104 74.7169C242.229 74.6396 243.241 74.8933 244.352 75.2809C245.914 75.8255 246.32 76.0494 246.139 76.2674C246.01 76.4227 245.719 76.5011 245.491 76.4418C245.264 76.3826 245.014 76.439 244.934 76.567C244.843 76.7149 244.16 76.5078 243.068 76.0013C242.122 75.5618 240.067 74.6806 238.502 74.0429C236.937 73.4054 235.724 72.8167 235.806 72.7349C236.022 72.5195 235.991 72.5124 238.669 73.3947ZM184.724 77.088C184.166 77.981 183.451 78.9547 183.134 79.2516L182.558 79.7917V78.9495C182.558 78.1969 182.717 77.959 184.064 76.7065C184.892 75.936 185.608 75.3413 185.654 75.3849C185.7 75.4288 185.282 76.195 184.724 77.088ZM307.144 82.4542L307.924 86.6425L305.623 91.4755C303.239 96.4806 290.736 122.348 290.179 123.426L289.864 124.037L287.693 121.675C286.499 120.377 285.523 119.2 285.523 119.06C285.523 118.92 285.988 118.104 286.556 117.247C288.156 114.834 293.001 106.193 295.799 100.764C298.517 95.4905 301.178 89.7574 303.804 83.5161C304.71 81.3637 305.622 79.2017 305.831 78.7116C306.039 78.2216 306.245 77.9209 306.287 78.0434C306.329 78.1659 306.715 80.1508 307.144 82.4542ZM179.531 81.6495C178.972 83.1617 178.724 83.3864 176.246 84.6251C173.839 85.8284 173.41 85.9342 173.41 85.3252C173.41 84.7164 173.818 84.3329 175.53 83.3345C176.389 82.8336 177.693 81.9718 178.428 81.4196C179.163 80.8674 179.802 80.452 179.846 80.4967C179.891 80.5413 179.749 81.0601 179.531 81.6495ZM308.712 91.0888L309.289 94.3282L305.573 102.112C301.528 110.587 296.331 121.733 294.492 125.878C293.854 127.317 293.281 128.489 293.22 128.482C293.158 128.476 292.602 127.75 291.983 126.868L290.858 125.266L292.622 121.59C296.708 113.074 306.353 91.7875 307.75 88.2031C307.864 87.9106 307.998 87.7113 308.047 87.7603C308.096 87.8093 308.395 89.3073 308.712 91.0888ZM212.001 89.8688C211.668 90.87 211.585 91.4089 211.741 91.5646C212.094 91.917 212.38 91.6136 212.768 90.4773C213.21 89.1812 213.225 88.4011 212.807 88.4011C212.615 88.4011 212.298 88.9798 212.001 89.8688ZM217.423 90.8977C217.147 91.2387 215.934 94.2605 215.718 95.1441C215.606 95.6007 215.659 95.797 215.922 95.8977C216.117 95.9725 216.377 95.9335 216.5 95.8112C216.901 95.4112 218.098 91.0505 217.869 90.8224C217.734 90.6874 217.571 90.7146 217.423 90.8977ZM221.967 93.445C221.888 94.0139 221.463 95.319 221.022 96.3454C220.268 98.0968 220.169 98.8702 220.699 98.8702C221.401 98.8702 222.457 96.1875 222.825 93.4686C222.952 92.5233 222.922 92.4106 222.538 92.4106C222.196 92.4106 222.08 92.6215 221.967 93.445ZM337.002 97.8122C337.116 101.458 337.223 101.989 337.841 101.989C338.508 101.989 338.531 101.089 337.95 97.7808C337.645 96.0456 337.395 94.5783 337.395 94.5204C337.395 94.4627 337.283 94.4153 337.145 94.4153C336.967 94.4153 336.926 95.3874 337.002 97.8122ZM310.03 98.9259C310.355 100.917 310.828 103.913 311.081 105.584L311.542 108.623L310.978 110.301C309.311 115.259 306.605 121.001 303.628 125.902C301.086 130.085 301.322 129.824 299.95 129.983L298.759 130.121L299.642 128.362C300.127 127.394 302.456 122.342 304.818 117.135C307.18 111.929 309.453 106.926 309.869 106.018C310.615 104.393 310.682 104.016 310.168 104.332C309.679 104.634 297.874 128.633 297.746 129.587C297.652 130.284 297.525 130.5 297.209 130.5C296.981 130.5 296.298 130.688 295.692 130.918L294.59 131.336L294.335 130.722C294.114 130.189 294.169 129.93 294.751 128.778C295.568 127.162 303.118 109.744 306.627 101.379C308.027 98.0418 309.232 95.3105 309.305 95.3089C309.378 95.3076 309.704 96.9352 310.03 98.9259ZM228.205 98.1599C227.768 99.0248 227.003 100.363 226.505 101.133C225.498 102.688 225.392 103.611 226.206 103.727C226.858 103.82 227.465 102.99 228.272 100.901C229.204 98.4858 229.528 97.1163 229.234 96.8232C229.068 96.657 228.763 97.0524 228.205 98.1599ZM330.402 98.9259C330.974 102.519 331.143 103.102 331.61 103.102C331.847 103.102 332.041 103.016 332.041 102.91C332.041 101.749 330.625 97.0882 330.272 97.0882C330.182 97.0882 330.241 97.9151 330.402 98.9259ZM67.0707 100.04C65.8063 104.738 64.0116 111.15 63.3965 113.165L62.739 115.32L58.2255 119.64C52.681 124.947 48.6215 128.728 41.6516 135.077C32.7549 143.183 30.4029 145.264 24.9269 149.875C22.9658 151.526 20.3344 153.87 19.0796 155.083L16.7981 157.288L13.2788 156.596C11.3431 156.215 9.10689 155.8 8.30927 155.673C7.51166 155.546 6.53355 155.389 6.13596 155.324L5.41287 155.206L8.2555 152.8C9.81883 151.477 13.3132 148.399 16.0206 145.96C18.7278 143.522 22.7929 139.872 25.0538 137.851C36.2472 127.843 52.6157 112.473 63.5288 101.722C65.6149 99.667 67.3899 97.9841 67.4734 97.9823C67.5568 97.9806 67.3757 98.9065 67.0707 100.04ZM323.42 100.175C323.501 100.68 323.718 102.519 323.902 104.261C324.086 106.003 324.329 107.521 324.443 107.634C324.747 107.938 325.348 107.632 325.346 107.174C325.344 106.42 324.679 102.54 324.289 101.003C323.845 99.2545 323.17 98.6105 323.42 100.175ZM317.402 101.877C317.639 106.008 318.181 108.671 318.783 108.671C319.017 108.671 319.102 108.362 319.105 107.502C319.112 105.894 317.991 100.172 317.589 99.7612C317.3 99.4672 317.278 99.7207 317.402 101.877ZM233.131 103.626C232.334 105.14 231.647 106.609 231.606 106.891C231.496 107.64 231.976 107.676 232.468 106.956C232.922 106.292 234.988 101.496 234.988 101.107C234.988 100.406 234.427 101.168 233.131 103.626ZM180.203 102.853C178.927 103.63 178.666 104.439 179.692 104.439C180.258 104.439 181.442 103.618 181.442 103.226C181.442 102.604 180.887 102.437 180.203 102.853ZM91.2318 105.942C91.1765 106.034 90.7714 107.479 90.3316 109.152C89.8921 110.826 89.2286 113.142 88.8573 114.299C88.0403 116.845 88.0162 117.191 88.6632 117.095C89.2629 117.006 90.001 115.147 90.7606 111.81C91.4755 108.669 91.7658 105.055 91.2318 105.942ZM189.16 107.128C188.521 107.887 188.41 108.448 188.9 108.448C189.267 108.448 190.143 107.416 190.143 106.984C190.143 106.398 189.723 106.459 189.16 107.128ZM83.3746 108.393C82.5453 111.207 81.476 115.71 81.5364 116.131C81.6442 116.881 82.2069 116.631 82.5348 115.688C82.8195 114.869 84.1631 108.032 84.1653 107.39C84.168 106.667 83.7131 107.243 83.3746 108.393ZM72.1692 109.952C70.7788 113.6 69.6369 117.162 69.7049 117.637C69.8232 118.465 70.4535 118.36 70.891 117.439C71.3805 116.409 73.4583 108.524 73.2856 108.351C72.9826 108.049 72.7881 108.328 72.1692 109.952ZM244.917 108.8C241.141 109.225 240.311 109.402 240.035 109.838C239.85 110.131 239.877 110.306 240.149 110.577C240.475 110.903 240.682 110.903 242.599 110.575C246.329 109.937 249.49 109.106 249.49 108.763C249.49 108.375 248.618 108.383 244.917 108.8ZM198.021 110.418C197.652 110.658 196.566 113.271 196.651 113.714C196.695 113.939 196.907 114.157 197.123 114.199C197.414 114.255 197.661 113.946 198.081 112.997C198.834 111.297 198.974 110.55 198.567 110.394C198.391 110.327 198.145 110.337 198.021 110.418ZM312.075 112.595C312.535 115.741 314.192 128.162 314.192 128.465C314.192 128.635 313.512 128.725 312.128 128.737C310.993 128.747 309.487 128.828 308.782 128.916C308.076 129.004 307.499 129.047 307.499 129.013C307.499 128.978 308.603 126.331 309.953 123.13C311.303 119.928 312.407 117.27 312.407 117.222C312.407 117.175 312.299 117.135 312.167 117.135C312.035 117.135 310.586 119.877 308.947 123.228L305.967 129.322L304.694 129.471C303.993 129.553 303.394 129.593 303.362 129.559C303.33 129.526 303.704 128.846 304.193 128.05C306.587 124.147 309.42 117.673 310.885 112.755C311.293 111.387 311.655 110.296 311.689 110.331C311.724 110.365 311.898 111.384 312.075 112.595ZM339.819 110.558C339.762 110.615 339.79 111.442 339.881 112.395C340.239 116.107 340.751 124.495 341.069 131.837C341.251 136.063 341.45 140.424 341.511 141.526C341.571 142.629 341.624 143.722 341.627 143.955C341.634 144.362 341.652 144.364 342.071 143.985C342.37 143.715 342.754 143.62 343.294 143.683L344.082 143.775L343.971 142.65C343.91 142.032 343.709 139.872 343.525 137.851C342.988 131.951 340.71 112.354 340.399 110.954C340.294 110.483 340.057 110.321 339.819 110.558ZM77.3049 111.531C77.151 111.627 76.7632 112.587 76.4433 113.664C75.9096 115.461 75.8911 115.651 76.2197 115.979C76.7396 116.498 76.9805 116.136 77.3761 114.242C77.7672 112.369 77.738 111.26 77.3049 111.531ZM205.591 116.3C205.114 116.892 203.753 119.82 203.753 120.255C203.753 120.868 204.367 121.072 204.828 120.612C205.424 120.017 206.642 116.628 206.377 116.3C206.254 116.147 206.077 116.022 205.984 116.022C205.891 116.022 205.715 116.147 205.591 116.3ZM168.493 125.433C165.745 129.261 162.54 133.661 161.37 135.21C158.906 138.471 157.961 139.98 157.198 141.865C156.504 143.579 156.559 144.621 157.346 144.703C157.849 144.756 158.138 144.37 160.268 140.805C161.568 138.629 165.208 132.846 168.356 127.954C171.504 123.062 174.079 118.927 174.079 118.766C174.079 117.863 173.011 119.138 168.493 125.433ZM59.1597 126.396C57.7938 130.43 56.5464 133.981 56.3875 134.287C55.9913 135.051 41.5445 149.295 37.4235 152.986C35.5837 154.633 33.1137 156.914 31.9343 158.053C30.7505 159.198 29.5995 160.126 29.3641 160.126C29.1296 160.126 28.2372 159.934 27.3807 159.701C26.5241 159.467 24.5684 159.011 23.0345 158.689C19.0683 157.854 19.168 157.927 20.603 156.897C23.2134 155.021 32.9912 146.591 40.1023 140.084C45.1707 135.446 54.0674 126.683 58.2858 122.172C60.065 120.27 61.5483 118.792 61.582 118.887C61.6157 118.983 60.5255 122.362 59.1597 126.396ZM394.733 124.2C392.539 127.834 389.51 133.603 388.816 135.467C388.525 136.25 388.485 136.601 388.667 136.783C389.113 137.228 389.494 136.619 391.522 132.223C392.608 129.867 394.281 126.395 395.239 124.508C396.197 122.621 396.951 120.991 396.916 120.884C396.88 120.778 395.898 122.271 394.733 124.2ZM213.002 123.948C211.546 125.799 210.916 126.843 210.902 127.43C210.891 127.872 211.744 128.404 212.018 128.126C212.399 127.74 214.881 122.618 214.772 122.442C214.549 122.081 214.311 122.283 213.002 123.948ZM147.225 136.808C148.8 138.503 150.319 140.579 149.616 140.078C147.642 138.67 146.413 137.858 145.745 137.521C145.315 137.304 144.934 137.101 144.898 137.071C144.785 136.974 145.597 135.401 145.76 135.401C145.846 135.401 146.505 136.034 147.225 136.808ZM143.188 138.857C149.684 140.505 154.692 146.84 155.782 154.787C155.924 155.824 156.088 156.999 156.146 157.397C156.204 157.795 156.353 158.121 156.478 158.121C156.619 158.121 156.652 158.52 156.565 159.179C156.28 161.336 156.23 161.462 155.66 161.462C155.254 161.462 155.008 161.691 154.643 162.409C154.012 163.65 152.91 165.249 152.685 165.249C152.287 165.249 151.926 161.236 151.823 155.671C151.763 152.424 151.636 149.973 151.542 150.225C150.633 152.636 150.322 160.226 150.962 164.349C151.143 165.509 151.242 166.535 151.183 166.63C151.124 166.725 150.622 167.068 150.067 167.393C149.17 167.918 149.02 167.946 148.723 167.649C148.539 167.466 148.296 166.904 148.183 166.401C147.794 164.672 147.529 159.341 147.674 156.172C147.805 153.325 147.783 152.998 147.456 152.998C147.249 152.998 147.028 153.25 146.945 153.583L146.798 154.168L144.654 154.014C139.533 153.648 136.803 152.474 132.47 148.774C131.578 148.013 130.991 147.667 130.713 147.739C130.354 147.832 130.313 147.748 130.414 147.137C130.62 145.897 131.466 143.914 132.356 142.587C134.592 139.253 138.901 137.769 143.188 138.857ZM224.502 138.923C224.502 139.023 224.829 139.262 225.227 139.454C225.626 139.646 226.806 140.417 227.849 141.167C229.818 142.584 230.367 142.744 230.483 141.936C230.581 141.25 229.291 139.883 227.962 139.266C226.864 138.755 224.502 138.522 224.502 138.923ZM177.937 143.754L178.639 144.645L177.642 143.752C177.094 143.261 176.348 142.628 175.985 142.346C175.443 141.926 175.382 141.796 175.65 141.623C175.988 141.404 176.362 141.753 177.937 143.754ZM111.832 142.084C114.961 142.329 118.425 142.682 119.529 142.869C121.855 143.263 126 144.521 125.734 144.753C125.635 144.84 124.22 145.432 122.591 146.069C117.694 147.984 114.887 148.531 112.167 148.102C108.934 147.592 106.318 145.748 104.93 143.002L104.24 141.638L105.191 141.638C105.715 141.639 108.703 141.839 111.832 142.084ZM170.523 142.147C172.647 142.87 174.389 143.986 176.182 145.771C178.89 148.468 180.292 151.517 180.799 155.815C180.997 157.489 180.987 158.459 180.753 160.318C180.589 161.621 180.453 163.098 180.451 163.6C180.448 164.484 180.416 164.523 179.406 164.881C178.081 165.351 176.339 166.909 175.692 168.202C174.488 170.609 173.776 175.247 173.894 179.918L173.968 182.866L173.078 182.8L172.188 182.734L171.661 180.061C171.169 177.573 171.152 177.242 171.412 175.272C171.996 170.837 171.964 170.574 171.019 172.031C169.645 174.149 169.006 178.512 169.696 181.064C169.878 181.737 169.99 182.325 169.944 182.371C169.899 182.416 169.279 182.312 168.568 182.139L167.275 181.825L166.985 180.498C166.536 178.438 166.611 175.019 167.15 172.954C167.695 170.865 167.698 170.817 167.301 170.817C166.971 170.817 166.077 173.008 165.499 175.236C165.299 176.008 165.155 177.508 165.155 178.827V181.092L164 180.465L162.845 179.839L162.864 176.832C162.883 173.933 162.989 173.262 163.945 169.982C164.054 169.61 163.999 169.481 163.734 169.481C162.909 169.481 160.931 174.573 160.849 176.909C160.824 177.601 160.75 178.167 160.682 178.168C160.615 178.168 160.194 177.792 159.747 177.333L158.934 176.497L159.147 174.047C159.379 171.389 159.708 169.881 160.614 167.335L161.199 165.689L162.292 166.71C164.174 168.467 165.309 168.78 169.132 168.596C170.242 168.542 170.366 168.477 170.995 167.618C171.92 166.353 173.667 162.812 174.362 160.794C174.958 159.062 175.641 156.884 175.641 156.715C175.641 156.662 175.265 156.558 174.805 156.485C173.479 156.273 169.864 155.016 168.279 154.216C165.598 152.863 163.734 151.375 162.616 149.696C162.051 148.848 161.381 148.016 161.128 147.847L160.667 147.54L161.259 146.427C162.503 144.086 163.958 142.72 165.931 142.039C167.438 141.519 168.768 141.55 170.523 142.147ZM52.7194 143.921C52.2468 145.054 50.5865 148.788 49.0298 152.218C46.6278 157.511 44.2662 162.904 43.5556 164.718C43.3725 165.186 43.3562 165.183 41.9127 164.458C41.111 164.055 38.8445 163.209 36.8762 162.579C34.9079 161.948 33.2975 161.347 33.2975 161.244C33.2975 161.141 35.2301 159.32 37.5924 157.197C39.9544 155.075 44.4474 150.773 47.5765 147.638C50.7056 144.503 53.3363 141.921 53.4224 141.899C53.5083 141.878 53.1922 142.788 52.7194 143.921ZM130.85 151.94C131.865 154.369 132.017 155.002 131.588 155.002C131.405 155.002 131.027 155.312 130.747 155.691L130.238 156.38L130.097 155.747C129.942 155.049 129.851 150.102 129.993 150.102C130.042 150.102 130.428 150.929 130.85 151.94ZM164.562 154.315C166.998 155.684 170.174 156.724 172.9 157.043L175.161 157.308L174.288 159.041C173.329 160.945 170.111 165.826 169.379 166.487C168.622 167.171 166.852 167.025 165.192 166.141C163.593 165.291 162.577 164.141 161.408 161.859L160.573 160.227L160.506 156C160.469 153.675 160.38 151.529 160.308 151.231C160.205 150.8 160.449 150.961 161.495 152.01C162.22 152.737 163.6 153.774 164.562 154.315ZM234.542 151.32C234.542 151.977 236.571 155.671 236.932 155.671C237.427 155.671 237.138 154.761 236.071 152.968C235.058 151.265 234.542 150.71 234.542 151.32ZM137.231 154.179C139.452 155.001 141.185 155.282 143.489 155.193L145.531 155.114L145.398 156.45C145.212 158.309 144.927 159.906 144.656 160.615C143.964 162.423 141.152 162.532 137.882 160.878C135.454 159.65 134.34 158.072 133.014 153.985C132.619 152.768 132.251 151.654 132.197 151.508C132.143 151.363 132.91 151.778 133.903 152.43C134.896 153.082 136.394 153.869 137.231 154.179ZM159.783 162.687C159.922 163.177 160.221 163.922 160.447 164.342L160.858 165.106L160.104 166.154C159.059 167.606 158.074 169.857 157.597 171.888L157.194 173.602L156.911 172.599C156.497 171.131 156.726 168.267 157.524 164.915C158.172 162.193 158.423 160.642 158.822 156.896L158.988 155.337L159.259 158.566C159.407 160.343 159.643 162.197 159.783 162.687ZM132.457 156.885L132.811 158.099L132.094 159.113C131.278 160.269 130.918 160.176 130.918 158.81C130.918 158.128 131.801 155.671 132.046 155.671C132.077 155.671 132.262 156.217 132.457 156.885ZM134.109 159.978L134.598 160.498L134.063 161.704C133.769 162.367 133.459 163.11 133.374 163.355C133.22 163.796 133.215 163.796 132.899 163.367C132.723 163.128 132.619 162.778 132.669 162.587C132.718 162.397 132.883 161.615 133.035 160.849C133.187 160.084 133.381 159.457 133.465 159.457C133.55 159.457 133.839 159.691 134.109 159.978ZM195.679 161.384L197.534 161.751L196.572 162.739C196.042 163.283 194.771 164.378 193.746 165.172L191.882 166.615L190.467 166.015L189.053 165.415L189.892 164.715C190.354 164.33 191.364 163.34 192.136 162.516C192.909 161.691 193.605 161.017 193.683 161.016C193.761 161.016 194.659 161.182 195.679 161.384ZM136.66 162.046C137.3 162.367 137.847 162.648 137.874 162.67C137.901 162.693 137.719 163.124 137.469 163.628C137.219 164.131 136.957 165.103 136.886 165.787C136.816 166.471 136.693 167.031 136.613 167.031C136.534 167.031 136.128 166.747 135.712 166.4C134.982 165.792 134.956 165.717 135.004 164.339C135.057 162.825 135.246 161.462 135.402 161.462C135.454 161.462 136.02 161.725 136.66 162.046ZM199.802 162.606C200.318 162.868 201.518 163.578 202.467 164.185L204.193 165.287L203.025 166.229C201.206 167.694 199.944 168.5 198.083 169.382L196.367 170.195L195.07 168.96L193.773 167.725L194.411 167.115C194.761 166.78 195.776 165.523 196.667 164.321C197.558 163.12 198.416 162.135 198.575 162.134C198.733 162.132 199.285 162.345 199.802 162.606ZM146.065 167.435C146.282 168.086 146.403 168.675 146.333 168.745C146.264 168.814 145.522 168.92 144.685 168.98L143.164 169.088L142.893 167.213C142.743 166.181 142.621 164.979 142.621 164.542C142.621 163.796 142.673 163.738 143.458 163.605C143.918 163.528 144.545 163.269 144.852 163.031L145.41 162.598L145.54 164.425C145.612 165.429 145.848 166.784 146.065 167.435ZM140.784 163.477C141.426 163.614 141.952 163.75 141.952 163.78C141.952 163.809 141.788 164.312 141.588 164.898C141.335 165.64 141.26 166.395 141.34 167.388C141.465 168.943 141.483 168.926 140.084 168.574C139.152 168.34 139.129 168.31 138.869 167.057C138.724 166.354 138.605 165.147 138.605 164.376C138.605 163.029 138.625 162.978 139.111 163.1C139.389 163.169 140.142 163.339 140.784 163.477ZM187.131 167.813C189.938 168.628 191.806 169.605 193.395 171.089C195.73 173.27 196.714 175.742 197.386 181.122C197.637 183.127 197.674 184.091 197.512 184.393C197.134 185.099 197.242 185.473 198.099 186.419C198.563 186.932 198.827 187.398 198.712 187.501C197.727 188.383 193.836 190.865 193.439 190.865C193.163 190.865 192.747 186.807 192.749 184.135C192.751 182.577 192.673 181.351 192.577 181.41C192.482 181.47 192.225 182.293 192.007 183.24C191.557 185.198 191.48 189.166 191.865 190.466C192.142 191.4 192.145 191.399 190.349 191.651L189.327 191.795L188.843 190.323C188.124 188.136 188.188 187.233 189.13 186.293C189.993 185.431 190.347 184.443 191.478 179.727C191.875 178.073 192.28 176.561 192.378 176.366C192.566 175.994 192.277 175.295 192.035 175.537C191.958 175.614 191.576 175.585 191.186 175.472C190.797 175.359 189.126 175.109 187.474 174.917C185.822 174.724 184.015 174.417 183.458 174.234C182.078 173.781 180.571 172.738 179.782 171.689C179.346 171.111 178.95 170.817 178.603 170.817C177.992 170.817 178.001 170.793 177.631 173.356C177.293 175.688 177.544 178.343 178.331 180.784L178.822 182.306L178.074 183.629L177.325 184.953L177.097 183.955C176.769 182.523 176.819 174.594 177.168 172.717C177.717 169.76 178.851 168.029 180.689 167.343C181.901 166.89 184.643 167.09 187.131 167.813ZM221.713 170.314C217.664 172.72 216.669 173.547 217.46 173.85C217.996 174.055 219.581 173.171 221.601 171.538C224.248 169.398 224.306 168.774 221.713 170.314ZM211.604 172.076C209.99 172.463 209.502 173.045 209.957 174.041C210.425 175.067 211.176 174.996 212.73 173.776C214.966 172.02 214.538 171.372 211.604 172.076ZM184.091 176.519C185.332 176.798 186.437 176.863 188.582 176.786L191.427 176.683L190.32 179.372C189.711 180.851 189.072 182.313 188.899 182.621C188.726 182.928 188.39 183.649 188.151 184.222C187.744 185.202 187.657 185.273 186.69 185.418C184.805 185.7 182.419 184.94 181.306 183.703C180.636 182.959 179.845 179.578 179.712 176.896L179.599 174.622L181.023 175.386C181.806 175.806 183.187 176.316 184.091 176.519ZM219.794 175.753C223.108 176.476 225.421 177.779 228.231 180.507L230.534 182.743L229.367 184.521C225.586 190.278 220.572 192.451 214.713 190.873C213.613 190.576 213.68 190.434 215.173 189.886C216.729 189.315 218.822 187.883 220.177 186.464C221.473 185.107 221.842 184.231 220.765 185.067C217.636 187.498 215.898 188.228 212.277 188.634C211.137 188.762 210.133 188.885 210.046 188.908C209.818 188.969 208.215 188.348 208.215 188.2C208.215 188.131 209.089 187.778 210.157 187.416C213.589 186.253 216.927 183.937 219.297 181.076C220.442 179.695 220.793 178.831 220.207 178.841C220.054 178.844 219.376 179.404 218.701 180.085C214.845 183.977 208.155 186.866 205.806 185.653C205.134 185.306 205.077 185.311 204.651 185.736L204.202 186.184L202.747 185.468L201.291 184.751L203.107 184.361C205.387 183.872 208.084 182.579 210.36 180.884C212.096 179.592 216.024 175.715 216.024 175.294C216.024 175.029 217.036 175.152 219.794 175.753ZM117.633 176.821C117.633 177.435 119.972 182.517 121.534 185.296C128.199 197.155 136.762 204.488 145.84 206.111C148.301 206.551 153.553 206.673 153.554 206.29C153.554 206.198 153.047 206.158 152.427 206.201C150.749 206.317 147.053 205.829 144.876 205.205C137.928 203.212 131.711 197.947 125.616 188.894C124.01 186.509 120.791 181.01 119.279 178.071C118.702 176.948 118.284 176.388 118.023 176.387C117.785 176.387 117.633 176.555 117.633 176.821ZM139.721 181.421C139.721 181.88 141.639 185.071 143.013 186.896C144.872 189.367 146.822 191.213 149.537 193.072C152.876 195.358 155.356 196.41 160.533 197.736C164.827 198.837 166.109 199.443 169.464 201.961C174.24 205.545 177.203 206.996 181.143 207.682C184.6 208.284 189.536 208.016 193.552 207.009C196.395 206.295 198.175 205.717 198.175 205.508C198.175 205.389 197.949 205.343 197.673 205.407C197.397 205.471 196.07 205.781 194.725 206.096C193.379 206.41 191.046 206.787 189.539 206.933C183.063 207.56 176.657 205.799 172.258 202.183C171.317 201.409 169.853 200.202 169.004 199.5C166.905 197.766 165.49 197.171 161.922 196.525C156.571 195.556 152.76 193.974 149.016 191.17C146.561 189.33 143.372 185.946 141.652 183.356C140.896 182.218 140.153 181.287 140 181.287C139.846 181.287 139.721 181.347 139.721 181.421ZM179.87 184.054C180.372 184.865 181.671 185.726 183.079 186.181C183.805 186.415 183.914 186.53 183.793 186.935C183.715 187.197 183.515 188.145 183.35 189.041C183.185 189.937 182.992 190.727 182.922 190.797C182.779 190.941 181.585 190.497 180.833 190.021C180.473 189.792 180.387 189.604 180.523 189.338C180.814 188.771 181.019 185.296 180.762 185.296C180.392 185.296 179.678 186.676 179.527 187.683C179.448 188.208 179.303 188.637 179.204 188.637C179.105 188.637 178.818 188.305 178.567 187.898C178.176 187.267 178.143 187.03 178.339 186.283C178.68 184.984 179.236 183.291 179.322 183.291C179.364 183.291 179.61 183.635 179.87 184.054ZM187.589 186.465C187.285 187.47 187.197 189.884 187.434 190.741C187.568 191.224 187.635 191.661 187.583 191.713C187.466 191.83 184.771 191.366 184.606 191.202C184.465 191.061 184.515 189.23 184.705 187.579C184.84 186.411 184.841 186.41 185.651 186.394C186.097 186.385 186.663 186.292 186.908 186.187C187.623 185.88 187.751 185.933 187.589 186.465Z" fill="#449284"/>
</svg>
