<svg width="45" height="76" viewBox="0 0 45 76" fill="none" xmlns="http://www.w3.org/2000/svg">
<path fill-rule="evenodd" clip-rule="evenodd" d="M21.2881 0.589606C20.1787 1.05725 20.0024 1.44196 20.3792 2.57614C21.0923 4.7223 20.9867 32.2906 20.257 34.5259C19.9123 35.5816 18.5073 38.0426 17.135 39.9948C14.823 43.2839 14.5358 43.4934 13.2062 42.8568L11.7716 42.1697L13.2537 39.8165C16.2611 35.041 17.2632 27.7763 15.5925 22.8586C15.1588 21.5798 13.6352 18.383 12.2071 15.753C9.37053 10.5285 4.69119 6.16574 1.92404 6.16574H0.415282L0.416477 19.1038C0.41707 26.22 0.274667 37.9341 0.100237 45.1358C-0.0991117 53.3637 0.00234159 58.577 0.373747 59.1643C0.843046 59.9069 2.06406 60.0566 6.32276 59.8945C11.6245 59.6918 11.688 59.7074 12.2688 61.3124C13.0164 63.3787 16.5227 69.0708 18.0523 70.7001C20.6444 73.4616 23.5563 76 24.133 76C24.8746 76 28.5026 71.8611 31.0746 68.0807C32.1111 66.5568 33.2959 63.9274 33.7082 62.2377L34.4576 59.165H39.3535C42.3609 59.165 44.4096 58.8925 44.6647 58.4585C45.1737 57.5937 45.0759 12.1347 44.5555 7.56866C44.0637 3.24954 43.0533 3.28507 38.7133 7.77442C34.1111 12.5344 30.6854 20.3702 30.6771 26.1571C30.6735 28.451 33.3339 37.4465 35.0432 40.9208C36.3929 43.6636 36.2695 44.2005 34.2873 44.2005C32.8764 44.2005 32.0286 43.4878 29.6358 40.2873C26.292 35.8166 25.8423 34.4667 25.5362 27.989C25.1594 20.0316 25.1784 3.19342 25.5646 2.53685C25.7658 2.19391 25.7681 1.46752 25.5688 0.921936C25.1701 -0.169848 23.4133 -0.306392 21.2881 0.589606ZM41.3262 27.4808L41.2758 40.0665L39.853 38.2365C37.446 35.1401 35.8168 29.0552 36.1669 24.4698C36.3342 22.2837 36.8011 20.0765 37.2046 19.5652C37.608 19.0545 37.7154 18.6362 37.443 18.6362C37.0307 18.6362 40.7252 14.9979 41.2165 14.9206C41.3049 14.9062 41.3541 20.5585 41.3262 27.4808ZM6.44617 20.4456C8.51441 24.6631 8.70959 31.0137 6.90715 35.4176C4.47284 41.3635 4.21832 40.7212 4.19399 28.5838C4.18154 22.4265 4.34588 17.3891 4.55947 17.3891C4.77305 17.3891 5.62208 18.7646 6.44617 20.4456ZM26.2268 44.1656L27.6566 45.6894L25.2692 47.1148C23.0562 48.4361 22.7791 48.4691 21.472 47.5687C20.2522 46.7289 20.1502 46.3934 20.7162 45.0871C21.0763 44.2566 21.564 43.577 21.8001 43.577C22.0357 43.577 22.3757 42.9871 22.5548 42.2663C22.9138 40.8254 23.2603 41.0049 26.2268 44.1656ZM10.2047 48.7971C11.6346 49.0739 12.0101 49.877 11.7989 52.2052L11.5735 54.6918L8.30794 54.9019C4.67755 55.1358 3.97508 54.5272 3.97508 51.1515C3.97508 47.7695 4.35598 47.3979 7.12609 48.075C8.49305 48.4086 9.8784 48.7335 10.2047 48.7971ZM39.4229 49.7018C39.8299 49.973 40.2618 51.091 40.3835 52.1859L40.6041 54.1768H37.7154H34.8266V51.6827C34.8266 49.2828 34.899 49.1893 36.7548 49.198C37.8157 49.2036 39.0159 49.4299 39.4229 49.7018ZM29.6329 52.4621C30.0701 53.7117 29.4721 54.8003 28.3496 54.8003C26.737 54.8003 26.4249 54.0739 27.5012 52.8244C28.6534 51.4863 29.2555 51.3841 29.6329 52.4621ZM19.7372 54.6544C19.1997 55.2193 17.545 54.1862 17.933 53.5277C18.1988 53.0757 18.5868 53.1018 19.1712 53.6119C19.6399 54.0203 19.8945 54.4892 19.7372 54.6544ZM27.8643 61.0187C27.2882 61.9471 25.9853 63.7522 24.969 65.0292L23.1208 67.3505L21.3469 64.9724C18.7245 61.457 18.0635 59.9593 18.9606 59.5653C19.3658 59.3869 21.7705 59.261 24.3045 59.2853L28.9108 59.3296L27.8643 61.0187Z" fill="white"/>
</svg>
