<svg width="28" height="28" viewBox="0 0 28 28" fill="none" xmlns="http://www.w3.org/2000/svg">
<path d="M14.0003 27.3332C6.63633 27.3332 0.666992 21.3638 0.666992 13.9998C0.666992 6.63584 6.63633 0.666504 14.0003 0.666504C21.3643 0.666504 27.3337 6.63584 27.3337 13.9998C27.3337 21.3638 21.3643 27.3332 14.0003 27.3332ZM9.85366 15.5598L9.87099 15.5505L11.031 19.3772C11.1803 19.7918 11.3857 19.8665 11.635 19.8318C11.8857 19.7985 12.0177 19.6638 12.1817 19.5065L13.7657 17.9758L17.1657 20.4932C17.787 20.8358 18.2337 20.6585 18.3883 19.9172L20.5977 9.48784C20.8417 8.51717 20.415 8.12784 19.6617 8.43717L6.68433 13.4505C5.79899 13.8052 5.80433 14.3012 6.52433 14.5212L9.85366 15.5612V15.5598Z" fill="white" fill-opacity="0.5"/>
</svg>
