<svg width="116" height="12" viewBox="0 0 116 12" fill="none" xmlns="http://www.w3.org/2000/svg">
<path fill-rule="evenodd" clip-rule="evenodd" d="M2.45996 0C1.10136 0 0 1.07452 0 2.4V12H1.22998V2.4C1.22998 1.73726 1.78066 1.2 2.45996 1.2C3.13926 1.2 3.68994 1.73726 3.68994 2.4V3.6H4.91992V2.4C4.91992 1.07452 3.81856 0 2.45996 0ZM6.14991 0H7.37989V3.6H6.14991V0ZM6.14991 10.8H7.37989V12H6.14991V10.8ZM8.60987 4.8H4.91992L4.30493 8.4H3.68994V9.6H9.83985V8.4H9.22486L8.60987 4.8ZM13.5298 2.4C13.5298 1.07452 12.4284 0 11.0698 0C9.71123 0 8.60987 1.07452 8.60987 2.4V3.6H9.83985V2.4C9.83985 1.73726 10.3905 1.2 11.0698 1.2C11.7491 1.2 12.2998 1.73726 12.2998 2.4V12H13.5298V2.4ZM24.7928 5.64609V3.36094H25.9952V9.15H24.7928V6.7125H22.1383V9.15H20.9359V3.36094H22.1383V5.64609H24.7928ZM32.0069 6.86484C32.0069 8.28164 31.0232 9.22617 29.5866 9.22617C28.1188 9.22617 27.1663 8.29688 27.1663 6.86484C27.1663 5.44805 28.15 4.50352 29.5866 4.50352C31.0544 4.50352 32.0069 5.43281 32.0069 6.86484ZM28.3218 6.86484C28.3218 7.76367 28.8059 8.31211 29.5866 8.31211C30.3674 8.31211 30.8514 7.76367 30.8514 6.86484C30.8514 5.96602 30.3674 5.41758 29.5866 5.41758C28.8059 5.41758 28.3218 5.96602 28.3218 6.86484ZM36.9101 5.7832C36.9101 6.28594 36.6446 6.63633 36.2386 6.80391C36.7539 6.97148 37.035 7.35234 37.035 7.90078C37.035 8.7082 36.3948 9.15 35.3329 9.15H33.0219V4.57969H35.1612C36.2542 4.57969 36.9101 4.96055 36.9101 5.7832ZM35.1924 5.40234H34.0837V6.42305H35.1612C35.614 6.42305 35.817 6.2707 35.817 5.90508C35.817 5.58516 35.5984 5.40234 35.1924 5.40234ZM34.0837 8.31211H35.2236C35.6609 8.31211 35.9107 8.09883 35.9107 7.76367C35.9107 7.41328 35.6452 7.2 35.1924 7.2H34.0837V8.31211ZM42.5471 6.86484C42.5471 8.28164 41.5633 9.22617 40.1267 9.22617C38.6589 9.22617 37.7064 8.29688 37.7064 6.86484C37.7064 5.44805 38.6902 4.50352 40.1267 4.50352C41.5946 4.50352 42.5471 5.43281 42.5471 6.86484ZM38.8619 6.86484C38.8619 7.76367 39.346 8.31211 40.1267 8.31211C40.9075 8.31211 41.3916 7.76367 41.3916 6.86484C41.3916 5.96602 40.9075 5.41758 40.1267 5.41758C39.346 5.41758 38.8619 5.96602 38.8619 6.86484ZM43.562 4.57969H47.0598V5.60039H44.6863V9.15H43.562V4.57969ZM48.9492 5.26523C49.3084 4.77773 49.8549 4.50352 50.5107 4.50352C51.7287 4.50352 52.5251 5.43281 52.5251 6.86484C52.5251 8.28164 51.6975 9.22617 50.5107 9.22617C49.8861 9.22617 49.3708 8.99766 49.0117 8.57109V10.6734H47.8874V4.57969H48.8868L48.9492 5.26523ZM48.9648 6.86484C48.9648 7.74844 49.4177 8.31211 50.1672 8.31211C50.9167 8.31211 51.3852 7.74844 51.3852 6.86484C51.3852 5.98125 50.9167 5.41758 50.1672 5.41758C49.4177 5.41758 48.9648 5.98125 48.9648 6.86484ZM57.1315 7.93125C57.1315 8.11406 57.2252 8.20547 57.4125 8.20547H57.5999V9.15C57.5218 9.16523 57.3969 9.18047 57.1939 9.18047C56.6162 9.18047 56.3195 8.96719 56.2414 8.47969C55.8979 8.93672 55.2889 9.22617 54.6018 9.22617C53.6962 9.22617 53.0716 8.69297 53.0716 7.88555C53.0716 6.72773 54.1959 6.49922 55.0859 6.39258C55.6949 6.31641 56.0853 6.24023 56.0853 5.93555C56.0853 5.61562 55.7417 5.40234 55.1796 5.40234C54.6799 5.40234 54.2115 5.60039 53.8523 5.96602L53.1809 5.28047C53.7274 4.77773 54.4145 4.50352 55.2421 4.50352C56.4288 4.50352 57.1315 5.08242 57.1315 6.02695V7.93125ZM54.1646 7.79414C54.1646 8.14453 54.4145 8.35781 54.8361 8.35781C55.5075 8.35781 56.054 7.91602 56.054 7.38281V6.91055C55.8667 7.01719 55.6012 7.06289 55.2108 7.12383L55.173 7.13033C54.6557 7.2191 54.1646 7.30337 54.1646 7.79414ZM62.8153 4.57969V8.15977H63.4399V10.2164H62.3625V9.15H59.2239V10.2164H58.1465V8.15977H58.7086C58.7867 7.80938 58.8179 7.26094 58.8179 6.48398V4.57969H62.8153ZM59.9109 6.52969C59.9109 7.18477 59.8797 7.74844 59.8016 8.19023H61.7067V5.53945H59.9109V6.52969ZM71.9501 3.36094V8.08359H72.6684V10.3688H71.4973V9.15H67.5935V10.3688H66.4224V8.08359H67.0782C67.1719 7.61133 67.2188 6.91055 67.2188 5.93555V3.36094H71.9501ZM68.3899 5.93555C68.3899 6.72773 68.3274 7.50469 68.2337 8.09883H70.7634V4.41211H68.3899V5.93555ZM78.0399 6.86484C78.0399 8.28164 77.0562 9.22617 75.6196 9.22617C74.1518 9.22617 73.1993 8.29688 73.1993 6.86484C73.1993 5.44805 74.183 4.50352 75.6196 4.50352C77.0874 4.50352 78.0399 5.43281 78.0399 6.86484ZM74.3548 6.86484C74.3548 7.76367 74.8389 8.31211 75.6196 8.31211C76.4004 8.31211 76.8844 7.76367 76.8844 6.86484C76.8844 5.96602 76.4004 5.41758 75.6196 5.41758C74.8389 5.41758 74.3548 5.96602 74.3548 6.86484ZM79.0549 4.57969H83.3334V9.15H82.2092V5.56992H80.1792V9.15H79.0549V4.57969ZM89.1891 6.86484C89.1891 8.28164 88.2053 9.22617 86.7687 9.22617C85.3009 9.22617 84.3484 8.29688 84.3484 6.86484C84.3484 5.44805 85.3322 4.50352 86.7687 4.50352C88.2365 4.50352 89.1891 5.43281 89.1891 6.86484ZM85.5039 6.86484C85.5039 7.76367 85.988 8.31211 86.7687 8.31211C87.5495 8.31211 88.0335 7.76367 88.0335 6.86484C88.0335 5.96602 87.5495 5.41758 86.7687 5.41758C85.988 5.41758 85.5039 5.96602 85.5039 6.86484ZM94.342 4.57969H95.9972V9.15H94.9198V5.79844L93.6706 9.15H92.5463L91.2971 5.79844V9.15H90.204V4.57969H91.8904L93.124 7.90078L94.342 4.57969ZM101.041 7.93125C101.041 8.11406 101.135 8.20547 101.322 8.20547H101.509V9.15C101.431 9.16523 101.306 9.18047 101.103 9.18047C100.526 9.18047 100.229 8.96719 100.151 8.47969C99.8072 8.93672 99.1983 9.22617 98.5112 9.22617C97.6055 9.22617 96.9809 8.69297 96.9809 7.88555C96.9809 6.72773 98.1052 6.49922 98.9953 6.39258C99.6043 6.31641 99.9946 6.24023 99.9946 5.93555C99.9946 5.61562 99.6511 5.40234 99.089 5.40234C98.5893 5.40234 98.1208 5.60039 97.7617 5.96602L97.0902 5.28047C97.6368 4.77773 98.3238 4.50352 99.1514 4.50352C100.338 4.50352 101.041 5.08242 101.041 6.02695V7.93125ZM98.074 7.79414C98.074 8.14453 98.3238 8.35781 98.7454 8.35781C99.4169 8.35781 99.9634 7.91602 99.9634 7.38281V6.91055C99.776 7.01719 99.5106 7.06289 99.1202 7.12383L99.0823 7.13033C98.565 7.2191 98.074 7.30337 98.074 7.79414ZM102.477 4.57969H105.975V5.60039H103.602V9.15H102.477V4.57969ZM110.425 7.93125C110.425 8.11406 110.519 8.20547 110.707 8.20547H110.894V9.15C110.816 9.16523 110.691 9.18047 110.488 9.18047C109.91 9.18047 109.613 8.96719 109.535 8.47969C109.192 8.93672 108.583 9.22617 107.896 9.22617C106.99 9.22617 106.366 8.69297 106.366 7.88555C106.366 6.72773 107.49 6.49922 108.38 6.39258C108.989 6.31641 109.379 6.24023 109.379 5.93555C109.379 5.61562 109.036 5.40234 108.474 5.40234C107.974 5.40234 107.505 5.60039 107.146 5.96602L106.475 5.28047C107.021 4.77773 107.708 4.50352 108.536 4.50352C109.723 4.50352 110.425 5.08242 110.425 6.02695V7.93125ZM107.459 7.79414C107.459 8.14453 107.708 8.35781 108.13 8.35781C108.801 8.35781 109.348 7.91602 109.348 7.38281V6.91055C109.161 7.01719 108.895 7.06289 108.505 7.12383L108.467 7.13033C107.95 7.2191 107.459 7.30337 107.459 7.79414ZM112.596 7.21523C112.705 7.90078 113.158 8.32734 113.83 8.32734C114.376 8.32734 114.782 8.03789 114.985 7.55039L116 7.90078C115.703 8.73867 114.891 9.22617 113.845 9.22617C112.424 9.22617 111.456 8.28164 111.456 6.86484C111.456 5.44805 112.424 4.50352 113.845 4.50352C114.891 4.50352 115.703 4.99102 116 5.82891L114.985 6.1793C114.782 5.6918 114.376 5.40234 113.83 5.40234C113.189 5.40234 112.752 5.79844 112.612 6.42305H114.392V7.21523H112.596Z" fill="black"/>
</svg>
