<svg width="302" height="32" viewBox="0 0 302 32" fill="none" xmlns="http://www.w3.org/2000/svg">
<path fill-rule="evenodd" clip-rule="evenodd" d="M6.40438 0C2.86734 0 0 2.86538 0 6.4V32H3.20219V6.4C3.20219 4.63269 4.63586 3.2 6.40438 3.2C8.17291 3.2 9.60658 4.63269 9.60658 6.4V9.6H12.8088V6.4C12.8088 2.86538 9.94143 0 6.40438 0ZM16.011 0H19.2132V9.6H16.011V0ZM16.011 28.8H19.2132V32H16.011V28.8ZM22.4153 12.8H12.8088L11.2077 22.4H9.60658V25.6H25.6175V22.4H24.0164L22.4153 12.8ZM35.2241 6.4C35.2241 2.86538 32.3568 0 28.8197 0C25.2827 0 22.4153 2.86538 22.4153 6.4V9.6H25.6175V6.4C25.6175 4.63269 27.0512 3.2 28.8197 3.2C30.5883 3.2 32.0219 4.63269 32.0219 6.4V32H35.2241V6.4ZM64.5468 15.0562V8.9625H67.6771V24.4H64.5468V17.9H57.6358V24.4H54.5056V8.9625H57.6358V15.0562H64.5468ZM83.3284 18.3062C83.3284 22.0844 80.7673 24.6031 77.0272 24.6031C73.2059 24.6031 70.7261 22.125 70.7261 18.3062C70.7261 14.5281 73.2872 12.0094 77.0272 12.0094C80.8486 12.0094 83.3284 14.4875 83.3284 18.3062ZM73.7344 18.3062C73.7344 20.7031 74.9946 22.1656 77.0272 22.1656C79.0599 22.1656 80.3201 20.7031 80.3201 18.3062C80.3201 15.9094 79.0599 14.4469 77.0272 14.4469C74.9946 14.4469 73.7344 15.9094 73.7344 18.3062ZM96.0934 15.4219C96.0934 16.7625 95.4023 17.6969 94.3454 18.1437C95.6869 18.5906 96.4186 19.6062 96.4186 21.0687C96.4186 23.2219 94.7519 24.4 91.9875 24.4H85.9709V12.2125H91.5403C94.386 12.2125 96.0934 13.2281 96.0934 15.4219ZM91.6216 14.4062H88.7353V17.1281H91.5403C92.7192 17.1281 93.2477 16.7219 93.2477 15.7469C93.2477 14.8937 92.6786 14.4062 91.6216 14.4062ZM88.7353 22.1656H91.7029C92.8412 22.1656 93.4916 21.5969 93.4916 20.7031C93.4916 19.7687 92.8005 19.2 91.6216 19.2H88.7353V22.1656ZM110.769 18.3062C110.769 22.0844 108.208 24.6031 104.468 24.6031C100.647 24.6031 98.1667 22.125 98.1667 18.3062C98.1667 14.5281 100.728 12.0094 104.468 12.0094C108.289 12.0094 110.769 14.4875 110.769 18.3062ZM101.175 18.3062C101.175 20.7031 102.435 22.1656 104.468 22.1656C106.501 22.1656 107.761 20.7031 107.761 18.3062C107.761 15.9094 106.501 14.4469 104.468 14.4469C102.435 14.4469 101.175 15.9094 101.175 18.3062ZM113.412 12.2125H122.518V14.9344H116.339V24.4H113.412V12.2125ZM127.437 14.0406C128.372 12.7406 129.795 12.0094 131.502 12.0094C134.673 12.0094 136.746 14.4875 136.746 18.3062C136.746 22.0844 134.592 24.6031 131.502 24.6031C129.876 24.6031 128.534 23.9937 127.599 22.8562V28.4625H124.672V12.2125H127.274L127.437 14.0406ZM127.477 18.3062C127.477 20.6625 128.656 22.1656 130.608 22.1656C132.559 22.1656 133.779 20.6625 133.779 18.3062C133.779 15.95 132.559 14.4469 130.608 14.4469C128.656 14.4469 127.477 15.95 127.477 18.3062ZM148.739 21.15C148.739 21.6375 148.983 21.8812 149.471 21.8812H149.958V24.4C149.755 24.4406 149.43 24.4812 148.901 24.4812C147.397 24.4812 146.625 23.9125 146.422 22.6125C145.527 23.8312 143.942 24.6031 142.153 24.6031C139.795 24.6031 138.169 23.1812 138.169 21.0281C138.169 17.9406 141.096 17.3312 143.413 17.0469C144.999 16.8437 146.015 16.6406 146.015 15.8281C146.015 14.975 145.121 14.4062 143.657 14.4062C142.356 14.4062 141.137 14.9344 140.202 15.9094L138.454 14.0812C139.877 12.7406 141.665 12.0094 143.82 12.0094C146.909 12.0094 148.739 13.5531 148.739 16.0719V21.15ZM141.015 20.7844C141.015 21.7187 141.665 22.2875 142.763 22.2875C144.511 22.2875 145.934 21.1094 145.934 19.6875V18.4281C145.446 18.7125 144.755 18.8344 143.739 18.9969L143.64 19.0142C142.293 19.2509 141.015 19.4757 141.015 20.7844ZM163.536 12.2125V21.7594H165.163V27.2437H162.358V24.4H154.186V27.2437H151.381V21.7594H152.845C153.048 20.825 153.129 19.3625 153.129 17.2906V12.2125H163.536ZM155.975 17.4125C155.975 19.1594 155.894 20.6625 155.69 21.8406H160.65V14.7719H155.975V17.4125ZM187.318 8.9625V21.5562H189.188V27.65H186.139V24.4H175.976V27.65H172.927V21.5562H174.635C174.879 20.2969 175.001 18.4281 175.001 15.8281V8.9625H187.318ZM178.05 15.8281C178.05 17.9406 177.887 20.0125 177.643 21.5969H184.229V11.7656H178.05V15.8281ZM203.173 18.3062C203.173 22.0844 200.612 24.6031 196.872 24.6031C193.05 24.6031 190.571 22.125 190.571 18.3062C190.571 14.5281 193.132 12.0094 196.872 12.0094C200.693 12.0094 203.173 14.4875 203.173 18.3062ZM193.579 18.3062C193.579 20.7031 194.839 22.1656 196.872 22.1656C198.904 22.1656 200.165 20.7031 200.165 18.3062C200.165 15.9094 198.904 14.4469 196.872 14.4469C194.839 14.4469 193.579 15.9094 193.579 18.3062ZM205.815 12.2125H216.954V24.4H214.027V14.8531H208.742V24.4H205.815V12.2125ZM232.199 18.3062C232.199 22.0844 229.638 24.6031 225.898 24.6031C222.077 24.6031 219.597 22.125 219.597 18.3062C219.597 14.5281 222.158 12.0094 225.898 12.0094C229.719 12.0094 232.199 14.4875 232.199 18.3062ZM222.605 18.3062C222.605 20.7031 223.865 22.1656 225.898 22.1656C227.931 22.1656 229.191 20.7031 229.191 18.3062C229.191 15.9094 227.931 14.4469 225.898 14.4469C223.865 14.4469 222.605 15.9094 222.605 18.3062ZM245.615 12.2125H249.924V24.4H247.119V15.4625L243.866 24.4H240.939L237.687 15.4625V24.4H234.842V12.2125H239.232L242.444 21.0687L245.615 12.2125ZM263.055 21.15C263.055 21.6375 263.299 21.8812 263.786 21.8812H264.274V24.4C264.071 24.4406 263.746 24.4812 263.217 24.4812C261.713 24.4812 260.941 23.9125 260.737 22.6125C259.843 23.8312 258.258 24.6031 256.469 24.6031C254.111 24.6031 252.485 23.1812 252.485 21.0281C252.485 17.9406 255.412 17.3312 257.729 17.0469C259.315 16.8437 260.331 16.6406 260.331 15.8281C260.331 14.975 259.437 14.4062 257.973 14.4062C256.672 14.4062 255.453 14.9344 254.518 15.9094L252.769 14.0812C254.192 12.7406 255.981 12.0094 258.136 12.0094C261.225 12.0094 263.055 13.5531 263.055 16.0719V21.15ZM255.331 20.7844C255.331 21.7187 255.981 22.2875 257.079 22.2875C258.827 22.2875 260.25 21.1094 260.25 19.6875V18.4281C259.762 18.7125 259.071 18.8344 258.054 18.9969L257.956 19.0142C256.609 19.2509 255.331 19.4757 255.331 20.7844ZM266.795 12.2125H275.901V14.9344H269.722V24.4H266.795V12.2125ZM287.487 21.15C287.487 21.6375 287.731 21.8812 288.219 21.8812H288.707V24.4C288.503 24.4406 288.178 24.4812 287.65 24.4812C286.145 24.4812 285.373 23.9125 285.17 22.6125C284.275 23.8312 282.69 24.6031 280.901 24.6031C278.543 24.6031 276.917 23.1812 276.917 21.0281C276.917 17.9406 279.844 17.3312 282.161 17.0469C283.747 16.8437 284.763 16.6406 284.763 15.8281C284.763 14.975 283.869 14.4062 282.405 14.4062C281.104 14.4062 279.885 14.9344 278.95 15.9094L277.202 14.0812C278.625 12.7406 280.413 12.0094 282.568 12.0094C285.658 12.0094 287.487 13.5531 287.487 16.0719V21.15ZM279.763 20.7844C279.763 21.7187 280.413 22.2875 281.511 22.2875C283.259 22.2875 284.682 21.1094 284.682 19.6875V18.4281C284.194 18.7125 283.503 18.8344 282.487 18.9969L282.388 19.0142C281.041 19.2509 279.763 19.4757 279.763 20.7844ZM293.138 19.2406C293.422 21.0687 294.601 22.2062 296.349 22.2062C297.772 22.2062 298.829 21.4344 299.358 20.1344L302 21.0687C301.228 23.3031 299.114 24.6031 296.39 24.6031C292.691 24.6031 290.17 22.0844 290.17 18.3062C290.17 14.5281 292.691 12.0094 296.39 12.0094C299.114 12.0094 301.228 13.3094 302 15.5437L299.358 16.4781C298.829 15.1781 297.772 14.4062 296.349 14.4062C294.683 14.4062 293.544 15.4625 293.178 17.1281H297.813V19.2406H293.138Z" fill="white"/>
</svg>
