<svg width="312" height="69" viewBox="0 0 312 69" fill="none" xmlns="http://www.w3.org/2000/svg">
<path fill-rule="evenodd" clip-rule="evenodd" d="M254.327 0.180158C254.256 0.363663 254.233 0.715668 254.276 0.962359C254.328 1.26618 254.216 1.40006 253.927 1.3773C253.53 1.34607 253.497 1.85495 253.456 8.64006C253.432 12.6532 253.39 16.4812 253.363 17.1469C253.235 20.2491 253.272 22.5988 253.464 23.6188C253.696 24.8561 253.577 46.9538 253.334 47.5295C253.25 47.7292 253.202 48.0659 253.227 48.2778C253.304 48.9128 252.806 49.9504 252.425 49.9504C252.229 49.9504 251.76 50.077 251.383 50.2314C251.006 50.3861 250.61 50.4936 250.504 50.4704C250.398 50.4472 250.107 50.5365 249.858 50.6689C249.196 51.0211 249.092 50.5413 249.129 47.3075C249.17 43.8756 249.225 43.0951 249.452 42.7295C249.549 42.5734 249.511 42.4455 249.366 42.4455C249.181 42.4455 249.155 40.3321 249.278 35.2433C249.595 22.1323 249.355 5.10189 248.845 4.57025C248.724 4.44388 248.625 3.99601 248.625 3.57525C248.625 2.22826 248.322 0.563632 248.078 0.563632C247.948 0.563632 247.907 0.824609 247.987 1.14344C248.068 1.46228 247.98 2.15539 247.793 2.68387C247.545 3.38013 247.504 4.06985 247.641 5.19074C247.75 6.08357 247.735 6.92121 247.603 7.17298C247.389 7.58405 247.352 9.40337 247.513 11.5788C247.553 12.1114 247.525 12.6501 247.452 12.7757C247.201 13.2062 247.12 30.1952 247.364 31.1883C247.56 31.9903 247.605 31.6451 247.626 29.1767C247.656 25.448 248.084 25.441 248.119 29.1685C248.139 31.189 248.058 31.9651 247.798 32.2544C247.511 32.5745 247.49 33.1606 247.677 35.667C247.802 37.3313 247.89 39.8915 247.874 41.3561C247.857 42.8208 247.923 44.6183 248.019 45.3506L248.193 46.6821L244.204 46.764C242.011 46.809 239.612 46.8877 238.875 46.9392C238.138 46.9906 230.929 47.0813 222.857 47.1407C214.784 47.2 208.058 47.3227 207.911 47.413C207.646 47.5762 191.684 47.5648 188.175 47.399C187.17 47.3515 178.093 47.259 168.005 47.1934C157.917 47.1278 149.565 47.014 149.445 46.9407C149.095 46.7255 138.396 46.7596 138.178 46.9765C138.069 47.085 139.155 47.175 140.591 47.1765C142.028 47.1779 144.465 47.223 146.006 47.2765L148.809 47.3735L146.372 47.5176C145.031 47.597 136.256 47.6488 126.872 47.6328C117.487 47.6171 110.138 47.6866 110.541 47.7873C110.991 47.9003 110.219 47.964 108.53 47.9531C106.908 47.9427 105.787 47.8384 105.787 47.6975C105.787 47.5505 106.486 47.512 107.613 47.5968C108.8 47.6859 109.495 47.6425 109.601 47.4726C109.717 47.2859 107.399 47.2682 101.499 47.4103C96.9535 47.5198 91.4465 47.5827 89.2615 47.5498C86.5832 47.5096 85.1801 47.5791 84.9566 47.7636C84.7316 47.949 84.5744 47.9563 84.4689 47.7868C84.3124 47.5355 76.1241 47.6171 75.8672 47.8725C75.7997 47.9396 75.4316 47.8338 75.0492 47.6372C74.3962 47.3019 74.3625 47.2109 74.4954 46.1338C74.5734 45.5034 74.726 44.6062 74.8347 44.1402C74.9434 43.6741 75.0392 41.0051 75.0477 38.2089C75.064 32.9086 75.3514 23.4307 75.6424 18.5995C75.6907 17.8006 75.6337 14.4302 75.5159 11.1096C75.3102 5.30791 75.3205 5.05419 75.7741 4.60342C76.2842 4.09696 78.8653 3.78345 78.5662 4.26449C78.4643 4.4279 78.7364 4.45599 79.3638 4.34656C82.8494 3.7377 103.925 3.37626 104.322 3.9183C104.459 4.10592 117.293 4.0822 129.675 3.87133C151.023 3.5082 164.225 3.22809 166.603 3.08768C167.408 3.04023 168.175 2.99593 168.309 2.98915C170.176 2.89498 180.13 3.27288 180.85 3.46534C181.382 3.60769 182.234 3.66071 182.742 3.58276C183.25 3.5048 184.05 3.39998 184.519 3.34963C186.293 3.1591 217.513 3.06831 216.816 3.25569C216.337 3.38424 216.685 3.4133 217.823 3.34043C220.551 3.16491 242.473 3.06129 244.238 3.2155C245.109 3.29152 246.151 3.28377 246.553 3.19783C247.235 3.05233 247.243 3.03829 246.675 2.98915L246.066 2.93637L246.675 2.76328C247.223 2.60786 247.187 2.57663 246.309 2.45195C245.773 2.37569 243.965 2.34882 242.293 2.39191C240.132 2.44759 239.199 2.38683 239.072 2.18274C238.936 1.96462 233.722 1.8869 217.495 1.86148C205.726 1.84284 190.911 1.74383 184.572 1.64118C173.891 1.46857 173.059 1.48431 173.203 1.85664C173.369 2.28684 172.948 2.41975 172.697 2.01618C172.511 1.71768 167.944 1.69057 167.944 1.98786C167.944 2.31032 167.09 2.46623 166.654 2.22365C166.415 2.09099 166.209 2.10842 166.109 2.26965C166.005 2.43597 165.83 2.37158 165.622 2.09123C165.315 1.67701 165.288 1.67604 165.132 2.07671C164.999 2.4183 164.668 2.50037 163.423 2.50037C162.573 2.50037 161.811 2.39142 161.728 2.25827C161.554 1.97817 160.631 1.92734 160.631 2.19775C160.631 2.2975 159.781 2.3844 158.742 2.3907C157.703 2.39699 155.263 2.44323 153.319 2.49359C147.306 2.64926 138.474 2.49286 138.309 2.22753C138.225 2.09317 137.976 2.06557 137.755 2.16628C137.534 2.26723 136.421 2.37884 135.281 2.41442C134.142 2.45025 132.99 2.48947 132.722 2.50182C132.454 2.51416 131.686 2.51005 131.016 2.49286C130.345 2.47567 129.029 2.53402 128.091 2.62263C127.152 2.71123 119.693 2.77659 111.516 2.76788C73.8999 2.72745 75.2698 2.71244 74.3918 3.17023L73.5867 3.58978L73.7824 5.76861C74.0615 8.87513 73.9447 29.0063 73.6118 35.1828C73.1277 44.1603 72.9987 48.0819 73.134 49.7083C73.2059 50.5738 73.1786 51.3182 73.0731 51.3625C72.5215 51.5947 73.0421 51.8581 74.3508 52.0089C75.7417 52.1694 75.8396 52.2241 76.1789 53.0308C76.6284 54.0991 76.6377 54.9525 76.2023 55.2038C75.9759 55.3348 75.8109 56.1566 75.6936 57.738C75.5308 59.9326 75.5508 60.095 76.0127 60.3405C76.7174 60.715 77.2812 60.6649 77.8335 60.1788C78.1865 59.8682 78.3434 59.836 78.4214 60.0577C78.6328 60.6576 78.8539 60.3381 78.8904 59.3799C78.9109 58.8419 78.9991 58.1193 79.0864 57.7741L79.2451 57.1461L83.1928 57.3034C85.3642 57.3899 87.5794 57.515 88.1156 57.5814C88.8959 57.6777 88.9812 57.6547 88.5422 57.4654C87.7544 57.1255 87.8502 57.0543 89.1516 57.0115C89.9837 56.9841 90.2065 57.0403 89.9437 57.2107C89.6698 57.3884 89.8034 57.4487 90.4778 57.4516C90.9726 57.4535 91.4389 57.3565 91.514 57.2359C91.5891 57.1153 91.8786 57.0756 92.1575 57.1483C92.5343 57.2461 92.6284 57.4109 92.5246 57.7913C91.9635 59.8459 91.8109 61.1011 92.0888 61.3771C92.3162 61.603 92.3866 61.5628 92.4056 61.1955C92.4244 60.8281 92.4683 60.8576 92.6028 61.3287C92.7205 61.7398 92.6618 62.0191 92.4198 62.1995C92.1633 62.391 92.1421 62.5135 92.3444 62.6375C92.4987 62.7323 92.625 63.027 92.625 63.2925C92.625 63.5581 92.8992 64.1762 93.2344 64.6659C93.5695 65.1559 93.8438 65.6232 93.8438 65.7045C93.8438 65.9776 88.2911 65.9684 88.121 65.6951C88.0325 65.5527 87.8304 65.5159 87.6722 65.6135C87.5138 65.7108 86.9456 65.8624 86.4094 65.9502C85.8731 66.0381 87.5406 66.1236 90.1151 66.1403C94.5158 66.1688 96.0375 66.3693 96.0375 66.9208C96.0375 67.0244 93.4669 67.0711 90.3252 67.0244C86.0591 66.9612 84.6407 67.0111 84.7216 67.221C84.786 67.3875 85.3995 67.5057 86.2292 67.5112C88.538 67.526 97.2884 67.8717 98.5969 67.9995C99.4322 68.0811 99.7028 68.0448 99.4571 67.8841C99.2599 67.755 99.1565 67.5919 99.2272 67.5214C99.2981 67.4512 100.831 67.3444 102.633 67.2846C104.435 67.2248 105.909 67.1551 105.909 67.1297C105.909 66.9513 107.269 66.9736 107.381 67.1539C107.583 67.4778 108.632 67.4345 109.211 67.0784C109.616 66.829 109.744 66.8397 109.939 67.1389C110.104 67.3921 110.23 67.4205 110.358 67.2321C110.63 66.8305 111.506 66.6184 112.03 66.8273C112.405 66.9769 112.332 67.0396 111.637 67.1643C110.98 67.2822 111.157 67.3246 112.415 67.349C114.324 67.3863 114.867 67.7996 113.167 67.9218C112.263 67.9865 117.24 68.1576 119.803 68.1496C135.979 68.1002 150.992 68.1465 151.155 68.2465C151.272 68.3189 151.369 68.2508 151.369 68.0954C151.369 67.9063 151.591 67.87 152.039 67.9857C152.408 68.0811 155.6 68.2022 159.132 68.2549C162.665 68.3077 165.649 68.4084 165.764 68.4789C166.186 68.7379 189.625 68.6152 190.121 68.3515C190.432 68.1862 192.624 68.1167 196.276 68.1567C199.395 68.1908 205.254 68.1283 209.297 68.0182L216.647 67.8175L218.513 68.4753C220.594 69.2085 221.436 69.1843 223.436 68.3329C224.607 67.8342 224.753 67.8318 246.187 67.9652C258.23 68.04 268.101 68.1981 268.533 68.3232C268.959 68.4464 269.37 68.4847 269.447 68.4082C269.524 68.3317 278.987 68.2324 290.477 68.1879C301.967 68.1431 311.462 68.0126 311.577 67.8981C311.694 67.7814 304.042 67.7136 294.228 67.7439C284.571 67.7739 276.718 67.7194 276.778 67.6228C276.909 67.4125 286.797 67.0162 291.769 67.022C293.713 67.0242 299.06 67.1224 303.652 67.2403C309.254 67.3841 312 67.374 312 67.2098C312 67.0537 309.028 66.898 303.773 66.7789C292.058 66.5133 287.651 66.5327 280.237 66.8825C276.643 67.052 273.64 67.1287 273.563 67.0527C273.487 66.9769 273.698 66.7913 274.033 66.6399C274.812 66.287 277.317 62.5513 277.53 61.4243C277.709 60.4768 277.734 60.4615 279.407 60.2632C280.361 60.1504 280.603 60.2001 280.732 60.5346C280.937 61.0653 281.584 61.8129 281.838 61.8129C281.947 61.8129 281.93 61.6163 281.801 61.3762C281.671 61.136 281.64 60.8256 281.731 60.6864C281.872 60.4722 283.777 60.1841 286.163 60.0161C286.892 59.9648 287.997 59.6817 288.875 59.3208L289.516 59.0576L289.555 55.5415C289.577 53.5186 289.697 51.9619 289.836 51.8765C289.988 51.7835 290.007 51.1923 289.887 50.2944C289.71 48.9588 289.714 47.0266 289.917 35.4813C289.966 32.6735 289.88 30.3313 289.68 29.0658C289.105 25.4253 288.393 21.5271 287.966 19.6889C287.477 17.582 287.423 17.0147 287.399 13.7923C287.384 11.8299 287.32 11.4294 287.033 11.5386C286.655 11.6829 285.436 11.2067 285.433 10.9131C285.432 10.8133 285.319 10.7315 285.183 10.7315C285.046 10.7315 284.487 10.4509 283.94 10.1081C282.913 9.46414 280.17 8.44058 278.516 8.08397C277.997 7.97213 277.48 7.73222 277.367 7.55089C277.254 7.36956 277.075 7.21293 276.97 7.203C274.244 6.94566 272.094 6.21939 271.123 5.22729C270.827 4.92589 270.334 4.67653 270.026 4.67338C269.025 4.66322 265.863 3.72414 265.385 3.2954C265.13 3.06589 264.682 2.8635 264.39 2.84559C263.51 2.79209 261.945 2.29483 261.35 1.87965C261.042 1.66467 260.612 1.55669 260.394 1.63973C260.177 1.72253 259.917 1.66031 259.818 1.5015C259.526 1.03135 257.506 0.364148 257.085 0.598493C256.845 0.731886 256.306 0.634082 255.584 0.326383C254.663 -0.0653217 254.432 -0.0921959 254.327 0.180158ZM255.707 1.42693C256.191 2.0065 257.268 2.48681 258.043 2.46914C258.808 2.45171 262.324 3.42128 262.519 3.70356C262.586 3.8004 263.287 3.9534 264.076 4.04346C265.592 4.21631 267.767 5.32098 269.234 6.66241C269.97 7.3364 270.752 7.601 270.417 7.06259C270.298 6.87109 270.351 6.85027 270.586 6.99674C271.271 7.42379 273.398 8.09245 274.706 8.29241C278.252 8.83373 283.817 10.7835 284.13 11.5943C284.208 11.7948 284.744 12.2821 285.322 12.6772C286.464 13.457 286.484 13.5255 286.429 16.4207C286.41 17.3997 286.258 18.0705 285.962 18.4784C285.624 18.9445 285.567 19.2785 285.716 19.931C285.901 20.7413 286.263 23.8751 286.499 26.7096C286.727 29.4459 287.206 32.6488 287.422 32.881C287.567 33.0369 287.723 32.9952 287.869 32.7619C288.26 32.1327 288.71 32.8316 288.347 33.5051C288.127 33.9135 288.092 35.0605 288.214 37.8889L288.38 41.7193H287.521C286.113 41.7193 285.776 42.4952 285.893 45.4632C285.946 46.7993 286.001 48.6552 286.015 49.5872L286.041 51.2819L284.187 51.4971C281.484 51.8109 280.606 51.5893 280.158 50.4806C279.96 49.9894 279.516 48.9128 279.172 48.0884L278.545 46.5894L275.224 46.6933C265.486 46.9978 255.45 47.0182 255.43 46.7332C255.419 46.572 255.371 44.0978 255.322 41.2351C255.274 38.3723 255.167 35.3046 255.086 34.418C254.988 33.356 255.029 32.7498 255.206 32.6413C255.387 32.5299 255.394 32.3818 255.229 32.1833C254.976 31.8806 254.945 30.547 254.981 21.567C254.994 18.4111 255.098 16.2449 255.242 16.157C255.373 16.0762 256.571 15.9505 257.903 15.8776L260.325 15.745L260.368 17.2329C260.391 18.0511 260.436 19.0202 260.467 19.3863C260.526 20.0796 260.76 25.3032 260.947 30.0988C261.006 31.6301 261.124 35.4975 261.207 38.6931C261.357 44.4128 261.502 45.5927 262.055 45.5927C262.261 45.5927 262.259 45.5017 262.046 45.247C261.821 44.9781 261.837 44.7481 262.117 44.2106C262.375 43.7134 262.407 43.3969 262.228 43.0805C262.092 42.8389 261.987 41.535 261.993 40.1829C262.051 28.9167 261.99 22.6318 261.816 21.7827C261.518 20.3391 261.494 16.1168 261.781 15.9403C261.914 15.8588 263.917 15.7397 266.232 15.6753C268.546 15.6109 271.037 15.4528 271.765 15.3237C272.493 15.1947 274.797 15.0814 276.884 15.0722C280.842 15.0543 282.43 14.8262 280.761 14.5154C279.572 14.2936 265.484 14.666 262.739 14.9916L261.619 15.1243L261.398 11.4149C261.27 9.24916 261.077 7.70534 260.934 7.70534C260.792 7.70534 260.64 8.9158 260.569 10.6104C260.497 12.3278 260.377 13.2681 260.277 12.9103C260.184 12.5774 260.156 12.9205 260.215 13.6727L260.324 15.0402L258.679 15.1831C254.828 15.5176 255.113 15.5709 254.924 14.4827C254.831 13.9508 254.8 12.2083 254.854 10.6104C254.908 9.01264 254.955 6.20752 254.957 4.37658C254.96 2.54588 255.059 1.04781 255.177 1.04781C255.294 1.04781 255.533 1.21849 255.707 1.42693ZM166.923 1.93944C167.099 2.0094 167.309 2.00069 167.39 1.92032C167.471 1.83994 167.327 1.78281 167.07 1.79322C166.786 1.80484 166.729 1.86221 166.923 1.93944ZM178.547 2.04766C177.402 2.27934 173.808 2.23503 173.654 1.98737C173.596 1.89369 174.892 1.82445 176.535 1.83365C178.745 1.84599 179.268 1.90168 178.547 2.04766ZM193.75 2.14594C193.817 2.213 190.726 2.26021 186.88 2.25077C181.955 2.23866 179.887 2.15466 179.887 1.96655C179.887 1.77433 181.813 1.74504 186.757 1.86173C190.535 1.95106 193.682 2.07888 193.75 2.14594ZM162.764 2.1871C163.066 2.24472 163.559 2.24472 163.861 2.1871C164.162 2.12924 163.916 2.08203 163.312 2.08203C162.709 2.08203 162.463 2.12924 162.764 2.1871ZM170.079 2.1825C169.846 2.24302 169.408 2.2452 169.104 2.18734C168.801 2.12948 168.992 2.07985 169.528 2.07719C170.064 2.07453 170.313 2.12198 170.079 2.1825ZM171.909 2.175C171.744 2.24133 171.415 2.24544 171.178 2.18395C170.941 2.12246 171.076 2.06824 171.478 2.06339C171.88 2.05855 172.074 2.10866 171.909 2.175ZM231.928 2.3798C231.794 2.4258 229.765 2.50303 227.419 2.55145C225.073 2.59987 223.592 2.56936 224.128 2.48318C225.122 2.32388 232.372 2.22801 231.928 2.3798ZM183.219 2.90321C183.037 3.08429 181.092 3.05113 180.903 2.86375C180.836 2.79693 181.366 2.74246 182.081 2.74246C182.796 2.74246 183.309 2.81485 183.219 2.90321ZM122.119 3.46873C121.784 3.57525 119.864 3.65514 117.853 3.64595C115.383 3.63481 114.671 3.5801 115.659 3.47745C117.872 3.24746 122.835 3.24093 122.119 3.46873ZM111.698 3.63965C111.397 3.69727 110.903 3.69727 110.602 3.63965C110.3 3.58179 110.547 3.53458 111.15 3.53458C111.753 3.53458 112 3.58179 111.698 3.63965ZM113.66 3.736C113.467 3.9275 113.263 3.92944 112.941 3.74327C112.546 3.51546 112.579 3.48253 113.21 3.476C113.734 3.47067 113.856 3.54112 113.66 3.736ZM214.134 3.71083C213.954 4.00109 214.673 4.00109 215.353 3.71083C215.764 3.53555 215.719 3.50021 215.063 3.48568C214.635 3.47648 214.217 3.57768 214.134 3.71083ZM74.959 4.45526C75.0472 4.73173 75.0487 5.02805 74.9621 5.11399C74.7793 5.29556 74.353 4.69977 74.3474 4.25553C74.3413 3.76481 74.7847 3.90958 74.959 4.45526ZM89.5974 5.13239C89.4601 5.35318 126.483 5.26699 126.706 5.04596C126.775 4.97745 118.483 4.92129 108.28 4.92129C97.9933 4.92129 89.6703 5.01522 89.5974 5.13239ZM270.441 5.40547C270.523 5.53862 270.482 5.64756 270.348 5.64756C270.213 5.64756 270.036 5.53862 269.953 5.40547C269.87 5.27232 269.912 5.16338 270.046 5.16338C270.18 5.16338 270.358 5.27232 270.441 5.40547ZM269.466 5.64756C269.548 5.78071 269.507 5.88965 269.373 5.88965C269.238 5.88965 269.061 5.78071 268.978 5.64756C268.895 5.51441 268.937 5.40547 269.071 5.40547C269.205 5.40547 269.383 5.51441 269.466 5.64756ZM271.781 6.51861C272.522 6.90741 272.215 6.9413 270.998 6.60552C269.915 6.30702 269.446 5.78846 270.481 6.03443C270.861 6.12473 271.446 6.34261 271.781 6.51861ZM277.997 8.31057L278.484 8.51853L277.997 8.53185C277.729 8.53935 277.345 8.43961 277.144 8.31057C276.819 8.10189 276.819 8.07744 277.144 8.0893C277.345 8.09656 277.729 8.19606 277.997 8.31057ZM48.7166 11.0656C48.379 11.4251 47.9403 11.5207 46.6303 11.5202C45.7182 11.5197 45.2461 11.5694 45.5812 11.6301C45.9164 11.6911 46.2949 11.8405 46.4222 11.9625C46.5494 12.0843 46.906 12.184 47.2144 12.184C47.7163 12.184 47.775 12.2981 47.775 13.2735C47.775 13.8726 47.7699 14.4447 47.7638 14.5444C47.7577 14.6442 47.4835 14.6909 47.1544 14.6481C46.7398 14.5943 46.5563 14.687 46.5563 14.9507C46.5563 15.1601 46.4514 15.3312 46.3235 15.3312C45.9888 15.3312 45.8569 16.4412 45.7175 20.4394C45.6495 22.3834 45.5245 24.1536 45.4396 24.3734C45.2268 24.9244 44.4761 24.8738 43.9101 24.2705C43.651 23.994 43.3856 23.858 43.32 23.9679C42.9551 24.5806 42.774 26.2341 42.7413 29.2515C42.7211 31.1156 42.6633 33.8392 42.6129 35.3038C42.5624 36.7685 42.4966 39.5806 42.4666 41.5529L42.4125 45.1393L41.6698 45.0633C40.9917 44.994 40.8559 44.8188 40.11 43.0508C39.6606 41.9856 38.8957 40.188 38.4101 39.0562C37.9243 37.9245 37.195 36.0725 36.7892 34.9407C36.3833 33.8089 35.9431 32.6878 35.811 32.4493C35.6791 32.2109 35.6389 31.9068 35.7218 31.7736C35.8047 31.6402 35.6394 30.7687 35.3545 29.8369C34.9306 28.4509 34.7161 28.0955 34.1759 27.8842C33.8069 27.7399 31.2831 27.5951 28.4527 27.5564C25.5204 27.516 23.2637 27.3838 23.0902 27.2424C22.9254 27.1083 22.297 27.0231 21.6938 27.0531C21.0905 27.0833 19.8015 27.1274 18.8297 27.1509C17.512 27.1828 17.0625 27.2785 17.0625 27.5273C17.0625 27.7106 16.9148 27.9825 16.7344 28.1311C16.5053 28.3202 16.3568 29.4038 16.2418 31.7315C16.1511 33.5632 16.0351 35.3885 15.9841 35.788C15.874 36.6482 15.5517 42.1904 15.4915 44.2612L15.4491 45.7138L14.1229 45.906C13.3936 46.0115 11.7207 46.0873 10.4052 46.0742C6.64974 46.037 3.53949 46.8879 3.31476 48.0139C3.27503 48.2136 3.18069 48.5402 3.10537 48.7399C2.43701 50.5111 1.91344 59.2 2.31538 61.8516C2.4453 62.7093 2.60739 63.011 2.99179 63.1107C3.60043 63.2688 3.9 63.1156 3.9 62.6459C3.9 61.9494 4.3173 62.3208 4.64587 63.3097C5.11071 64.7081 6.81549 66.4371 8.23412 66.9481L9.38437 67.3628L5.72813 67.2766C3.71719 67.2292 1.68797 67.1118 1.21875 67.0154C0.545025 66.8772 0.425831 66.9036 0.6513 67.1404C1.01985 67.527 0.7956 68.1167 0.345394 67.9451C0.13065 67.8632 0 67.9695 0 68.2261C0 68.5932 0.169406 68.6161 1.52344 68.4336C3.47709 68.1702 13.8645 68.1964 17.6719 68.474C20.6156 68.6888 22.3463 68.7091 27.0562 68.5842C28.4639 68.5467 34.1677 68.6021 39.7313 68.7072C45.2948 68.8122 49.7779 68.8243 49.6938 68.734C49.6097 68.6438 47.3336 68.5699 44.636 68.5699C41.6808 68.5699 39.7313 68.4779 39.7313 68.3387C39.7313 68.2114 40.1427 68.1056 40.6453 68.1036C41.1482 68.1015 41.7239 67.9845 41.925 67.8434C42.2002 67.6504 42.0795 67.6204 41.4375 67.7221C40.9683 67.7964 40.4384 67.7654 40.2599 67.6534C39.9189 67.4389 43.5681 66.8825 45.1103 66.9138C45.7994 66.9278 45.8611 66.9675 45.4594 67.1389C45.1912 67.2534 44.5122 67.3546 43.9503 67.364C43.3885 67.3732 42.8505 67.5069 42.7547 67.6609C42.6263 67.8674 42.9583 67.8974 44.02 67.7751C48.8302 67.2224 50.6171 67.1408 57.8604 67.1447C62.2679 67.1471 66.0463 67.2449 66.2571 67.3619C66.4816 67.4868 66.8945 67.4786 67.2555 67.3423C67.6343 67.1994 70.9936 67.1682 75.9825 67.2616C81.6638 67.3682 84.0938 67.3362 84.0938 67.1551C84.0938 66.9791 82.1915 66.8968 78.1219 66.8968C71.9908 66.8968 69.7907 66.5831 75.1359 66.471C79.7599 66.3741 83.2043 66.1366 83.6062 65.887C83.8515 65.7348 83.6109 65.7016 82.875 65.7861C82.2717 65.8553 78.4875 65.9752 74.4656 66.0521C70.4437 66.1291 66.5498 66.2376 65.8125 66.2933C64.3958 66.3998 57.4158 66.4807 56.7938 66.3976C56.5927 66.3707 56.812 66.2652 57.2812 66.163C57.7505 66.0609 56.7084 66.0364 54.9656 66.109C53.0702 66.1882 51.725 66.3487 51.6177 66.5085C51.4893 66.7002 51.4376 66.6971 51.4349 66.4974C51.4327 66.3197 51.1002 66.2545 50.5172 66.3177C49.2782 66.4521 41.9026 66.4712 41.7712 66.3405C41.7134 66.2831 41.943 66.0558 42.2819 65.8355C43.309 65.1668 43.7085 63.7782 43.9608 59.9972C44.0005 59.4002 44.1166 59.2702 44.6123 59.2663C45.1101 59.2627 45.222 59.1353 45.2519 58.54C45.2717 58.143 45.3511 56.62 45.4282 55.1553C45.5054 53.6907 45.6358 49.0607 45.718 44.8664C45.8379 38.7575 45.9354 37.1875 46.2084 36.9743C46.4051 36.8205 48.3485 36.6365 50.809 36.5387C53.1516 36.4453 55.2983 36.3252 55.5789 36.2715C55.8595 36.2177 57.6766 36.0466 59.6169 35.8911C63.7845 35.557 67.462 35.6679 67.7535 36.1366C68.0652 36.6377 68.4411 36.2289 68.3075 35.5343C68.241 35.1886 68.3041 34.6686 68.4479 34.3785C68.9247 33.4179 69.4217 15.5661 69.0473 12.8558C68.8911 11.7241 68.9023 11.1992 69.0846 11.1339C70.1734 10.7436 67.6206 10.6104 59.0419 10.6104C49.6687 10.6104 49.1215 10.6347 48.7166 11.0656ZM67.3457 11.3667C67.4295 11.4498 67.2891 11.9238 67.0342 12.4203C66.5884 13.2885 66.5052 13.3316 64.8509 13.554C63.8754 13.685 63.1312 13.693 63.1312 13.5722C63.1312 13.3613 57.4643 13.5262 55.8356 13.7845C55.2155 13.8828 55.0895 13.9736 55.3481 14.1363C55.595 14.2915 55.4475 14.3554 54.8438 14.3554C54.1866 14.3554 54.0747 14.2985 54.3563 14.108C54.6151 13.9329 54.0594 13.8775 52.455 13.9189C50.2096 13.9767 50.1823 13.9704 49.5997 13.2621C48.6454 12.1027 48.7851 11.9429 50.7609 11.934C54.9963 11.9153 60.5906 11.6374 60.8034 11.4355C61.0608 11.1912 67.1051 11.1276 67.3457 11.3667ZM68.0504 13.7572C68.0077 15.0223 67.898 16.0578 67.8066 16.0582C67.7155 16.0587 67.6292 19.2996 67.6153 23.2605C67.5907 30.3213 67.4259 33.246 67.0529 33.246C66.9498 33.246 66.7329 32.9563 66.5703 32.6023C66.3344 32.0879 66.3388 31.9174 66.5923 31.755C66.8494 31.5899 66.8448 31.51 66.5674 31.3328C66.2851 31.1522 66.2354 29.9374 66.2825 24.3726C66.3636 14.7684 66.3466 14.9732 67.2238 13.0919C67.6431 12.193 68.018 11.4575 68.057 11.4573C68.0962 11.457 68.0933 12.492 68.0504 13.7572ZM245.03 11.8667C245.264 11.9277 245.648 11.9277 245.883 11.8667C246.117 11.8059 245.925 11.756 245.456 11.756C244.987 11.756 244.795 11.8059 245.03 11.8667ZM49.1588 13.455C49.3906 13.8876 49.5532 14.3781 49.52 14.5444C49.4869 14.711 49.5809 14.8471 49.7287 14.8471C49.8766 14.8471 49.9288 14.9577 49.8447 15.0928C49.7606 15.2279 49.6619 17.9788 49.6255 21.2056C49.522 30.3746 49.4118 31.9726 48.7892 33.3409C48.4928 33.9922 48.2047 34.4797 48.1492 34.4245C47.9897 34.2662 48.0197 32.2559 48.2496 27.6779C48.3668 25.3478 48.4792 21.0175 48.4994 18.0548C48.5199 15.0921 48.5816 12.6682 48.6369 12.6682C48.6922 12.6682 48.9272 13.0224 49.1588 13.455ZM57.0375 14.1208C57.0375 14.2539 56.8457 14.3612 56.6109 14.3592C56.2463 14.3561 56.2375 14.3212 56.55 14.1208C57.01 13.8254 57.0375 13.8254 57.0375 14.1208ZM65.9473 14.5444C65.8583 14.9105 65.6828 15.5915 65.5575 16.0575C65.3404 16.8654 63.3572 19.3868 60.2265 22.8361C59.4409 23.7016 58.4849 24.791 58.1022 25.257C57.2966 26.2377 57.5655 25.9429 54.6056 29.093L52.2953 31.5514H51.0812H49.8671L50.7102 30.7467C51.6694 29.8311 52.65 28.5378 52.65 28.1883C52.65 28.0587 52.8418 27.883 53.0766 27.7978C53.3113 27.7125 54.2709 26.7413 55.2094 25.6395C56.1478 24.5375 57.7931 22.6569 58.8656 21.46C59.9381 20.2631 61.0267 19.0207 61.2848 18.6995C62.4366 17.2651 65.6597 13.8787 65.8732 13.8787C66.0073 13.8787 66.0392 14.1658 65.9473 14.5444ZM64.0877 14.7708C63.7628 15.1281 63.113 15.8091 62.6437 16.2839C61.6344 17.305 60.422 18.674 59.1976 20.1753C58.7096 20.7732 57.1328 22.4608 55.693 23.9255C54.2534 25.3902 52.5245 27.2148 51.8512 27.9805C51.1777 28.7463 50.5304 29.3726 50.4121 29.3726C50.2903 29.3726 50.2695 27.4642 50.3644 24.9544C50.4558 22.5243 50.5062 19.4437 50.476 18.108C50.4014 14.8069 50.4389 14.7742 54.2902 14.8011C55.8682 14.8122 58.5305 14.6793 60.2062 14.5062C61.882 14.3329 63.5739 14.1752 63.9659 14.1559L64.6788 14.1208L64.0877 14.7708ZM265.238 17.8098C265.274 18.3078 265.184 18.8336 265.038 18.9786C264.86 19.1548 264.845 19.5369 264.99 20.1312C265.11 20.6202 265.205 22.3304 265.201 23.9313C265.198 25.5323 265.355 28.4245 265.551 30.3581C265.747 32.292 265.927 35.8028 265.952 38.1598C265.977 40.517 266.085 42.4455 266.193 42.4455C266.301 42.4455 266.408 41.0022 266.429 39.2378C266.451 37.4734 266.477 35.8667 266.487 35.667C266.496 35.4672 266.419 33.9147 266.315 32.2171C266.211 30.5196 266.212 29.1305 266.318 29.1305C266.423 29.1305 266.736 29.3375 267.013 29.5902C267.555 30.0863 269.543 30.8251 270.335 30.8251C270.602 30.8251 270.884 30.9878 270.961 31.1868C271.038 31.3858 271.18 31.5001 271.277 31.4408C271.373 31.3814 272.478 31.8242 273.732 32.4246C276.792 33.8902 278.046 34.1856 280.312 33.9728C281.318 33.8784 281.955 33.7852 281.728 33.7658C281.502 33.7462 281.247 33.6186 281.162 33.4823C281.06 33.3192 281.359 33.2903 282.038 33.3983C282.787 33.5172 283.021 33.4857 282.895 33.2828C282.787 33.1088 281.965 33.0039 280.71 33.0039C278.186 33.0039 277.895 32.8103 277.708 31.0077C277.624 30.2012 277.465 29.688 277.326 29.7735C277.195 29.8538 277.139 30.4501 277.202 31.0987C277.299 32.0983 277.252 32.2777 276.895 32.2777C276.621 32.2777 276.406 32.0012 276.281 31.4909L276.088 30.7041L275.989 31.389C275.912 31.917 275.795 32.0358 275.48 31.9087C275.256 31.8182 274.773 31.6366 274.409 31.5054C273.744 31.2665 273.654 31.0428 273.406 29.0094C273.35 28.5553 273.303 28.7218 273.28 29.4532C273.255 30.2693 273.152 30.5932 272.939 30.5237C272.772 30.469 272.599 30.1858 272.556 29.8948C272.453 29.1997 272.025 29.4735 272.025 30.2342C272.025 30.8675 271.688 31.0173 271.375 30.5225C271.27 30.3562 271.181 27.4356 271.178 24.0325L271.172 17.8454L277.416 17.7848C283.638 17.7248 283.661 17.7265 283.799 18.2484C283.875 18.5368 283.839 19.0292 283.718 19.3432C283.584 19.694 283.59 19.9692 283.734 20.0578C284.439 20.4902 283.498 22.4667 282.706 22.2171C281.664 21.8885 281.531 22.3991 281.531 26.7248C281.531 30.4092 281.698 31.5364 282.138 30.829C282.442 30.3414 282.786 30.6026 283.269 31.6867C283.633 32.5047 283.692 32.8735 283.494 33.1102C283.288 33.3567 283.355 33.454 283.79 33.5366C284.636 33.6973 285.025 33.5138 284.689 33.1122C284.538 32.9311 284.495 32.6534 284.593 32.4951C284.692 32.3365 284.75 31.4163 284.721 30.4501C284.691 29.4157 284.776 28.6281 284.929 28.5347C285.09 28.4354 285.188 28.6591 285.188 29.13C285.188 30.2763 285.722 33.246 285.928 33.246C286.256 33.246 286.397 32.5275 286.181 31.9637C286.065 31.6601 285.897 30.5443 285.807 29.4842C285.718 28.4243 285.544 27.0122 285.421 26.3464C285.297 25.6807 285.175 23.5292 285.148 21.5651C285.121 19.601 285.009 17.9943 284.9 17.9943C284.79 17.9943 284.7 18.1097 284.7 18.2506C284.7 18.3915 284.59 18.4397 284.456 18.3574C284.322 18.2751 284.212 18.0049 284.212 17.757C284.212 17.0605 282.746 16.8632 279.459 17.1181C277.801 17.2464 274.956 17.267 269.953 17.1861C268.612 17.1646 267.269 17.236 266.967 17.3447C266.558 17.4926 266.419 17.4529 266.419 17.1888C266.419 16.9615 266.196 16.8475 265.795 16.87C265.231 16.9014 265.178 16.991 265.238 17.8098ZM270.475 19.2158C270.494 19.9421 270.58 21.4896 270.667 22.6545C270.77 24.0548 270.738 24.7728 270.571 24.7728C270.432 24.7728 270.317 24.2555 270.315 23.6229C270.313 22.9903 270.228 22.3425 270.126 22.1829C269.879 21.797 270.054 28.3049 270.317 29.312C270.55 30.2017 270.556 30.1959 269.744 29.8284C269.156 29.5621 269.147 29.5127 269.135 26.3786C269.12 22.6349 268.835 19.2035 268.627 20.2619C268.552 20.6437 268.545 22.2778 268.612 23.8933C268.765 27.5608 268.658 29.1283 268.245 29.2859C267.836 29.4413 265.868 28.2173 266.052 27.922C266.128 27.7995 266.363 27.7646 266.573 27.8447C266.91 27.9733 266.944 27.6687 266.858 25.2962C266.795 23.5546 266.851 22.5642 267.016 22.4955C267.177 22.4284 267.151 22.3047 266.947 22.1621C266.5 21.85 267.073 19.8499 267.557 20.0344C267.735 20.1024 267.881 20.0523 267.881 19.9235C267.881 19.7944 267.717 19.6889 267.516 19.6889C267.315 19.6889 267.141 19.5528 267.131 19.3863C267.115 19.1442 267.087 19.1442 266.989 19.3863C266.766 19.9349 266.419 19.7015 266.419 19.003C266.419 18.5126 266.54 18.316 266.845 18.3133C267.08 18.3111 267.361 18.4293 267.471 18.5755C267.58 18.722 267.597 18.5866 267.508 18.2748C267.349 17.7171 267.371 17.7098 268.894 17.8018L270.441 17.8955L270.475 19.2158ZM268.369 18.5995C268.369 18.7992 268.475 18.9626 268.605 18.9626C268.735 18.9626 268.778 18.7992 268.701 18.5995C268.623 18.3998 268.517 18.2363 268.465 18.2363C268.412 18.2363 268.369 18.3998 268.369 18.5995ZM275.485 18.8416C275.49 19.241 275.544 19.3751 275.606 19.1396C275.668 18.904 275.664 18.5772 275.597 18.4133C275.531 18.2494 275.48 18.4421 275.485 18.8416ZM278.138 18.6196C278.15 18.9016 278.207 18.959 278.285 18.766C278.356 18.5912 278.347 18.3823 278.266 18.3019C278.185 18.2216 278.128 18.3644 278.138 18.6196ZM74.9977 19.4923C74.92 19.6853 74.8622 19.6279 74.8505 19.3458C74.84 19.0907 74.8975 18.9478 74.9785 19.0282C75.0594 19.1086 75.0682 19.3175 74.9977 19.4923ZM276.656 19.5821C276.656 19.9228 276.756 20.1406 276.877 20.0661C276.998 19.9915 277.041 19.7126 276.97 19.4466C276.795 18.7803 276.656 18.8404 276.656 19.5821ZM65.5687 24.3898C65.5687 27.2417 65.6224 29.7202 65.688 29.8974C65.9336 30.561 65.4035 30.859 63.8991 30.9026C63.0752 30.9266 62.401 31.0014 62.4007 31.0689C62.4002 31.1367 61.8791 31.2185 61.2422 31.251C56.3343 31.5013 54.1125 31.5594 54.1125 31.4376C54.1125 30.9522 57.2164 27.4494 60.8515 23.8325C63.1778 21.5179 65.0813 19.5298 65.0813 19.4144C65.0813 19.2991 65.1909 19.2047 65.325 19.2047C65.48 19.2047 65.5687 21.0945 65.5687 24.3898ZM272.513 19.5536C272.513 19.7455 272.622 19.9697 272.756 20.052C272.89 20.1343 273 19.9772 273 19.7032C273 19.4291 272.89 19.2047 272.756 19.2047C272.622 19.2047 272.513 19.3616 272.513 19.5536ZM241.267 19.8542C241.443 19.9242 241.653 19.9155 241.734 19.8351C241.815 19.7547 241.671 19.6976 241.414 19.708C241.13 19.7196 241.072 19.777 241.267 19.8542ZM243.202 19.8661C243.771 19.9172 244.704 19.9172 245.273 19.8661C245.843 19.8153 245.377 19.7734 244.238 19.7734C243.098 19.7734 242.632 19.8153 243.202 19.8661ZM269.681 20.0373C269.607 20.229 269.662 20.5829 269.803 20.8241C270.022 21.1966 270.061 21.1444 270.068 20.4757C270.075 19.6458 269.907 19.4541 269.681 20.0373ZM74.9699 21.0465C74.8444 22.3209 74.5858 22.7845 74.5909 21.7266C74.5943 20.9775 74.8235 19.931 74.9841 19.931C75.0367 19.931 75.0306 20.4328 74.9699 21.0465ZM261.218 20.9599C261.15 21.1264 261.095 20.9901 261.095 20.6573C261.095 20.3244 261.15 20.1883 261.218 20.3546C261.285 20.5212 261.285 20.7936 261.218 20.9599ZM276.816 21.9282C276.971 23.4663 277.048 23.7386 277.266 23.5215C277.465 23.3241 277.093 20.4152 276.869 20.4152C276.756 20.4152 276.732 21.0962 276.816 21.9282ZM267.591 21.5046C267.646 21.9706 267.734 22.3519 267.786 22.3519C267.838 22.3519 267.881 21.9706 267.881 21.5046C267.881 21.0386 267.794 20.6573 267.686 20.6573C267.579 20.6573 267.536 21.0386 267.591 21.5046ZM272.961 21.7452C272.802 21.9028 272.927 24.055 273.106 24.232C273.182 24.3075 273.244 23.7519 273.244 22.9976C273.244 21.6583 273.208 21.4997 272.961 21.7452ZM247.965 23.8674C248.03 24.9006 247.986 25.8058 247.866 25.8789C247.747 25.9525 247.65 25.0689 247.65 23.8994C247.65 22.7376 247.694 21.8324 247.748 21.8878C247.803 21.9435 247.9 22.8342 247.965 23.8674ZM275.672 22.493C275.548 25.6158 275.606 27.9326 275.81 28.0103C276.065 28.1074 276.06 22.6473 275.805 22.394C275.737 22.3265 275.677 22.371 275.672 22.493ZM267.609 25.1965C267.576 28.2766 267.608 28.6937 267.902 28.9973C268.209 29.3135 268.217 29.1818 268.16 25.0754C268.113 21.6973 267.646 21.7997 267.609 25.1965ZM278.606 23.643C278.606 24.2644 278.717 24.7728 278.853 24.7728C279.005 24.7728 279.039 24.3804 278.941 23.7439C278.724 22.334 278.606 22.2986 278.606 23.643ZM75.075 22.9429C75.075 23.0017 74.9653 23.1169 74.8313 23.1992C74.6972 23.2815 74.5875 23.2334 74.5875 23.0925C74.5875 22.9516 74.6972 22.8361 74.8313 22.8361C74.9653 22.8361 75.075 22.884 75.075 22.9429ZM280.049 23.4413C279.84 23.7982 279.915 32.206 280.13 32.4188C280.23 32.5188 280.351 32.5551 280.398 32.4997C280.445 32.4442 280.417 30.3288 280.337 27.799C280.256 25.2691 280.127 23.3082 280.049 23.4413ZM284.427 25.9228C284.353 28.7155 284.056 30.1899 283.951 28.2832C283.785 25.271 283.927 23.5624 284.343 23.5624C284.423 23.5624 284.461 24.6244 284.427 25.9228ZM287.304 24.0921C287.226 24.285 287.168 24.2276 287.157 23.9456C287.146 23.6904 287.204 23.5476 287.285 23.628C287.366 23.7083 287.374 23.9173 287.304 24.0921ZM74.7598 25.3146C74.7016 25.6158 74.6516 25.4265 74.6489 24.8939C74.6462 24.3613 74.694 24.1148 74.755 24.3463C74.8159 24.5777 74.8181 25.0135 74.7598 25.3146ZM276.9 24.7585C276.9 25.1502 277.01 25.5378 277.144 25.6201C277.289 25.7092 277.388 25.4209 277.388 24.9082C277.388 24.4344 277.278 24.0465 277.144 24.0465C277.01 24.0465 276.9 24.3668 276.9 24.7585ZM271.903 25.257C271.986 25.3902 272.102 25.4991 272.161 25.4991C272.22 25.4991 272.269 25.3902 272.269 25.257C272.269 25.1239 272.152 25.0149 272.011 25.0149C271.869 25.0149 271.82 25.1239 271.903 25.257ZM278.65 25.7748C278.708 26.3723 278.856 26.5999 279.216 26.6427C279.484 26.6747 279.566 26.6393 279.398 26.5641C279.231 26.4888 279.094 26.1702 279.094 25.8564C279.094 25.5424 278.976 25.2134 278.833 25.1253C278.662 25.0205 278.599 25.2451 278.65 25.7748ZM44.9175 26.8536C44.8878 27.6399 44.7559 29.3726 44.6248 30.7041C44.4936 32.0356 44.3808 33.2494 44.3744 33.4017C44.3679 33.554 44.2038 33.7389 44.0095 33.813C43.738 33.9164 43.6754 33.769 43.7378 33.1729C43.7821 32.7471 43.9006 32.2009 44.001 31.9591C44.1012 31.7172 44.1309 30.1681 44.0668 28.5168C43.9528 25.5778 44.0361 25.1807 44.7281 25.3609C44.8639 25.3962 44.9477 26.0576 44.9175 26.8536ZM271.981 26.1043C271.762 26.7936 271.793 29.1305 272.022 29.1305C272.297 29.1305 272.412 27.9776 272.263 26.7096C272.173 25.9385 272.091 25.7615 271.981 26.1043ZM45.8845 27.1332C45.7151 28.6998 45.5812 28.7443 45.5812 27.2342C45.5812 26.5461 45.6775 25.9833 45.795 25.9833C45.9128 25.9833 45.953 26.5006 45.8845 27.1332ZM273.123 26.2234C273.041 26.3556 273.086 26.6551 273.223 26.8892C273.437 27.2543 273.474 27.2201 273.48 26.649C273.488 25.9528 273.375 25.8184 273.123 26.2234ZM68.4165 26.9972C68.3387 27.1901 68.281 27.1327 68.2693 26.8507C68.2588 26.5955 68.3163 26.4527 68.3972 26.5331C68.4781 26.6134 68.4869 26.8224 68.4165 26.9972ZM277.101 27.2281C277.036 27.5663 277.094 28.1055 277.231 28.4262L277.479 29.0094L277.566 28.3948C277.614 28.0568 277.556 27.5179 277.436 27.1969L277.219 26.6134L277.101 27.2281ZM278.606 27.5426C278.606 27.9333 278.951 28.2226 279.165 28.0108C279.355 27.822 279.093 27.1937 278.824 27.1937C278.704 27.1937 278.606 27.3506 278.606 27.5426ZM245.7 27.6779C245.7 27.8111 245.81 27.92 245.944 27.92C246.078 27.92 246.188 27.8111 246.188 27.6779C246.188 27.5448 246.078 27.4358 245.944 27.4358C245.81 27.4358 245.7 27.5448 245.7 27.6779ZM277.997 27.6779C277.914 27.8111 277.963 27.92 278.104 27.92C278.246 27.92 278.362 27.8111 278.362 27.6779C278.362 27.5448 278.314 27.4358 278.255 27.4358C278.196 27.4358 278.08 27.5448 277.997 27.6779ZM278.811 28.8884C278.622 29.3934 278.864 32.1063 279.124 32.3866C279.249 32.521 279.332 32.1687 279.323 31.5393C279.305 30.0926 278.984 28.4306 278.811 28.8884ZM20.7188 29.6394C20.4404 29.8369 20.4984 29.8534 20.9625 29.7079C21.2977 29.603 23.7298 29.4803 26.3674 29.4353L31.163 29.3534L32.0166 30.4639C32.4863 31.0747 33.2185 32.405 33.6441 33.4201C34.0697 34.4354 34.5713 35.4186 34.759 35.6047C34.9464 35.7912 35.1 36.1473 35.1 36.3961C35.1 36.6452 35.2097 36.9162 35.3438 36.9985C35.8139 37.287 35.6036 38.245 35.011 38.5132C34.6939 38.6565 34.0085 39.2993 33.4876 39.9416C32.9667 40.5836 32.3488 41.3213 32.1141 41.5808C31.0508 42.7569 32.3583 43.3696 33.7235 42.3351C34.6881 41.6045 34.8214 41.7084 34.9852 43.3166C35.0491 43.9426 35.1956 44.575 35.3108 44.7212C35.4259 44.8677 35.5975 45.3078 35.6921 45.699C35.7864 46.0905 36.1854 46.7376 36.5788 47.137C36.972 47.5367 37.2935 47.9246 37.2933 47.9991C37.2923 48.2991 34.9018 49.724 33.7594 50.1058C33.0891 50.33 32.3039 50.6648 32.0149 50.8502C31.3131 51.2998 31.2012 51.0437 31.2585 49.121C31.3143 47.2501 31.0889 46.9666 29.6766 47.1334C28.8256 47.2339 28.472 47.0099 28.9848 46.6955C29.4189 46.4289 28.6672 45.1187 27.8623 44.7393C27.0073 44.3365 23.4575 44.0939 23.2518 44.4244C22.9169 44.9628 22.6688 44.4953 22.6688 43.3258C22.6688 39.6411 21.3218 37.4105 20.1233 39.1102C19.6833 39.7339 19.6489 40.5524 19.9836 42.431C20.6005 45.8941 20.6556 46.802 20.2503 46.8257C20.0387 46.8383 19.3742 46.8836 18.7736 46.9267C17.6051 47.0107 17.0727 46.854 17.5434 46.565C17.7328 46.4488 17.8649 45.3509 17.9256 43.3875C17.9766 41.7377 18.2064 38.0182 18.436 35.1223L18.8538 29.8568H19.5568C19.9636 29.8568 20.1964 29.7546 20.1094 29.6147C20.0253 29.4796 20.2076 29.3743 20.5216 29.3762C20.9871 29.3793 21.0212 29.4249 20.7188 29.6394ZM275.681 29.8425C275.681 29.9679 275.791 30.1376 275.925 30.2199C276.059 30.3022 276.169 30.1996 276.169 29.9921C276.169 29.7846 276.059 29.6147 275.925 29.6147C275.791 29.6147 275.681 29.7171 275.681 29.8425ZM284.212 30.5104C284.212 30.9973 284.142 31.0941 283.936 30.8898C283.784 30.7389 283.726 30.4448 283.807 30.2361C284.03 29.6587 284.212 29.7819 284.212 30.5104ZM53.8122 31.0672C53.6447 31.3335 53.4244 31.5514 53.3225 31.5514C53.0529 31.5514 53.0953 31.3364 53.4422 30.9452C53.8999 30.4288 54.1598 30.5145 53.8122 31.0672ZM274.969 30.9663C274.981 31.2483 275.039 31.3057 275.116 31.1127C275.187 30.9379 275.178 30.729 275.097 30.6486C275.016 30.5683 274.959 30.7111 274.969 30.9663ZM45.2551 31.854C45.1876 32.0206 45.1323 31.8843 45.1323 31.5514C45.1323 31.2185 45.1876 31.0825 45.2551 31.2488C45.3229 31.4153 45.3229 31.6877 45.2551 31.854ZM64.7156 31.5514C64.0385 31.8405 63.5607 31.8405 63.7406 31.5514C63.8235 31.4182 64.1864 31.3171 64.5472 31.3263C65.1329 31.3415 65.151 31.3657 64.7156 31.5514ZM54.9486 32.008C55.0219 32.1259 55.7688 32.1644 56.6083 32.0934C57.4475 32.0223 58.3811 31.9734 58.6828 31.9847C61.4501 32.0886 64.3792 32.0678 64.9699 31.94C65.6516 31.7925 65.7216 31.8528 66.2639 33.0596C66.5793 33.7615 66.8874 34.4575 66.9484 34.6068C67.1441 35.0857 66.339 35.175 65.2685 34.7935C64.2218 34.4202 63.7016 34.4204 50.6244 34.7998C49.7116 34.8262 48.916 34.7695 48.8565 34.6741C48.797 34.5785 48.9638 34.0014 49.2268 33.3918L49.7053 32.2835L50.9849 32.389C51.7718 32.4542 52.4011 32.383 52.6188 32.2046C52.8855 31.9864 52.9966 31.9843 53.0685 32.1961C53.1382 32.4016 53.341 32.3856 53.821 32.137C54.5907 31.7381 54.7679 31.718 54.9486 32.008ZM275.356 32.681C275.166 32.8696 274.471 32.4604 274.608 32.2406C274.692 32.1043 274.891 32.1285 275.099 32.3004C275.292 32.459 275.408 32.6302 275.356 32.681ZM277.388 32.9964C277.388 33.1252 277.541 33.1724 277.729 33.1008C277.916 33.0294 278.142 33.0872 278.23 33.2296C278.407 33.5128 277.895 33.5733 277.286 33.3412C276.86 33.1792 276.758 32.7619 277.144 32.7619C277.278 32.7619 277.388 32.8674 277.388 32.9964ZM44.85 46.2994C44.5577 53.543 44.4171 55.3805 44.1482 55.4689C43.8728 55.5597 43.8392 55.2139 43.9623 53.5517C44.0446 52.4364 44.1695 49.7264 44.2397 47.5295C44.4349 41.4033 44.5972 37.9233 44.7932 35.667L44.9719 33.6092L45.0938 35.4249C45.1608 36.4235 45.0511 41.3171 44.85 46.2994ZM282.63 39.2925C282.666 42.3727 282.755 44.9526 282.829 45.0255C283.14 45.3344 283.264 43.2418 283.192 38.8863C283.142 35.8524 283.02 34.1427 282.84 33.9648C282.636 33.7622 282.582 35.1334 282.63 39.2925ZM47.881 34.6732C47.9554 34.7925 47.852 34.9523 47.6517 35.0288C47.4306 35.1131 47.2875 35.0281 47.2875 34.8121C47.2875 34.4204 47.6685 34.3313 47.881 34.6732ZM44.09 36.7159C44.1075 37.1365 44.0098 37.366 43.8375 37.3088C43.5959 37.2289 43.486 35.8684 43.6412 34.8802C43.7075 34.4592 44.0549 35.8805 44.09 36.7159ZM63.7964 35.0869C63.7155 35.1673 63.5052 35.176 63.3294 35.106C63.1349 35.0288 63.1927 34.9714 63.4766 34.9598C63.7336 34.9494 63.8774 35.0065 63.7964 35.0869ZM54.7219 35.4249C54.8118 35.5692 54.5164 35.667 53.9906 35.667C53.4649 35.667 53.1694 35.5692 53.2594 35.4249C53.3423 35.2917 53.6713 35.1828 53.9906 35.1828C54.3099 35.1828 54.639 35.2917 54.7219 35.4249ZM59.5359 35.3537C59.2342 35.4113 58.7408 35.4113 58.4391 35.3537C58.1373 35.2958 58.3842 35.2486 58.9875 35.2486C59.5908 35.2486 59.8377 35.2958 59.5359 35.3537ZM55.9964 35.5711C55.9155 35.6515 55.7052 35.6602 55.5294 35.5902C55.3349 35.513 55.3927 35.4556 55.6766 35.444C55.9336 35.4336 56.0774 35.4907 55.9964 35.5711ZM237.9 35.667C237.9 35.8001 238.01 35.909 238.144 35.909C238.278 35.909 238.387 35.8001 238.387 35.667C238.387 35.5338 238.278 35.4249 238.144 35.4249C238.01 35.4249 237.9 35.5338 237.9 35.667ZM270.075 35.667C270.075 35.8001 270.191 35.909 270.333 35.909C270.475 35.909 270.523 35.8001 270.441 35.667C270.358 35.5338 270.242 35.4249 270.182 35.4249C270.123 35.4249 270.075 35.5338 270.075 35.667ZM74.3438 37.027C74.3438 37.5303 74.2448 37.8136 74.1 37.7247C73.9659 37.6424 73.8562 37.1938 73.8562 36.7278C73.8562 36.2245 73.9552 35.9412 74.1 36.0301C74.2341 36.1124 74.3438 36.561 74.3438 37.027ZM254.887 38.7536C254.826 38.9865 254.775 38.796 254.775 38.33C254.775 37.8639 254.826 37.6734 254.887 37.9063C254.948 38.1392 254.948 38.5207 254.887 38.7536ZM36.6724 41.114C36.902 41.9129 37.2906 43.0834 37.536 43.7153C38.0674 45.0839 37.7654 45.5022 37.1867 44.1992C36.9654 43.7008 36.5189 42.8571 36.1944 42.3245C35.7786 41.6418 35.6143 41.0349 35.638 40.2667C35.7011 38.221 35.8834 38.3704 36.6724 41.114ZM254.893 41.4166C254.837 41.7827 254.792 41.4832 254.792 40.7509C254.792 40.0186 254.837 39.7191 254.893 40.0851C254.949 40.4512 254.949 41.0506 254.893 41.4166ZM43.8063 41.6553C43.7502 42.0233 43.7029 41.7798 43.701 41.114C43.6993 40.4483 43.7451 40.1471 43.8028 40.4449C43.8606 40.7427 43.8621 41.2874 43.8063 41.6553ZM288.356 42.4455C288.356 42.7489 288.098 42.7489 287.625 42.4455C287.329 42.2557 287.364 42.2102 287.808 42.2071C288.109 42.2051 288.356 42.3124 288.356 42.4455ZM265.931 42.9154C265.931 43.0408 266.041 43.2105 266.175 43.2929C266.309 43.3752 266.419 43.2725 266.419 43.065C266.419 42.8576 266.309 42.6876 266.175 42.6876C266.041 42.6876 265.931 42.79 265.931 42.9154ZM168.236 43.2202C167.912 43.5424 168.135 44.1402 168.579 44.1402C168.766 44.1402 168.919 44.0947 168.919 44.039C168.919 43.9833 168.98 43.7795 169.055 43.586C169.221 43.1546 168.587 42.8714 168.236 43.2202ZM288.6 45.3223V47.7151L287.93 47.843C287.561 47.9134 287.205 47.9173 287.138 47.8514C287.07 47.7858 286.978 46.6516 286.932 45.331L286.848 42.9297H287.724H288.6V45.3223ZM11.1669 43.5793C11.3427 43.6492 11.553 43.6405 11.6339 43.5601C11.7149 43.4798 11.5711 43.4226 11.3141 43.433C11.0302 43.4446 10.9724 43.502 11.1669 43.5793ZM43.875 44.489C43.875 45.6639 43.4748 45.7765 43.4289 44.6144C43.408 44.0872 43.4999 43.656 43.633 43.656C43.766 43.656 43.875 44.0308 43.875 44.489ZM41.8031 45.8348C41.7202 45.968 41.5494 46.0769 41.4231 46.0769C41.2969 46.0769 41.1937 45.968 41.1937 45.8348C41.1937 45.7017 41.3649 45.5927 41.5738 45.5927C41.7826 45.5927 41.886 45.7017 41.8031 45.8348ZM282.789 46.0769C282.789 46.4098 282.844 46.5461 282.911 46.3795C282.979 46.2132 282.979 45.9409 282.911 45.7743C282.844 45.608 282.789 45.744 282.789 46.0769ZM15.2488 48.3163C15.1552 49.5478 15.0174 50.8084 14.9428 51.1173L14.8073 51.6789L11.1209 51.5426C9.09334 51.4676 6.66656 51.3782 5.72813 51.3439L4.02187 51.2819L3.94558 50.4951C3.90341 50.0622 3.98312 49.7083 4.1223 49.7083C4.29683 49.7083 4.29756 49.5047 4.12474 49.0534C3.90975 48.4915 3.95387 48.3381 4.43552 47.9752C5.27329 47.3438 6.9069 47.0375 9.62813 47.0019C10.9688 46.9843 12.3186 46.8782 12.628 46.7661C12.9892 46.6354 13.1367 46.649 13.0401 46.8039C12.9512 46.947 13.2429 47.0453 13.7575 47.0453C14.6196 47.0453 15.0135 46.5872 14.1984 46.5325C13.964 46.5168 14.1009 46.4207 14.5031 46.319C14.9053 46.2173 15.2761 46.1212 15.3268 46.1055C15.3775 46.0897 15.3424 47.0847 15.2488 48.3163ZM43.7453 48.9055C43.6398 50.6331 43.389 49.9342 43.418 47.9935C43.4436 46.2849 43.4765 46.1278 43.622 47.0206C43.7175 47.6062 43.7729 48.4545 43.7453 48.9055ZM39.616 47.0659C39.7456 47.4721 39.9036 47.5391 40.4245 47.4096C40.7806 47.3213 41.1596 47.0942 41.2669 46.9049C41.3741 46.7158 41.68 46.5611 41.9467 46.5611C42.4069 46.5611 42.4259 46.6884 42.3169 49.0425C42.2538 50.4072 42.1946 51.7593 42.1853 52.0466C42.169 52.5584 42.1417 52.5623 40.8891 52.2311C40.1854 52.0452 39.1645 51.8915 38.6207 51.89C37.4242 51.8866 34.9725 52.6763 33.15 53.6524C31.8313 54.3586 31.7536 54.3695 28.3969 54.3274C24.2414 54.2751 23.3327 54.0887 22.277 53.0724C21.8261 52.6383 21.4951 52.2459 21.5412 52.2001C21.5872 52.1544 23.1485 52.0091 25.0109 51.8772C28.4612 51.6332 29.25 51.5061 29.25 51.195C29.25 51.0986 28.2901 51.0962 27.1172 51.1896C25.9443 51.2828 24.0272 51.4114 22.8572 51.4751L20.7302 51.5908L18.8353 49.8068C17.7933 48.8256 16.8519 48.0209 16.7434 48.0182C16.635 48.0158 16.6152 47.903 16.6993 47.7677C16.7837 47.6324 16.9616 47.5885 17.0949 47.6704C17.6295 47.9984 22.8813 48.1783 27.3 48.0197C28.7269 47.9686 29.9132 48.0272 29.9812 48.1524C30.1468 48.4574 27.6678 48.7097 23.2857 48.8339C20.951 48.8999 19.6051 49.0324 19.5483 49.2016C19.4266 49.5635 22.9722 49.5238 26.6906 49.1217C28.2994 48.9476 29.6878 48.8723 29.7758 48.9542C29.8638 49.036 30.0446 49.5032 30.1775 49.9923C30.3691 50.697 30.3393 50.9945 30.0344 51.4269C29.6768 51.9341 29.68 51.9607 30.0819 51.8077C30.391 51.6898 30.5502 51.7808 30.6416 52.1282C30.7903 52.6933 31.2 52.7826 31.2 52.2503C31.2 52.0505 31.4128 51.8871 31.6731 51.8871C31.9334 51.8871 32.205 51.7925 32.2771 51.677C32.349 51.5613 32.9704 51.3925 33.658 51.302C34.5886 51.1795 34.9384 51.0219 35.0271 50.6854C35.0924 50.4367 35.421 50.1649 35.7569 50.0811C37.0073 49.7695 38.767 47.9471 38.5498 47.1886C38.4879 46.9724 38.9617 46.572 39.2884 46.5647C39.3798 46.5628 39.5272 46.7882 39.616 47.0659ZM136.942 47.2106C137.118 47.2806 137.328 47.2719 137.409 47.1915C137.49 47.1111 137.346 47.054 137.089 47.0644C136.805 47.076 136.747 47.1334 136.942 47.2106ZM248.137 48.7174V50.3898L246.736 50.5307C244.804 50.7248 243.057 50.6926 242.044 50.4445C241.575 50.3295 238.448 50.1678 235.097 50.0847C231.745 50.0019 228.482 49.8693 227.845 49.7899C227.101 49.6974 226.688 49.7376 226.688 49.9024C226.688 50.0433 226.934 50.2063 227.236 50.2644C227.537 50.3225 226.029 50.3508 223.884 50.3273C221.739 50.3041 218.887 50.3883 217.547 50.5147C216.206 50.6411 207.87 50.7783 199.022 50.8197C190.174 50.8611 181.947 50.9526 180.741 51.0231C177.188 51.2303 169.139 51.2957 168.852 51.1194C168.559 50.94 169.609 50.7265 171.478 50.5854C172.148 50.5348 170.668 50.5447 168.188 50.6077C165.707 50.6704 159.839 50.7289 155.147 50.7377C147.097 50.7527 145.402 50.882 146.271 51.4158C146.445 51.5228 146.248 51.6603 145.771 51.7641C145.253 51.8772 144.887 51.8324 144.702 51.6339C144.486 51.4015 144.499 51.3756 144.758 51.522C144.987 51.6516 145.059 51.6048 144.982 51.3761C144.903 51.1386 144.195 50.9877 142.574 50.8631C140.15 50.6767 139.065 50.7783 139.308 51.1688C139.389 51.2986 139.714 51.34 140.032 51.2608C140.349 51.1819 140.808 51.2325 141.053 51.3736C141.419 51.5855 141.325 51.6315 140.515 51.6378C139.975 51.6416 139.288 51.4746 138.989 51.2664C138.558 50.9667 137.856 50.8994 135.623 50.9437C133.789 50.98 132.743 50.9071 132.637 50.7355C132.52 50.5474 132.052 50.5687 131.013 50.8091C130.21 50.9948 129.279 51.0947 128.944 51.0308C128.175 50.8846 114.658 50.8836 111.881 51.0296C109.421 51.1589 103.789 51.1594 103.578 51.0303C103.418 50.9318 101.004 50.9108 87.6281 50.8904C79.1081 50.8773 77.5466 50.8425 76.7812 50.6483C76.5802 50.5972 76.4342 50.6646 76.4566 50.7977C76.4812 50.9427 75.9676 51.0066 75.1769 50.9568C73.9569 50.8803 73.8562 50.8282 73.8562 50.2753C73.8562 49.1687 74.2738 48.7423 75.3882 48.7113C75.9532 48.6956 76.7447 48.6075 77.1469 48.5157C77.5491 48.4237 78.1119 48.4482 78.3976 48.57C78.7169 48.706 79.3523 48.6992 80.0463 48.5523C80.6674 48.4206 81.227 48.3954 81.2896 48.4964C81.6029 48.9997 114.842 48.9547 115.848 48.4496C116.147 48.2993 116.396 48.3477 116.658 48.6073C117.114 49.0607 117.298 49.0738 117.693 48.6806C117.923 48.4526 119.525 48.3928 124.263 48.4349C145.096 48.6201 153.394 48.4247 153.832 47.7389C153.992 47.4883 154.045 47.5256 154.054 47.8926C154.065 48.3364 154.091 48.3429 154.376 47.9705C154.59 47.6921 154.798 47.6338 155.039 47.7854C155.232 47.9069 156.563 48.0078 157.997 48.01C159.495 48.0119 160.668 48.1182 160.756 48.2596C160.84 48.3949 161.003 48.448 161.118 48.3773C161.421 48.1909 172.679 48.1415 172.978 48.3252C173.314 48.531 186.501 48.5017 189.211 48.2891C190.866 48.1594 191.344 48.1911 191.344 48.4308C191.344 48.8549 192.571 48.8694 208.772 48.6368C214.402 48.5559 219.592 48.4918 220.303 48.494C221.105 48.4964 221.54 48.4056 221.447 48.2557C221.364 48.1226 221.406 48.0136 221.54 48.0136C221.674 48.0136 221.852 48.1226 221.934 48.2557C222.017 48.3889 222.49 48.4835 222.985 48.4659L223.884 48.4342L223.031 48.2557C222.504 48.1453 223.806 48.0468 226.444 47.9974C228.79 47.9536 231.203 47.9011 231.806 47.881C232.41 47.8609 236.116 47.8059 240.044 47.759C245.515 47.6936 247.246 47.6004 247.447 47.3595C247.967 46.7376 248.137 47.0731 248.137 48.7174ZM180.253 47.5295C180.655 47.6311 177.858 47.7069 174.038 47.6977C169.967 47.6883 167.949 47.6185 169.163 47.5295C172.134 47.3116 179.391 47.3116 180.253 47.5295ZM103.659 47.6883C103.494 47.7546 103.165 47.7587 102.928 47.6972C102.691 47.6357 102.826 47.5815 103.228 47.5767C103.63 47.5718 103.824 47.6219 103.659 47.6883ZM264.712 47.8328C263.975 47.9616 263.015 48.0628 262.58 48.0575C262.144 48.0524 261.788 48.1599 261.788 48.2966C261.788 48.4552 262.295 48.4915 263.189 48.3964C264.671 48.239 270.074 47.8926 275.255 47.6227C278.288 47.4646 278.362 47.4728 278.362 47.9618C278.362 48.2376 278.527 48.6266 278.728 48.8263C278.929 49.0261 279.094 49.3217 279.094 49.4834C279.094 49.6449 279.464 50.6604 279.917 51.7399C280.37 52.8197 281.088 54.6288 281.514 55.7606C282.376 58.0517 282.841 58.9785 283.187 59.093C283.53 59.2065 283.736 58.1704 283.469 57.6741C283.003 56.8108 283.176 56.6754 284.517 56.8519C286.102 57.0604 286.264 57.2073 286.065 58.2575C285.87 59.29 285.041 59.6963 283.348 59.5883L282.168 59.513L280.379 56.0027C279.394 54.072 278.637 52.3016 278.697 52.0687C278.76 51.8179 278.667 51.645 278.467 51.645C278.282 51.645 277.95 51.3727 277.731 51.0398C277.511 50.7069 277.185 50.4346 277.006 50.4346C276.827 50.4346 276.573 50.2438 276.442 50.0109C276.29 49.7412 275.865 49.5684 275.272 49.535C274.76 49.5061 273.573 49.4137 272.634 49.3292C270.847 49.1684 265.787 49.1752 263.494 49.3413C262.756 49.3945 262.026 49.4446 261.871 49.4521C261.716 49.4599 261.644 49.6729 261.71 49.9257C261.777 50.1784 261.704 50.6212 261.549 50.9098C261.393 51.1984 261.23 51.6215 261.185 51.8503C261.141 52.0791 260.6 53.3312 259.983 54.6332C259.367 55.9349 258.862 57.1207 258.862 57.2681C258.862 57.4153 258.788 57.4615 258.696 57.3707C258.548 57.2235 258.574 53.2121 258.734 51.645C258.768 51.3121 258.689 50.834 258.559 50.5822C258.342 50.1641 258.119 50.1382 255.972 50.2811C253.975 50.414 253.714 50.391 254.231 50.1278C254.681 49.8993 254.86 49.5904 254.914 48.9479L254.988 48.0778L256.499 47.864C257.33 47.7466 259.819 47.6389 262.031 47.6246C265.325 47.6035 265.81 47.6411 264.712 47.8328ZM99.5156 48.1725C99.3506 48.2388 99.0215 48.2429 98.7843 48.1814C98.5471 48.1199 98.6822 48.0657 99.0844 48.0609C99.4866 48.056 99.6806 48.1061 99.5156 48.1725ZM105.056 48.2291L106.641 48.3882L105.3 48.5671C104.563 48.6654 103.006 48.7358 101.842 48.7235C100.119 48.7053 99.7488 48.637 99.8568 48.3574C100.002 47.9824 102.084 47.9309 105.056 48.2291ZM17.4986 49.6478C18.2881 50.4135 19.2948 51.3121 19.736 51.645C21.0349 52.6253 23.4 54.9215 23.4 55.2026C23.4 55.3454 23.5918 55.5294 23.8266 55.6115C24.0613 55.6938 24.4055 55.8293 24.5917 55.9131C24.8211 56.0162 24.8691 55.9668 24.7404 55.7603C24.5907 55.5199 24.9373 55.4911 26.3781 55.6253C28.5743 55.8298 30.0066 55.624 29.8165 55.1316C29.7287 54.9045 29.8608 54.7922 30.2153 54.7922C30.6321 54.7922 30.7127 54.8944 30.5926 55.2701C30.4451 55.732 30.4707 55.7354 31.3684 55.3694C31.8791 55.1612 32.7905 54.6838 33.3937 54.3083C33.997 53.9328 35.2584 53.39 36.1969 53.1019C37.6243 52.664 38.2319 52.6047 39.9141 52.7388C41.4058 52.8577 41.925 52.9872 41.925 53.2404C41.925 53.428 41.7332 53.5943 41.4984 53.6098C41.0921 53.6365 41.0921 53.6432 41.4984 53.7486C42.0764 53.8987 42.0408 54.308 41.4497 54.308C41.1881 54.308 40.8669 54.1173 40.7355 53.8844C40.5437 53.544 40.1941 53.4677 38.9561 53.4963C37.2835 53.5348 35.4749 54.1366 33.8791 55.1856C32.78 55.908 31.3996 57.9329 30.9304 59.5113C30.6406 60.4862 30.5521 60.5668 29.6795 60.6494C29.1627 60.6983 28.6082 60.6513 28.4466 60.5448C28.2852 60.4383 27.4402 60.3615 26.5688 60.3741C21.4522 60.4482 17.7779 60.3395 17.9156 60.1182C18.0104 59.9657 17.4396 59.8761 16.3727 59.8761H14.6794L14.5104 58.9683C14.2937 57.8021 13.22 56.1063 12.489 55.7756C11.7124 55.4241 11.4563 55.4526 11.4563 55.8901C11.4563 56.1951 11.3624 56.2118 10.9336 55.984C9.75536 55.3577 6.59197 56.4915 6.03598 57.7394C5.86828 58.1157 5.6433 58.4236 5.53605 58.4236C5.4288 58.4236 5.35884 58.5599 5.38078 58.7262C5.46244 59.352 5.35299 59.6541 5.05781 59.6159C4.39603 59.5307 4.26099 59.6633 4.26319 60.3979C4.26465 60.8179 4.1379 61.2052 3.98166 61.2585C3.59653 61.3899 3.29818 60.377 3.62627 60.0512C3.78227 59.8962 3.80079 59.6856 3.67185 59.5309C3.01031 58.7371 3.28794 52.7342 4.01383 52.1357C4.17763 52.0007 4.98834 51.9803 5.98601 52.0864C8.82984 52.388 15.0452 52.2929 15.3984 51.9421C15.5678 51.7738 15.7497 50.8757 15.8026 49.946C15.8554 49.0164 15.9359 48.2557 15.981 48.2557C16.0263 48.2557 16.7093 48.882 17.4986 49.6478ZM94.2703 48.4291C93.9018 48.4845 93.2982 48.4845 92.9297 48.4291C92.5611 48.3736 92.8627 48.3284 93.6 48.3284C94.3373 48.3284 94.6389 48.3736 94.2703 48.4291ZM97.5 48.4978C97.7681 48.67 97.5934 48.7334 96.8441 48.7363C96.2822 48.7382 95.7547 48.631 95.6719 48.4978C95.4766 48.1843 97.0113 48.1843 97.5 48.4978ZM224.189 48.416C224.357 48.4833 224.631 48.4833 224.798 48.416C224.966 48.3489 224.829 48.294 224.494 48.294C224.159 48.294 224.022 48.3489 224.189 48.416ZM98.7797 48.6581C98.6122 48.7254 98.338 48.7254 98.1703 48.6581C98.0029 48.591 98.1398 48.5361 98.475 48.5361C98.8102 48.5361 98.9474 48.591 98.7797 48.6581ZM254.393 49.3289C254.312 49.5376 254.122 49.7083 253.969 49.7083C253.816 49.7083 253.758 49.5364 253.84 49.3253C253.921 49.1147 253.988 48.8205 253.988 48.6716C253.988 48.4743 254.062 48.4751 254.264 48.6753C254.416 48.8261 254.474 49.1202 254.393 49.3289ZM288.546 49.8899C288.835 51.5571 288.931 55.4183 288.711 56.5808C288.51 57.6424 287.684 58.579 287.292 58.189C286.924 57.8232 286.974 51.226 287.347 50.8556C287.504 50.6997 287.526 50.4847 287.399 50.3314C287.206 50.0978 287.041 49.1488 287.11 48.6794C287.125 48.5794 287.4 48.4978 287.721 48.4978C288.24 48.4978 288.331 48.6499 288.546 49.8899ZM223.641 49.7083C223.232 49.8826 223.281 49.9191 223.945 49.9334C224.381 49.9426 224.738 49.8414 224.738 49.7083C224.738 49.4209 224.314 49.4209 223.641 49.7083ZM221.752 49.8685C221.919 49.9359 222.193 49.9359 222.361 49.8685C222.529 49.8015 222.391 49.7465 222.056 49.7465C221.721 49.7465 221.584 49.8015 221.752 49.8685ZM225.591 49.9504C225.673 50.0835 225.844 50.1925 225.971 50.1925C226.097 50.1925 226.2 50.0835 226.2 49.9504C226.2 49.8172 226.029 49.7083 225.82 49.7083C225.611 49.7083 225.508 49.8172 225.591 49.9504ZM173.504 50.3578C173.68 50.4278 173.891 50.4191 173.971 50.3387C174.052 50.2583 173.909 50.2012 173.652 50.2116C173.368 50.2232 173.31 50.2806 173.504 50.3578ZM264.712 50.4203C264.712 50.5457 264.603 50.7154 264.469 50.7977C264.335 50.88 264.225 50.7774 264.225 50.5699C264.225 50.3624 264.335 50.1925 264.469 50.1925C264.603 50.1925 264.712 50.2949 264.712 50.4203ZM145.214 50.8783C145.7 51.384 145.89 51.3555 145.678 50.8081C145.599 50.6026 145.366 50.4346 145.161 50.4346C144.845 50.4346 144.853 50.5028 145.214 50.8783ZM237.656 50.8236C237.656 50.8759 237.3 50.911 236.864 50.9018C236.219 50.8878 236.162 50.8493 236.559 50.6931C237.006 50.5176 237.656 50.5951 237.656 50.8236ZM166.481 51.4313C166.481 51.6842 166.403 51.6932 165.892 51.4981C165.332 51.2848 165.418 50.9413 165.994 51.0906C166.262 51.1604 166.481 51.3136 166.481 51.4313ZM276.413 51.1608C276.413 51.294 276.364 51.4029 276.305 51.4029C276.246 51.4029 276.13 51.294 276.047 51.1608C275.964 51.0277 276.013 50.9187 276.154 50.9187C276.296 50.9187 276.413 51.0277 276.413 51.1608ZM149.053 51.4029C149.136 51.5361 148.971 51.645 148.688 51.645C148.404 51.645 148.239 51.5361 148.322 51.4029C148.405 51.2698 148.569 51.1608 148.688 51.1608C148.806 51.1608 148.97 51.2698 149.053 51.4029ZM257.156 51.4029C257.156 51.5361 257.04 51.645 256.898 51.645C256.756 51.645 256.708 51.5361 256.791 51.4029C256.874 51.2698 256.99 51.1608 257.049 51.1608C257.108 51.1608 257.156 51.2698 257.156 51.4029ZM43.3838 52.204C43.3858 52.3117 43.2778 52.3326 43.1437 52.2503C43.0097 52.1679 42.9017 51.9164 42.9037 51.6913C42.9071 51.3385 42.9402 51.332 43.1437 51.645C43.2737 51.8447 43.3816 52.0963 43.3838 52.204ZM82.0219 51.645C81.939 51.7782 81.7681 51.8871 81.6419 51.8871C81.5156 51.8871 81.4125 51.7782 81.4125 51.645C81.4125 51.5119 81.5836 51.4029 81.7925 51.4029C82.0014 51.4029 82.1048 51.5119 82.0219 51.645ZM84.825 51.66C84.825 51.785 84.6056 51.8871 84.3375 51.8871C84.0694 51.8871 83.85 51.8014 83.85 51.6966C83.85 51.5918 84.0694 51.4896 84.3375 51.4695C84.6056 51.4494 84.825 51.5351 84.825 51.66ZM86.0437 51.792C86.0437 51.8443 85.8792 51.8871 85.6781 51.8871C85.477 51.8871 85.3125 51.7816 85.3125 51.6525C85.3125 51.5237 85.477 51.4809 85.6781 51.5574C85.8792 51.6341 86.0437 51.7397 86.0437 51.792ZM142.898 51.5632C142.731 51.6305 142.457 51.6305 142.289 51.5632C142.122 51.4961 142.259 51.4412 142.594 51.4412C142.929 51.4412 143.066 51.4961 142.898 51.5632ZM125.105 51.8053C124.937 51.8726 124.663 51.8726 124.495 51.8053C124.328 51.7382 124.465 51.6833 124.8 51.6833C125.135 51.6833 125.272 51.7382 125.105 51.8053ZM285.984 52.0459C285.819 52.1123 285.49 52.1164 285.253 52.0549C285.016 51.9934 285.151 51.9392 285.553 51.9343C285.955 51.9295 286.149 51.9796 285.984 52.0459ZM248.032 55.1936C247.946 56.9035 247.815 58.8119 247.742 59.4346L247.609 60.5668L245.619 60.645C244.524 60.6881 243.319 60.6828 242.94 60.6329L242.252 60.5424L242.41 56.6384C242.497 54.4913 242.6 52.6255 242.641 52.4923C242.681 52.3563 243.912 52.2139 245.451 52.1674L248.189 52.0847L248.032 55.1936ZM249.586 56.1838C249.511 58.4144 249.491 60.3228 249.541 60.4247C249.592 60.5269 249.736 60.5477 249.861 60.471C249.986 60.394 250.087 58.5006 250.087 56.2305V52.1292H251.905H253.722L253.883 52.9828C253.972 53.4522 253.972 54.7322 253.883 55.8274C253.795 56.9224 253.715 58.4936 253.707 59.3186L253.692 60.8189L251.463 60.7344C250.237 60.6879 248.981 60.6392 248.672 60.6261C248.362 60.6131 248.161 60.5191 248.224 60.4175C248.287 60.3155 248.369 58.5998 248.405 56.6045C248.482 52.3376 248.519 52.1294 249.202 52.1287C249.717 52.1282 249.721 52.1628 249.586 56.1838ZM281.531 52.3154C281.531 52.418 282.34 52.4611 283.328 52.4117C285.425 52.3064 286.163 52.5885 286.163 53.4951C286.163 53.9359 286.061 54.0788 285.814 53.9848C285.622 53.9117 284.544 53.7776 283.418 53.6868C281.449 53.5282 281.362 53.4956 281.107 52.8255C280.893 52.2631 280.908 52.1292 281.187 52.1292C281.376 52.1292 281.531 52.213 281.531 52.3154ZM170.137 52.6134C170.137 52.7465 170.028 52.8555 169.894 52.8555C169.76 52.8555 169.65 52.7465 169.65 52.6134C169.65 52.4802 169.76 52.3713 169.894 52.3713C170.028 52.3713 170.137 52.4802 170.137 52.6134ZM240.492 54.1265C240.246 57.0575 240.225 60.2262 240.449 60.5864C240.61 60.8448 240.559 60.8876 240.236 60.7646C240.002 60.6753 239.545 60.6024 239.221 60.6024C238.859 60.6024 238.631 60.462 238.631 60.2393C238.631 60.0008 238.401 59.8815 237.961 59.8914L237.291 59.9069L237.9 60.1756L238.509 60.4443L237.943 60.5426C237.157 60.6789 236.71 60.4644 236.709 59.9497C236.709 59.7096 236.646 58.1052 236.57 56.3849C236.494 54.6644 236.495 53.0576 236.573 52.8141C236.694 52.4335 236.989 52.3713 238.676 52.3713H240.639L240.492 54.1265ZM241.892 55.2948C241.855 60.609 241.856 60.6024 241.307 60.6024C240.829 60.6024 240.816 60.4884 240.914 57.0316C241.019 53.3312 241.185 52.2887 241.643 52.4405C241.82 52.4989 241.905 53.4796 241.892 55.2948ZM145.275 52.9765C145.275 53.1763 145.165 53.3397 145.031 53.3397C144.897 53.3397 144.788 53.1763 144.788 52.9765C144.788 52.7768 144.897 52.6134 145.031 52.6134C145.165 52.6134 145.275 52.7768 145.275 52.9765ZM147.11 52.8673C147.22 53.0431 147.362 53.0438 147.574 52.8693C147.742 52.7308 147.924 52.6596 147.979 52.7107C148.096 52.8209 151.949 53.0889 155.391 53.2264C156.731 53.2799 159.035 53.3786 160.509 53.4459C166.257 53.7084 170.978 53.7795 169.772 53.5861C169.034 53.4675 171.1 53.4133 175.012 53.4484C178.597 53.4806 180.821 53.4275 180.009 53.329C178.871 53.191 179.033 53.1753 180.741 53.2581C183.807 53.407 184.84 53.4135 187.12 53.2983C190.059 53.1496 189.978 53.0196 189.817 57.5923C189.744 59.6747 189.592 61.4648 189.478 61.5703C189.365 61.6759 186.914 61.8492 184.031 61.9557C178.206 62.1707 178.468 62.1705 173.55 61.9613C171.606 61.8785 170.153 61.8749 170.32 61.9531C171.241 62.383 170.086 62.5106 165.08 62.5324C157.765 62.5643 145.623 62.2685 145.266 62.0499C145.055 61.9201 145.043 60.7767 145.219 57.5162C145.348 55.1178 145.53 53.0337 145.623 52.8845C145.836 52.542 146.9 52.5296 147.11 52.8673ZM266.175 52.7202C266.175 52.779 266.065 52.8942 265.931 52.9765C265.797 53.0588 265.688 53.0107 265.688 52.8698C265.688 52.7289 265.797 52.6134 265.931 52.6134C266.065 52.6134 266.175 52.6613 266.175 52.7202ZM118.805 53.1917C118.73 53.3854 118.476 53.4765 118.206 53.4065C117.633 53.2576 117.826 52.8555 118.469 52.8555C118.766 52.8555 118.888 52.977 118.805 53.1917ZM121.997 53.0976C122.08 53.2307 122.038 53.3397 121.904 53.3397C121.77 53.3397 121.592 53.2307 121.509 53.0976C121.426 52.9644 121.468 52.8555 121.602 52.8555C121.737 52.8555 121.914 52.9644 121.997 53.0976ZM102.192 53.6227C102.427 53.7428 102.619 53.9309 102.619 54.041C102.619 54.1509 102.88 54.1913 103.2 54.1306C103.519 54.0701 103.852 54.1347 103.939 54.2746C104.026 54.4146 104.258 54.4676 104.455 54.3925C104.697 54.3003 104.812 54.4153 104.812 54.7494C104.812 55.0767 104.997 55.2687 105.361 55.32C105.837 55.3873 105.946 55.6194 106.188 57.0846C106.35 58.0684 106.38 58.9959 106.26 59.3099C106.147 59.6062 106.097 60.0703 106.149 60.3414C106.202 60.6126 106.142 60.8975 106.016 60.9748C105.89 61.052 105.787 61.3558 105.787 61.65C105.787 62.3077 104.669 63.9917 104.232 63.9917C104.057 63.9917 103.595 64.2672 103.205 64.604C102.322 65.3675 101.225 65.9285 100.617 65.9285C100.361 65.9285 100.216 66.0299 100.293 66.1538C100.37 66.2778 100.333 66.4405 100.211 66.5155C100.089 66.5906 99.9258 66.4891 99.8488 66.2901C99.6796 65.8522 98.8869 65.82 98.2339 66.225C97.8568 66.4591 97.693 66.4591 97.4573 66.225C97.2931 66.0618 96.9016 65.9285 96.5874 65.9285C96.1811 65.9285 96.0368 65.8076 96.0877 65.5106C96.1282 65.2746 96.0002 65.084 95.7937 65.0731C95.1866 65.0405 94.5638 64.6802 94.6091 64.3878C94.6325 64.2365 94.3444 63.4693 93.9685 62.6827C93.3453 61.3781 93.3207 61.227 93.6865 60.9614C94.1923 60.594 94.2074 60.3298 93.7116 60.5187C93.3916 60.6407 93.3575 60.4693 93.481 59.3612C93.561 58.6458 93.8642 57.5702 94.1548 56.971C94.4453 56.3719 94.6883 55.7727 94.6949 55.6395C94.7322 54.8845 95.2002 54.2574 95.9632 53.9408C97.1051 53.467 97.1753 53.4864 96.4911 54.087L95.9156 54.592L96.6825 54.0885C97.1041 53.8113 97.872 53.4861 98.3887 53.3656C99.4044 53.1286 101.504 53.2704 102.192 53.6227ZM134.187 53.3435C134.271 53.4789 134.44 53.528 134.563 53.453C134.877 53.2598 136.5 53.5914 136.5 53.8488C136.5 53.966 136.884 54.5613 137.353 55.1718C137.822 55.7824 138.214 56.4641 138.223 56.6871C138.237 57.0083 138.28 56.9923 138.43 56.6096C138.602 56.1714 138.659 56.2017 139.042 56.9384C139.715 58.2299 139.663 61.6228 138.95 63.0233C138.231 64.4345 137.572 65.1378 136.418 65.7253C135.573 66.1558 135.188 66.1851 132.402 66.0316C129.834 65.8902 129.199 65.7764 128.59 65.3503C127.421 64.5313 127.252 64.3229 126.586 62.8798C125.958 61.5161 125.957 61.5059 126.36 60.0662C126.583 59.2714 127.043 58.0755 127.383 57.4085C127.724 56.7415 127.876 56.2733 127.721 56.368C127.567 56.4627 127.228 57.0338 126.967 57.6373C126.307 59.1685 126.136 58.7775 126.752 57.1427C127.535 55.0638 129.098 53.9059 131.991 53.2622C132.914 53.0567 134.034 53.0981 134.187 53.3435ZM272.435 53.9398C274.162 54.785 274.791 55.4117 275.087 56.5827C275.175 56.9294 275.339 57.2131 275.452 57.2131C275.566 57.2131 275.843 57.599 276.068 58.0706C276.501 58.9756 276.431 61.1198 275.906 63.0805C275.611 64.1844 273.705 66.2896 273.334 65.9217C273.162 65.7507 272.879 65.8323 272.432 66.1812C272.074 66.4611 271.781 66.5712 271.781 66.4262C271.781 66.2812 271.229 66.4405 270.553 66.7804C269.878 67.1203 269.204 67.3239 269.056 67.2328C268.907 67.1418 268.459 67.0295 268.06 66.9832C266.975 66.8578 265.616 66.4436 265.182 66.1061C264.379 65.4815 263.25 63.6555 263.25 62.981C263.25 62.4615 263.095 62.2269 262.641 62.055C262.128 61.8613 262.037 61.6807 262.07 60.9111C262.109 60.017 262.111 60.0144 262.207 60.784C262.262 61.2169 262.422 61.5708 262.565 61.5708C262.72 61.5708 262.767 61.2914 262.683 60.8731C262.606 60.4894 262.615 60.1035 262.704 60.0154C262.792 59.9275 262.834 59.4307 262.796 58.9114C262.747 58.2435 262.882 57.7593 263.256 57.2565C263.547 56.8655 263.802 56.2692 263.822 55.9315C263.843 55.5935 263.901 55.3587 263.953 55.4095C264.004 55.4604 264.251 55.243 264.502 54.9263C265.33 53.8805 267.3 53.0976 269.101 53.0976C270.45 53.0976 270.995 53.2356 272.435 53.9398ZM273.519 53.5004C273.822 53.8655 273.802 53.8761 273.305 53.613C272.737 53.3128 272.598 53.0976 272.97 53.0976C273.088 53.0976 273.335 53.2789 273.519 53.5004ZM43.4311 55.0917C43.3765 55.4597 43.2349 55.7606 43.1162 55.7606C42.8549 55.7606 42.8244 53.7374 43.0816 53.482C43.3288 53.2365 43.5528 54.2683 43.4311 55.0917ZM116.52 53.62C116.591 53.7205 117.579 53.8493 118.714 53.9062C120.046 53.9732 121.077 54.1642 121.622 54.4446C122.086 54.6835 122.339 54.921 122.184 54.9723C121.833 55.0885 122.056 55.7773 122.579 56.1947C122.891 56.4435 122.974 56.9989 122.98 58.9058C122.984 60.2248 123.066 61.3822 123.162 61.4778C123.446 61.7594 123.363 62.055 123.001 62.055C122.816 62.055 122.368 62.4411 122.005 62.9132C121.484 63.5915 121.406 63.8431 121.631 64.113C121.952 64.497 121.765 64.9601 121.289 64.9601C121.116 64.9601 120.722 65.178 120.412 65.4443C120.028 65.7754 119.496 65.9297 118.73 65.9321C118.114 65.9343 117.454 66.0335 117.264 66.1529C117.065 66.2783 116.682 66.2807 116.359 66.1584C116.02 66.0304 115.741 66.0388 115.654 66.1797C115.46 66.4903 113.414 66.4792 113.219 66.1667C113.135 66.0313 112.956 65.9882 112.821 66.0708C112.236 66.4303 110.624 64.1723 110.733 63.1444C110.765 62.8442 110.657 62.6871 110.45 62.7307C110.256 62.7713 110.168 62.665 110.24 62.4784C110.308 62.3009 110.212 61.9489 110.026 61.6959C108.972 60.264 110.807 55.5795 112.734 54.7823C113.193 54.5927 113.189 54.5799 112.659 54.5654C112.349 54.5571 112.16 54.4482 112.237 54.3235C112.315 54.1988 112.568 54.0991 112.8 54.102C113.032 54.1049 113.715 53.9466 114.319 53.75C115.486 53.3697 116.308 53.3213 116.52 53.62ZM119.859 53.4859C119.778 53.5663 119.568 53.575 119.392 53.505C119.197 53.4278 119.255 53.3704 119.539 53.3588C119.796 53.3484 119.94 53.4055 119.859 53.4859ZM196.857 53.5508L197.617 53.5818L196.796 54.4463C196.345 54.9217 195.975 55.4275 195.975 55.5698C195.975 55.8296 195.709 56.4338 194.268 59.4443C193.562 60.9176 193.519 61.1362 193.804 61.7773C194.075 62.3852 194.19 62.4491 194.621 62.2322C194.896 62.0932 195.271 61.9131 195.452 61.8315C195.634 61.7502 196.141 60.7593 196.578 59.6299C197.016 58.5003 197.566 57.2119 197.801 56.7667C198.173 56.0605 198.272 56.0017 198.58 56.3072C198.887 56.6125 198.87 56.7674 198.444 57.5196C198.176 57.9941 197.841 59.2102 197.699 60.2223C197.344 62.7575 197.683 63.9615 199.111 65.2307C199.702 65.7558 200.11 66.2596 200.019 66.3504C199.812 66.5562 186.686 67.1534 182.63 67.1416C182.194 67.1404 181.837 67.2498 181.837 67.3849C181.837 67.6659 180.399 67.6153 180.22 67.328C180.07 67.0864 178.565 67.0803 178.323 67.3205C178.222 67.4205 177.299 67.5117 176.271 67.5238C175.244 67.5357 172.867 67.6766 170.991 67.8366C169.114 67.9969 166.317 68.0695 164.775 67.9981C163.233 67.9267 159.391 67.8039 156.237 67.7253C153.083 67.6466 149.464 67.4982 148.193 67.395C146.094 67.2248 146.337 67.2004 150.881 67.1251C158.325 67.0016 164.044 66.7075 164.044 66.4485C164.044 66.362 162.755 66.3661 161.18 66.4572C158.174 66.6312 142.045 66.6409 138.986 66.471L137.206 66.372L138.013 65.3634C139.229 63.8426 139.84 62.5619 140.054 61.0866C140.16 60.3543 140.221 59.619 140.191 59.4525C140.124 59.0915 140.551 59.0472 140.766 59.3927C140.867 59.5549 141.069 59.5549 141.374 59.3927C141.625 59.2591 142.331 59.1499 142.943 59.1499H144.056V60.4642C144.056 61.3665 144.183 61.9044 144.461 62.1806C144.744 62.4612 144.783 62.6341 144.592 62.7517C144.44 62.8447 145.273 62.957 146.441 63.0016C147.61 63.0461 148.84 63.1069 149.175 63.1362C149.51 63.1657 150.717 63.2144 151.856 63.2446C153.268 63.2819 153.773 63.3657 153.441 63.5075C153.005 63.6932 153.023 63.7174 153.609 63.7327C153.97 63.7419 154.34 63.6291 154.432 63.4816C154.548 63.295 154.662 63.3131 154.808 63.5421C154.969 63.7951 155.018 63.7993 155.021 63.5601C155.024 63.3223 155.496 63.2795 157.036 63.3773C161.466 63.6584 163.081 63.815 163.179 63.9728C163.235 64.0639 163.865 64.1053 164.577 64.0651C167.553 63.8963 173.637 63.7353 180.497 63.6436C188.179 63.5412 189.103 63.4642 189.542 62.8919C189.691 62.698 189.945 62.5392 190.105 62.5392C190.266 62.5392 190.33 62.4302 190.247 62.2971C190.164 62.1639 190.185 62.0543 190.293 62.0533C190.402 62.0523 190.5 60.7179 190.512 59.0877C190.524 57.4574 190.611 55.619 190.705 55.0021L190.878 53.8803L193 53.6633C194.167 53.5442 195.341 53.4631 195.609 53.4832C195.878 53.5033 196.439 53.5338 196.857 53.5508ZM115.172 53.826C114.904 53.9185 114.438 54.0773 114.136 54.1792C113.834 54.2812 113.588 54.4608 113.588 54.5785C113.588 54.8397 113.927 54.8583 114.176 54.6106C114.277 54.5107 114.761 54.3165 115.253 54.1788C115.744 54.041 116.037 53.8677 115.903 53.7933C115.769 53.7188 115.44 53.7335 115.172 53.826ZM171.234 53.8238C171.317 53.957 171.433 54.0659 171.493 54.0659C171.552 54.0659 171.6 53.957 171.6 53.8238C171.6 53.6907 171.484 53.5818 171.342 53.5818C171.2 53.5818 171.152 53.6907 171.234 53.8238ZM223.031 53.8238C223.031 53.957 222.675 54.0807 222.239 54.0989C221.579 54.1265 221.549 54.1497 222.056 54.2381C225.122 54.7716 226.363 55.726 227.106 58.1219C228.033 61.1079 227.287 64.7202 225.384 66.4594L224.616 67.1614L221.934 67.0004C220.46 66.9118 219.219 66.7494 219.176 66.6397C219.134 66.5298 218.939 66.501 218.743 66.5758C218.539 66.6538 218.051 66.3925 217.601 65.9635C217.169 65.5522 216.45 64.9104 216.002 64.5376C215.424 64.0559 215.093 63.4949 214.86 62.6009C214.409 60.8762 214.738 56.9074 215.219 58.2679C215.329 58.5793 215.555 58.3285 216.106 57.2836C216.526 56.4876 217.178 55.6722 217.614 55.3974C218.036 55.1311 218.385 54.7912 218.391 54.6421C218.399 54.4051 219.343 54.073 220.959 53.7389C221.919 53.5404 223.031 53.5861 223.031 53.8238ZM172.758 53.9841C172.926 54.0514 173.2 54.0514 173.367 53.9841C173.535 53.917 173.398 53.8621 173.062 53.8621C172.727 53.8621 172.59 53.917 172.758 53.9841ZM206.578 54.0868C207.114 54.2298 208.449 54.7915 209.544 55.335L211.535 56.323L211.806 57.7971C211.955 58.6076 212.008 59.5433 211.925 59.8761C211.841 60.209 211.693 60.9307 211.595 61.4798C211.498 62.0288 211.069 63.0008 210.643 63.6397C210.217 64.2783 209.869 64.8894 209.869 64.9976C209.869 65.1056 209.324 65.4682 208.658 65.8033C207.618 66.3269 207.122 66.4126 205.138 66.4126C203.862 66.4126 202.761 66.3044 202.678 66.1705C202.595 66.0374 202.287 65.928 201.993 65.9272C201.244 65.9258 199.802 64.5359 199.954 63.9607C200.04 63.632 199.942 63.5075 199.596 63.5075C198.998 63.5075 198.233 61.8942 198.64 61.4904C198.783 61.3483 198.9 60.8658 198.9 60.4187C198.9 59.1683 199.31 59.7067 199.498 61.2045C199.591 61.9388 199.836 62.7079 200.043 62.9139C200.569 63.4356 200.718 63.1805 200.286 62.4997C200.089 62.1886 199.864 61.2486 199.787 60.4109C199.71 59.5733 199.588 58.7916 199.514 58.6739C199.341 58.3955 199.828 57.2964 200.562 56.3109C201.182 55.4773 202.329 54.7922 203.104 54.7922C203.364 54.7922 203.855 54.5743 204.196 54.308C204.905 53.7544 205.222 53.7248 206.578 54.0868ZM40.0359 54.2262C39.8685 54.2935 39.5943 54.2935 39.4266 54.2262C39.2591 54.1591 39.3961 54.1042 39.7313 54.1042C40.0664 54.1042 40.2036 54.1591 40.0359 54.2262ZM224.974 54.2986C225.57 54.6729 225.148 54.7777 224.493 54.4179C224.14 54.2238 224.038 54.081 224.25 54.0783C224.451 54.0756 224.777 54.1746 224.974 54.2986ZM141.602 54.4896C141.592 54.5896 141.49 54.889 141.375 55.1553C141.189 55.5843 141.164 55.5638 141.148 54.9738C141.139 54.6077 141.241 54.308 141.375 54.308C141.509 54.308 141.611 54.3896 141.602 54.4896ZM219.68 54.4789C219.378 54.5366 219.131 54.6765 219.131 54.7896C219.131 54.9614 220.288 54.7629 221.203 54.4339C221.536 54.3143 220.359 54.3489 219.68 54.4789ZM285.861 54.6542C285.925 54.7176 285.911 55.0331 285.829 55.3553C285.725 55.7683 285.456 55.9857 284.916 56.0927C283.331 56.4079 282.784 56.2862 282.391 55.5306C281.925 54.637 281.927 54.6121 282.445 54.4627C282.929 54.3235 285.684 54.4777 285.861 54.6542ZM41.1255 55.0571C42.4478 55.7848 42.7345 56.1484 41.4789 55.5054C40.5364 55.0229 40.1871 54.9803 38.2159 55.1072C36.2863 55.2314 35.9266 55.3272 35.3581 55.8681C35.0003 56.2085 34.5857 56.4869 34.4368 56.4869C34.0519 56.4869 32.7949 58.1265 32.3027 59.2709C31.4827 61.1774 31.9373 64.35 33.1593 65.2472C33.5563 65.5389 33.8812 65.8568 33.8812 65.9539C33.8812 66.0512 32.7568 66.1376 31.3828 66.1463C28.3637 66.1652 26.1473 66.3473 23.429 66.7992C22.3053 66.9861 20.9618 67.1389 20.4431 67.1389C19.9161 67.1389 19.5 67.257 19.5 67.4069C19.5 67.565 19.3252 67.6057 19.0734 67.5059C18.8387 67.4132 16.6177 67.3486 14.1375 67.3624C11.0633 67.3795 9.74439 67.3105 9.99375 67.1459C10.1948 67.013 10.6526 66.9026 11.0109 66.9005C11.3695 66.8985 12.0186 66.5993 12.4534 66.2359C13.4206 65.4276 14.6238 63.5913 14.6287 62.9154C14.6372 61.7938 14.6867 61.7848 21.597 61.6667C28.0425 61.5565 28.8205 61.5117 29.924 61.1895C30.3664 61.0602 30.4458 61.1062 30.3244 61.4204C30.0943 62.016 30.6528 61.8894 30.9974 61.2682C31.1634 60.9685 31.3102 60.6145 31.3233 60.4814C31.3892 59.8132 32.934 57.0122 33.5468 56.4496C35.0588 55.0617 36.298 54.5714 38.3224 54.5603C39.7897 54.5523 40.4067 54.6617 41.1255 55.0571ZM196.995 55.0868C196.82 55.2604 196.706 55.2747 196.706 55.1232C196.706 54.8 196.995 54.5136 197.157 54.6753C197.226 54.744 197.153 54.9292 196.995 55.0868ZM227.76 55.4747C227.841 55.6986 227.968 56.045 228.043 56.2448C228.118 56.4445 227.899 56.2811 227.557 55.8816C227.214 55.4822 226.933 55.0772 226.932 54.9813C226.93 54.6579 227.613 55.0648 227.76 55.4747ZM227.899 57.7663C228.423 59.5002 228.469 59.5561 228.636 58.6657C228.795 57.8189 228.796 57.8186 228.983 58.4703C229.087 58.8289 229.083 59.2644 228.974 59.4382C228.866 59.6118 228.754 60.0265 228.726 60.3598C228.648 61.2691 227.973 63.6823 227.66 64.1692C227.425 64.5354 227.406 64.5098 227.53 63.9917C228.139 61.4563 227.887 58.6439 226.868 56.6079L226.384 55.6395L226.987 56.1927C227.319 56.4968 227.729 57.2049 227.899 57.7663ZM44.5161 56.5474C44.4354 56.8471 44.3676 57.446 44.3659 57.8789C44.3635 58.418 44.2465 58.6657 43.994 58.6657C43.7002 58.6657 43.6549 58.457 43.7707 57.6368C43.9674 56.2414 44.0568 56.0027 44.3832 56.0027C44.5546 56.0027 44.606 56.214 44.5161 56.5474ZM92.5031 56.2448C92.4202 56.3779 92.2428 56.4869 92.1087 56.4869C91.9747 56.4869 91.9327 56.3779 92.0156 56.2448C92.0985 56.1116 92.276 56.0027 92.41 56.0027C92.5441 56.0027 92.586 56.1116 92.5031 56.2448ZM205.481 56.2288C205.28 56.345 204.732 56.4738 204.262 56.5152C203.793 56.5566 203.174 56.7357 202.886 56.9137C202.338 57.2514 201.655 58.5778 201.902 58.8233C201.981 58.9015 201.886 59.1237 201.691 59.3169C201.115 59.8892 201.265 61.1568 202.033 62.2097C202.97 63.494 203.746 63.9554 205.088 64.0244C206.038 64.0733 206.326 63.974 206.944 63.3857C208.611 61.7996 209.182 58.9305 208.162 57.2676C207.509 56.2043 206.32 55.7436 205.481 56.2288ZM132.844 56.5464C132.844 56.6752 132.685 56.7202 132.491 56.6462C132.085 56.4917 130.65 57.1364 130.65 57.4729C130.65 57.5964 130.51 57.6973 130.338 57.6973C130.011 57.6973 129.486 58.2299 128.822 59.2365C128.453 59.7955 128.455 59.8977 128.84 60.6445C129.069 61.0873 129.328 61.5042 129.416 61.5708C129.504 61.6374 129.82 62.0383 130.118 62.4614C130.415 62.8849 131.05 63.4715 131.528 63.7649C132.298 64.2374 132.504 64.2665 133.337 64.0186C134.954 63.5375 136.5 61.25 136.5 59.3397C136.5 59.009 136.186 58.3081 135.803 57.782C135.253 57.0289 134.865 56.7713 133.975 56.5689C133.261 56.4067 132.844 56.3985 132.844 56.5464ZM221.203 56.5319C220.39 56.9863 218.792 58.4773 218.339 59.2036C217.751 60.147 217.799 60.6351 218.644 62.298C219.794 64.5597 221.392 65.0765 223.204 63.7729C224.843 62.5934 225.337 61.4616 225.25 59.084C225.234 58.6565 224.86 58.0193 224.219 57.3288C223.155 56.1823 222.254 55.9443 221.203 56.5319ZM267.516 56.6977C266.013 57.6245 265.608 58.2931 265.622 59.8205C265.648 62.5893 267.005 64.1958 269.388 64.2795C271.73 64.3616 273.81 60.44 272.629 58.1708C272.184 57.3158 270.191 56.2443 269.047 56.2457C268.607 56.2462 267.918 56.4496 267.516 56.6977ZM43.3331 57.0747C43.3061 57.3979 43.1976 57.6094 43.0921 57.5446C42.8144 57.3741 42.8556 56.4869 43.1411 56.4869C43.2737 56.4869 43.36 56.7515 43.3331 57.0747ZM141.785 57.0166C141.707 57.2095 141.65 57.1521 141.638 56.8701C141.628 56.6149 141.685 56.4721 141.766 56.5525C141.847 56.6328 141.856 56.8418 141.785 57.0166ZM207.782 57.2124C208.555 57.9796 208.114 57.9648 206.815 57.18C205.615 56.4549 205.612 56.4491 206.456 56.5941C206.924 56.6747 207.521 56.9529 207.782 57.2124ZM98.2971 57.088C96.7746 57.7453 95.9388 59.9335 96.6452 61.4122C97.1112 62.3876 98.3302 63.7363 98.7819 63.7765C100.176 63.9 101.842 62.7328 102.525 61.1549C103.774 58.2699 101.229 55.8218 98.2971 57.088ZM115.475 57.2884C114.273 57.8375 113.311 58.9673 113.011 60.1809C112.801 61.0312 113.239 61.869 114.603 63.2284C115.571 64.1924 115.74 64.2701 116.613 64.1539C118.793 63.8641 120.407 61.6635 120.21 59.2506C120.187 58.9731 119.747 58.2924 119.231 57.7375C118.124 56.5462 117.312 56.4491 115.475 57.2884ZM126.262 56.971C126.262 57.1042 126.146 57.2131 126.004 57.2131C125.862 57.2131 125.814 57.1042 125.897 56.971C125.98 56.8379 126.096 56.7289 126.155 56.7289C126.214 56.7289 126.262 56.8379 126.262 56.971ZM223.291 56.9795C224.006 57.3598 223.873 57.7273 223.123 57.4439C222.771 57.3112 222.086 57.2662 221.6 57.3439C220.767 57.477 220.743 57.4632 221.189 57.1071C221.734 56.6713 222.611 56.6181 223.291 56.9795ZM228.637 57.2417C228.637 57.3749 228.528 57.4165 228.394 57.3342C228.26 57.2519 228.15 57.0756 228.15 56.9425C228.15 56.8093 228.26 56.7677 228.394 56.85C228.528 56.9323 228.637 57.1086 228.637 57.2417ZM134.75 57.8711C135.226 58.3924 135.297 58.6768 135.197 59.6786C135.059 61.0595 134.799 61.4347 133.54 62.0726C132.345 62.6781 131.794 62.6612 131.02 61.9945C130.076 61.1825 130.089 59.4731 131.046 58.3224C132.236 56.8916 133.693 56.7142 134.75 57.8711ZM100.898 57.569C101.732 57.9968 102.127 59.0015 101.855 59.9972C101.578 61.0133 100.025 62.3542 99.3557 62.1559C98.4638 61.8911 98.155 61.3933 98.0416 60.0371C97.9495 58.9318 98.0143 58.6391 98.4472 58.2091C98.7307 57.9276 98.8462 57.6973 98.7044 57.6973C98.5625 57.6973 98.514 57.5884 98.5969 57.4552C98.8194 57.0977 100.104 57.1613 100.898 57.569ZM205.394 57.5298C205.487 57.6218 205.791 57.698 206.07 57.699C206.824 57.7014 207.777 59.1988 207.563 60.0442C207.35 60.8876 205.216 63.0233 204.587 63.0233C203.67 63.0233 202.876 61.8245 202.715 60.1989C202.57 58.7233 202.578 58.6969 203.421 57.9617C204.206 57.2775 204.971 57.1098 205.394 57.5298ZM271.424 57.747C271.945 58.1539 272.025 58.4125 272.025 59.6834C272.025 61.0927 271.983 61.1919 270.96 62.208C270.259 62.9047 269.683 63.2654 269.273 63.2654C268.532 63.2654 267.15 62.183 267.15 61.6032C267.15 61.3783 266.977 60.9496 266.766 60.6504C266.507 60.2824 266.48 60.1279 266.684 60.1727C266.874 60.2148 267.011 59.8931 267.056 59.299C267.166 57.8331 267.912 57.2105 269.514 57.2473C270.405 57.2676 271.015 57.4271 271.424 57.747ZM118.582 57.9806C119.209 58.4708 119.245 58.5979 119.128 59.8866C118.963 61.6928 118.469 62.4065 117.126 62.78C116.151 63.0512 115.973 63.0306 115.204 62.5585C114.366 62.0441 114.357 62.0223 114.478 60.6545C114.633 58.8952 114.91 58.3398 115.866 57.8668C116.944 57.333 117.799 57.3688 118.582 57.9806ZM222.38 58.5117C222.817 58.6933 223.362 59.1252 223.591 59.4714C224.222 60.4281 224.085 62.3644 223.367 62.6379C223.09 62.7437 223.072 62.6738 223.278 62.2915C223.623 61.6512 223.363 61.6884 222.4 62.4181C221.961 62.751 221.377 63.0233 221.103 63.0233C220.464 63.0233 219.854 62.0947 219.688 60.8685C219.5 59.4723 219.755 58.7448 220.532 58.4631C221.44 58.134 221.472 58.1348 222.38 58.5117ZM230.211 58.4069C230.289 58.5308 230.24 58.7006 230.104 58.7843C229.968 58.8678 229.856 58.7664 229.856 58.5589C229.856 58.1336 230.002 58.0711 230.211 58.4069ZM266.46 58.9639C266.279 59.1436 266.247 59.0489 266.353 58.6463C266.439 58.319 266.55 58.2091 266.611 58.3904C266.669 58.5652 266.602 58.823 266.46 58.9639ZM232.245 58.6306C232.419 58.7405 232.579 59.0927 232.599 59.4137C232.651 60.2308 232.965 60.3681 234.4 60.2025C235.65 60.0582 235.655 60.0601 235.823 60.8198C235.991 61.5819 235.991 61.5819 237.25 61.4253C237.943 61.3391 238.564 61.2691 238.631 61.2699C239.181 61.2764 239.371 61.3609 239.255 61.5478C239.077 61.8342 241.095 61.5807 241.495 61.2665C241.725 61.0859 241.8 61.2125 241.8 61.7833C241.8 62.199 241.91 62.5392 242.044 62.5392C242.178 62.5392 242.287 62.3213 242.287 62.055C242.287 61.694 242.458 61.5645 242.958 61.5463C243.327 61.533 245.223 61.4861 247.173 61.442C249.123 61.3982 250.823 61.3418 250.951 61.3168C251.079 61.2917 251.239 61.2934 251.306 61.3202C251.705 61.48 252.525 61.4585 252.525 61.2883C252.525 61.0149 253.68 61.0307 253.852 61.3064C253.927 61.4275 254.443 61.3084 254.998 61.0421C255.553 60.7758 256.622 60.5119 257.374 60.456C259.896 60.2678 260.812 60.0781 260.812 59.744C260.812 59.566 260.927 59.3501 261.068 59.2639C261.239 59.1588 261.304 59.7009 261.265 60.9043C261.231 61.9836 261.34 63.0313 261.538 63.5281C262.084 64.8928 263.483 66.425 264.627 66.9121C265.21 67.1604 265.688 67.4088 265.688 67.464C265.688 67.5785 261.211 67.4926 250.58 67.1733C246.493 67.0508 239.427 67.0058 234.877 67.0735L226.604 67.1968L227.513 66.4039C228.975 65.1295 229.535 63.7307 229.825 60.6334C229.85 60.3657 229.927 60.3596 230.222 60.6024C230.539 60.8636 230.587 60.7385 230.587 59.6636C230.587 58.4713 230.613 58.4238 231.258 58.4272C231.627 58.4294 232.071 58.5209 232.245 58.6306ZM38.7238 59.0893C39.0183 59.3346 39.2993 59.9442 39.3905 60.5361C39.5355 61.4781 39.4797 61.627 38.689 62.4123C37.6694 63.425 37.4593 63.4518 36.6734 62.6711C35.8795 61.8828 35.851 60.5436 36.6169 60.011C36.9147 59.8038 37.0322 59.6341 36.8779 59.6341C36.7236 59.6341 36.4197 59.8105 36.2027 60.026C35.5746 60.6499 35.4442 60.18 36.0638 59.5249C36.5603 58.9998 36.9878 58.8114 37.937 58.6986C38.0898 58.6805 38.4438 58.8565 38.7238 59.0893ZM262.362 59.6178C262.151 59.8498 261.746 59.1707 261.924 58.8845C262.065 58.6572 262.16 58.6991 262.286 59.0448C262.381 59.3024 262.415 59.5602 262.362 59.6178ZM107.981 59.8761C107.981 60.0093 108.146 60.1182 108.347 60.1182C108.624 60.1182 108.713 60.4153 108.713 61.3384C108.713 62.7169 109.265 63.9757 110.401 65.183C110.813 65.6212 111.15 66.0679 111.15 66.1754C111.15 66.4363 107.924 66.6075 107.628 66.3623C107.501 66.257 106.842 66.1722 106.165 66.1742C105.281 66.1768 105.037 66.2439 105.3 66.4126C105.575 66.5891 105.454 66.6492 104.812 66.6542C104.343 66.6581 103.713 66.7271 103.411 66.8072C103.082 66.8949 102.862 66.8452 102.862 66.683C102.862 66.5342 103.057 66.4126 103.293 66.4126C104.161 66.4126 105.554 65.1937 106.148 63.9152C106.821 62.4639 107.494 60.5029 107.494 59.9887C107.494 59.7936 107.603 59.6341 107.737 59.6341C107.872 59.6341 107.981 59.743 107.981 59.8761ZM119.848 60.1638C119.77 60.3567 119.712 60.2993 119.701 60.0173C119.69 59.7621 119.748 59.6193 119.828 59.6997C119.909 59.78 119.918 59.989 119.848 60.1638ZM214.012 61.366C214.012 62.727 214.148 63.3816 214.645 64.4243C215.157 65.5014 215.215 65.7943 214.949 65.9805C214.723 66.1391 214.818 66.1676 215.258 66.073C215.697 65.9786 216.021 66.0751 216.303 66.3848C216.695 66.8152 216.659 66.8385 215.423 66.9578C214.714 67.0263 214.075 66.9898 214.003 66.8765C213.931 66.7632 213.602 66.6869 213.272 66.707C212.942 66.7271 212.069 66.708 211.331 66.6646L209.991 66.586L210.966 66.4126C211.726 66.2775 211.793 66.2318 211.27 66.2049C210.371 66.1589 210.424 65.841 211.555 64.4994C212.229 63.7002 212.627 62.9057 212.906 61.8027C213.431 59.729 213.468 59.6341 213.761 59.6341C213.91 59.6341 214.012 60.3376 214.012 61.366ZM231.761 59.7994C231.936 59.8694 232.147 59.8607 232.228 59.7803C232.309 59.6999 232.165 59.6428 231.908 59.6532C231.624 59.6648 231.566 59.7222 231.761 59.7994ZM274.462 59.8761C274.462 60.0093 274.572 60.1182 274.706 60.1182C274.84 60.1182 274.95 60.0093 274.95 59.8761C274.95 59.743 274.84 59.6341 274.706 59.6341C274.572 59.6341 274.462 59.743 274.462 59.8761ZM11.0733 60.2565C11.9021 61.0798 11.2527 62.2971 9.98497 62.2971C9.53794 62.2971 9.18767 62.1261 9.02826 61.8303C8.68213 61.1883 8.97341 60.5342 9.53989 60.6813C9.78949 60.7462 9.99375 60.7005 9.99375 60.5797C9.99375 60.4591 9.82922 60.3603 9.62813 60.3603C9.42703 60.3603 9.2625 60.2514 9.2625 60.1182C9.2625 59.7321 10.6521 59.8384 11.0733 60.2565ZM125.409 60.9656C125.409 61.5647 125.341 62.055 125.258 62.055C125.056 62.055 124.784 60.3393 124.946 60.0805C125.237 59.6125 125.409 59.9422 125.409 60.9656ZM129.671 60.6629C129.673 60.7629 129.565 60.8445 129.431 60.8445C129.297 60.8445 129.189 60.5995 129.191 60.2998C129.194 59.8594 129.24 59.8246 129.431 60.1182C129.561 60.318 129.669 60.563 129.671 60.6629ZM212.548 61.4616C212.456 62.0673 212.242 62.6936 212.074 62.8536C211.829 63.0858 211.803 62.9735 211.946 62.2971C212.147 61.3427 212.493 60.3603 212.627 60.3603C212.676 60.3603 212.641 60.8559 212.548 61.4616ZM15.7777 60.9907C15.6968 61.0711 15.4864 61.0798 15.3107 61.0099C15.1162 60.9326 15.1739 60.8753 15.4579 60.8636C15.7148 60.8532 15.8586 60.9104 15.7777 60.9907ZM124.8 61.5374C124.8 61.9182 125.239 63.0229 125.775 63.9917C126.311 64.9606 126.75 65.7929 126.75 65.8408C126.75 65.889 125.653 65.9285 124.312 65.9285C121.911 65.9285 121.524 65.7934 122.236 65.2056C122.435 65.0417 122.786 64.3166 123.015 63.5944C123.286 62.7408 123.54 62.3225 123.741 62.3992C123.94 62.4748 124.108 62.2169 124.209 61.6809C124.4 60.6697 124.8 60.5724 124.8 61.5374ZM135.237 61.9339C135.075 62.2879 134.755 62.5392 134.468 62.5392C133.998 62.5392 134.002 62.5137 134.55 61.9339C134.865 61.6011 135.211 61.3287 135.319 61.3287C135.426 61.3287 135.39 61.6011 135.237 61.9339ZM99.4973 63.0233C99.7552 63.0233 99.9048 63.1221 99.8298 63.2427C99.6516 63.5293 98.7119 63.2959 98.1703 62.8306C97.4873 62.2436 97.6789 61.969 98.386 62.5215C98.7392 62.7975 99.2394 63.0233 99.4973 63.0233ZM119.194 62.1339C119.194 62.1772 118.901 62.4767 118.543 62.7996L117.892 63.3865L118.36 62.7282C118.758 62.1695 119.194 61.8584 119.194 62.1339ZM172.331 62.2992C171.728 62.4004 171.13 62.3866 171.003 62.269C170.867 62.1433 171.32 62.0676 172.1 62.0852L173.428 62.1155L172.331 62.2992ZM109.884 63.3928C109.809 63.4673 109.673 63.333 109.581 63.0943C109.449 62.7493 109.477 62.7215 109.718 62.9587C109.884 63.1231 109.959 63.3185 109.884 63.3928ZM188.109 62.9275C188.028 63.0078 187.818 63.0166 187.642 62.9466C187.447 62.8694 187.505 62.812 187.789 62.8004C188.046 62.79 188.19 62.8471 188.109 62.9275ZM179.278 63.2654C179.372 63.416 178.939 63.501 178.135 63.4906C177.187 63.478 176.971 63.418 177.328 63.2654C178.007 62.9754 179.098 62.9754 179.278 63.2654ZM181.533 63.1901C181.298 63.2512 180.914 63.2512 180.68 63.1901C180.445 63.1294 180.637 63.0795 181.106 63.0795C181.575 63.0795 181.767 63.1294 181.533 63.1901ZM182.746 63.1696C182.666 63.2499 182.455 63.2587 182.279 63.1887C182.085 63.1115 182.143 63.0541 182.427 63.0425C182.684 63.0321 182.827 63.0892 182.746 63.1696ZM122.451 63.6286C122.302 64.0125 121.875 64.1324 121.875 63.79C121.875 63.5339 122.141 63.2654 122.395 63.2654C122.503 63.2654 122.528 63.4288 122.451 63.6286ZM168.167 63.3526C168.111 63.4005 167.353 63.5085 166.481 63.5925C165.415 63.6952 165.017 63.668 165.262 63.509C165.592 63.2962 168.41 63.1444 168.167 63.3526ZM104.613 65.2547C104.439 65.4283 104.325 65.4426 104.325 65.291C104.325 65.1533 104.398 64.9681 104.488 64.8795C104.577 64.7906 104.707 64.7744 104.776 64.8431C104.845 64.9119 104.772 65.0971 104.613 65.2547ZM60.2672 65.8532C60.5019 65.9142 60.8856 65.9142 61.1203 65.8532C61.355 65.7924 61.163 65.7425 60.6937 65.7425C60.2245 65.7425 60.0325 65.7924 60.2672 65.8532ZM127.936 66.6869C128.624 66.9711 129.188 67.298 129.188 67.4132C129.188 67.6228 126.547 67.7434 125.166 67.5969C124.234 67.4982 121.514 67.5737 119.316 67.7591C117.787 67.8882 117.66 67.8669 118.097 67.5536C118.743 67.0905 119.613 66.8213 120.656 66.762C121.96 66.6879 122.024 66.6649 121.631 66.4126C121.383 66.2533 122.136 66.1768 123.975 66.1742C126.194 66.1713 126.912 66.2642 127.936 66.6869ZM71.4187 66.6547C71.4187 66.7879 71.3091 66.8968 71.175 66.8968C71.0409 66.8968 70.9313 66.7879 70.9313 66.6547C70.9313 66.5216 71.0409 66.4126 71.175 66.4126C71.3091 66.4126 71.4187 66.5216 71.4187 66.6547ZM122.579 66.6765C122.158 66.9411 124.171 66.9336 125.897 66.6639C127 66.4916 126.916 66.4729 125.017 66.4685C123.862 66.4656 122.765 66.5593 122.579 66.6765ZM172.575 66.6547C172.575 66.7879 172.691 66.8968 172.833 66.8968C172.975 66.8968 173.023 66.7879 172.941 66.6547C172.858 66.5216 172.742 66.4126 172.682 66.4126C172.623 66.4126 172.575 66.5216 172.575 66.6547ZM34.9235 67.0791C35.2906 67.4817 35.2399 67.5108 34.0487 67.5795C33.3533 67.6197 31.4133 67.7374 29.7375 67.8407C28.0617 67.9441 25.5218 68.0192 24.0935 68.0075C22.6649 67.9957 21.547 68.0678 21.6094 68.1678C21.6716 68.2678 21.4417 68.3494 21.0988 68.3494C20.7558 68.3494 20.475 68.2404 20.475 68.1073C20.475 67.9741 20.3039 67.8652 20.095 67.8652C19.8861 67.8652 19.7728 67.7722 19.8434 67.6587C19.9799 67.4396 22.1993 67.2033 26.2031 66.9816C27.5437 66.9072 28.6738 66.816 28.7142 66.7784C28.7547 66.7411 30.0807 66.6971 31.6609 66.6809C34.1213 66.6557 34.5901 66.7128 34.9235 67.0791ZM40.5844 66.8968C40.5015 67.03 40.1934 67.1372 39.8997 67.1353C39.4656 67.1321 39.4341 67.0876 39.7313 66.8968C40.2114 66.5886 40.7762 66.5886 40.5844 66.8968ZM116.512 67.1009C116.512 67.3318 116.34 67.3916 115.964 67.2914C115.662 67.2113 115.224 67.144 114.989 67.1423C114.755 67.1404 114.562 67.0375 114.562 66.9135C114.562 66.7896 115.001 66.7053 115.537 66.7264C116.189 66.7518 116.512 66.8762 116.512 67.1009ZM131.869 66.7615C131.869 67.0169 131.401 67.1244 131.262 66.9007C131.178 66.7654 131.28 66.6547 131.489 66.6547C131.698 66.6547 131.869 66.7027 131.869 66.7615ZM133.392 66.815C133.225 66.8823 132.951 66.8823 132.783 66.815C132.615 66.7479 132.752 66.693 133.087 66.693C133.423 66.693 133.56 66.7479 133.392 66.815ZM140.111 67.1244C140.22 67.4502 141.131 67.4631 141.131 67.1389C141.131 66.7876 142.287 66.8414 142.433 67.1994C142.526 67.427 142.62 67.412 142.81 67.1389C143.033 66.8203 143.116 66.8278 143.49 67.1994C143.897 67.603 143.842 67.6248 142.341 67.6613C141.475 67.6822 140.601 67.6853 140.4 67.6684C140.199 67.6512 138.499 67.619 136.622 67.5969C134.211 67.5684 133.496 67.5008 134.184 67.3667C134.721 67.2624 135.434 67.059 135.769 66.915C136.511 66.5961 139.99 66.7639 140.111 67.1244ZM202.069 67.1389C202.069 67.2721 201.685 67.381 201.216 67.381C200.746 67.381 200.363 67.4718 200.363 67.5827C200.363 67.6935 198.059 67.808 195.244 67.8373C191.791 67.8732 190.125 67.8076 190.125 67.6357C190.125 67.4834 190.787 67.3778 191.77 67.3732C193.918 67.3633 198.506 67.1062 198.636 66.9886C198.871 66.7758 202.069 66.9157 202.069 67.1389ZM208.528 67.1389C208.445 67.2721 208.165 67.381 207.904 67.381C207.644 67.381 207.431 67.5081 207.431 67.6635C207.431 67.8187 207.374 67.8889 207.304 67.8192C207.004 67.5219 207.531 66.8968 208.081 66.8968C208.417 66.8968 208.613 67.0026 208.528 67.1389ZM210.462 67.1132C210.536 67.2321 210.323 67.3139 209.989 67.2948C209.655 67.2757 209.381 67.1784 209.381 67.0784C209.381 66.822 210.299 66.8518 210.462 67.1132ZM61.1812 67.6231C61.1812 67.7562 60.8795 67.8669 60.5109 67.8688C60.0325 67.8715 59.9371 67.9332 60.1777 68.0848C60.4851 68.2779 63.1156 68.1719 63.3548 67.9567C63.4106 67.9063 63.054 67.8652 62.5626 67.8652C62.0709 67.8652 61.6688 67.7562 61.6688 67.6231C61.6688 67.4899 61.5591 67.381 61.425 67.381C61.2909 67.381 61.1812 67.4899 61.1812 67.6231ZM96.9516 67.5543C96.583 67.6098 95.9795 67.6098 95.6109 67.5543C95.2424 67.4989 95.5439 67.4536 96.2812 67.4536C97.0186 67.4536 97.3201 67.4989 96.9516 67.5543ZM189.759 67.6231C189.855 67.7761 189.344 67.8511 188.372 67.8272L186.834 67.7892L188.053 67.6231C188.723 67.5318 189.348 67.4401 189.44 67.419C189.533 67.3982 189.676 67.4899 189.759 67.6231ZM18.0375 67.8652C18.0375 67.9983 17.9892 68.1073 17.93 68.1073C17.8708 68.1073 17.7547 67.9983 17.6719 67.8652C17.589 67.732 17.6375 67.6231 17.7794 67.6231C17.9212 67.6231 18.0375 67.732 18.0375 67.8652ZM100.286 67.8901C99.9533 68.0196 100.119 68.0782 100.852 68.0903C101.421 68.0995 101.887 68.0654 101.887 68.0146C101.887 67.809 100.727 67.7187 100.286 67.8901ZM108.527 67.9063C108.696 68.0129 109.493 68.093 110.297 68.0845C112.076 68.0656 111.814 67.9337 109.746 67.8066C108.907 67.755 108.359 67.8001 108.527 67.9063ZM186.225 67.8652C186.225 68.0184 184.817 68.0889 182.386 68.0569L178.547 68.0066L182.081 67.8652C184.025 67.7875 185.753 67.701 185.92 67.6734C186.088 67.6459 186.225 67.732 186.225 67.8652ZM38.2687 68.1073C38.2687 68.2533 37.276 68.3479 35.7703 68.3457C34.0672 68.3431 33.3881 68.2673 33.6375 68.1073C34.1272 67.793 38.2687 67.793 38.2687 68.1073ZM56.1844 68.1339C55.2459 68.2194 53.4636 68.3026 52.2234 68.3193C50.8475 68.3377 49.9688 68.4472 49.9688 68.6007C49.9688 68.7488 50.3439 68.8076 50.8828 68.744C51.3857 68.6847 53.5246 68.5568 55.6359 68.4602C57.7473 68.3636 59.475 68.1935 59.475 68.0821C59.475 67.8703 58.9941 67.878 56.1844 68.1339ZM221.569 68.3494C221.841 68.5239 221.7 68.5849 221.02 68.5878C220.518 68.5898 220.106 68.4825 220.106 68.3494C220.106 68.0409 221.088 68.0409 221.569 68.3494Z" fill="#449284"/>
</svg>
